ISO-10303-21;
HEADER;
/* Generated by software containing ST-Developer
 * from STEP Tools, Inc. (www.steptools.com) 
 */
/* OPTION: using custom renumber hook */

FILE_DESCRIPTION(
/* description */ ('STEP AP242 Edition 2',
'CAx-IF Rec.Pracs.---Representation and Presentation of Product Manufa
cturing Information (PMI)---4.0---2014-10-13',
'CAx-IF Rec.Pracs.---3D Tessellated Geometry---0.4---2014-09-14','2;1',
'CAx-IF Rec.Pracs.---User Defined Attributes---1.5---2016-08-15'),
/* implementation_level */ '2;1');

FILE_NAME(
/* name */ 'KICAD Drohnen COntroller - Drone Controller - Bottom',
/* time_stamp */ '2026-08-18T16:24:58Z',
/* author */ (''),
/* organization */ (''),
/* preprocessor_version */ 'ST-DEVELOPER v20',
/* originating_system */ 'ONSHAPE BY PTC INC, 1.219',
/* authorisation */ '  ');

FILE_SCHEMA (('AP242_MANAGED_MODEL_BASED_3D_ENGINEERING_MIM_LF { 1 0 10303 442 3 1 4 }'));
ENDSEC;

DATA;
#10=SHAPE_REPRESENTATION_RELATIONSHIP('','',#1212,#11);
#11=ADVANCED_BREP_SHAPE_REPRESENTATION('',(#1210),#1786);
#12=SPHERICAL_SURFACE('',#1249,0.005);
#13=SPHERICAL_SURFACE('',#1256,0.005);
#14=SPHERICAL_SURFACE('',#1258,0.005);
#15=SPHERICAL_SURFACE('',#1264,0.005);
#16=CYLINDRICAL_SURFACE('',#1241,0.005);
#17=CYLINDRICAL_SURFACE('',#1243,0.005);
#18=CYLINDRICAL_SURFACE('',#1245,0.005);
#19=CYLINDRICAL_SURFACE('',#1247,0.005);
#20=CYLINDRICAL_SURFACE('',#1252,0.005);
#21=CYLINDRICAL_SURFACE('',#1254,0.005);
#22=CYLINDRICAL_SURFACE('',#1260,0.005);
#23=CYLINDRICAL_SURFACE('',#1262,0.005);
#24=CYLINDRICAL_SURFACE('',#1265,0.00175);
#25=CYLINDRICAL_SURFACE('',#1268,0.00175);
#26=CYLINDRICAL_SURFACE('',#1271,0.00175);
#27=CYLINDRICAL_SURFACE('',#1274,0.00175);
#28=CIRCLE('',#1219,0.005);
#29=CIRCLE('',#1220,0.005);
#30=CIRCLE('',#1221,0.005);
#31=CIRCLE('',#1222,0.005);
#32=CIRCLE('',#1223,0.00175);
#33=CIRCLE('',#1224,0.00175);
#34=CIRCLE('',#1225,0.00175);
#35=CIRCLE('',#1226,0.00175);
#36=CIRCLE('',#1242,0.005);
#37=CIRCLE('',#1244,0.005);
#38=CIRCLE('',#1246,0.005);
#39=CIRCLE('',#1248,0.005);
#40=CIRCLE('',#1250,0.005);
#41=CIRCLE('',#1251,0.005);
#42=CIRCLE('',#1253,0.005);
#43=CIRCLE('',#1255,0.005);
#44=CIRCLE('',#1257,0.005);
#45=CIRCLE('',#1259,0.005);
#46=CIRCLE('',#1261,0.005);
#47=CIRCLE('',#1263,0.005);
#48=CIRCLE('',#1266,0.00175);
#49=CIRCLE('',#1269,0.00175);
#50=CIRCLE('',#1272,0.00175);
#51=CIRCLE('',#1275,0.00175);
#52=ORIENTED_EDGE('',*,*,#284,.F.);
#53=ORIENTED_EDGE('',*,*,#285,.T.);
#54=ORIENTED_EDGE('',*,*,#286,.T.);
#55=ORIENTED_EDGE('',*,*,#287,.F.);
#56=ORIENTED_EDGE('',*,*,#288,.F.);
#57=ORIENTED_EDGE('',*,*,#289,.F.);
#58=ORIENTED_EDGE('',*,*,#290,.T.);
#59=ORIENTED_EDGE('',*,*,#291,.T.);
#60=ORIENTED_EDGE('',*,*,#292,.T.);
#61=ORIENTED_EDGE('',*,*,#293,.T.);
#62=ORIENTED_EDGE('',*,*,#294,.F.);
#63=ORIENTED_EDGE('',*,*,#295,.F.);
#64=ORIENTED_EDGE('',*,*,#296,.F.);
#65=ORIENTED_EDGE('',*,*,#297,.F.);
#66=ORIENTED_EDGE('',*,*,#298,.F.);
#67=ORIENTED_EDGE('',*,*,#299,.F.);
#68=ORIENTED_EDGE('',*,*,#300,.T.);
#69=ORIENTED_EDGE('',*,*,#301,.T.);
#70=ORIENTED_EDGE('',*,*,#302,.T.);
#71=ORIENTED_EDGE('',*,*,#303,.F.);
#72=ORIENTED_EDGE('',*,*,#304,.T.);
#73=ORIENTED_EDGE('',*,*,#305,.T.);
#74=ORIENTED_EDGE('',*,*,#306,.T.);
#75=ORIENTED_EDGE('',*,*,#307,.T.);
#76=ORIENTED_EDGE('',*,*,#288,.T.);
#77=ORIENTED_EDGE('',*,*,#308,.F.);
#78=ORIENTED_EDGE('',*,*,#309,.T.);
#79=ORIENTED_EDGE('',*,*,#310,.T.);
#80=ORIENTED_EDGE('',*,*,#311,.F.);
#81=ORIENTED_EDGE('',*,*,#312,.F.);
#82=ORIENTED_EDGE('',*,*,#313,.F.);
#83=ORIENTED_EDGE('',*,*,#314,.F.);
#84=ORIENTED_EDGE('',*,*,#315,.T.);
#85=ORIENTED_EDGE('',*,*,#290,.F.);
#86=ORIENTED_EDGE('',*,*,#316,.F.);
#87=ORIENTED_EDGE('',*,*,#317,.F.);
#88=ORIENTED_EDGE('',*,*,#318,.F.);
#89=ORIENTED_EDGE('',*,*,#319,.T.);
#90=ORIENTED_EDGE('',*,*,#320,.F.);
#91=ORIENTED_EDGE('',*,*,#321,.T.);
#92=ORIENTED_EDGE('',*,*,#299,.T.);
#93=ORIENTED_EDGE('',*,*,#322,.F.);
#94=ORIENTED_EDGE('',*,*,#323,.T.);
#95=ORIENTED_EDGE('',*,*,#324,.T.);
#96=ORIENTED_EDGE('',*,*,#303,.T.);
#97=ORIENTED_EDGE('',*,*,#325,.T.);
#98=ORIENTED_EDGE('',*,*,#326,.T.);
#99=ORIENTED_EDGE('',*,*,#327,.T.);
#100=ORIENTED_EDGE('',*,*,#328,.T.);
#101=ORIENTED_EDGE('',*,*,#329,.T.);
#102=ORIENTED_EDGE('',*,*,#317,.T.);
#103=ORIENTED_EDGE('',*,*,#330,.F.);
#104=ORIENTED_EDGE('',*,*,#306,.F.);
#105=ORIENTED_EDGE('',*,*,#331,.T.);
#106=ORIENTED_EDGE('',*,*,#332,.F.);
#107=ORIENTED_EDGE('',*,*,#333,.T.);
#108=ORIENTED_EDGE('',*,*,#309,.F.);
#109=ORIENTED_EDGE('',*,*,#334,.T.);
#110=ORIENTED_EDGE('',*,*,#314,.T.);
#111=ORIENTED_EDGE('',*,*,#335,.T.);
#112=ORIENTED_EDGE('',*,*,#336,.F.);
#113=ORIENTED_EDGE('',*,*,#337,.F.);
#114=ORIENTED_EDGE('',*,*,#338,.F.);
#115=ORIENTED_EDGE('',*,*,#339,.F.);
#116=ORIENTED_EDGE('',*,*,#340,.T.);
#117=ORIENTED_EDGE('',*,*,#341,.T.);
#118=ORIENTED_EDGE('',*,*,#342,.T.);
#119=ORIENTED_EDGE('',*,*,#320,.T.);
#120=ORIENTED_EDGE('',*,*,#343,.T.);
#121=ORIENTED_EDGE('',*,*,#344,.T.);
#122=ORIENTED_EDGE('',*,*,#345,.T.);
#123=ORIENTED_EDGE('',*,*,#326,.F.);
#124=ORIENTED_EDGE('',*,*,#346,.T.);
#125=ORIENTED_EDGE('',*,*,#347,.T.);
#126=ORIENTED_EDGE('',*,*,#348,.T.);
#127=ORIENTED_EDGE('',*,*,#318,.T.);
#128=ORIENTED_EDGE('',*,*,#349,.T.);
#129=ORIENTED_EDGE('',*,*,#350,.T.);
#130=ORIENTED_EDGE('',*,*,#351,.T.);
#131=ORIENTED_EDGE('',*,*,#352,.T.);
#132=ORIENTED_EDGE('',*,*,#291,.F.);
#133=ORIENTED_EDGE('',*,*,#315,.F.);
#134=ORIENTED_EDGE('',*,*,#334,.F.);
#135=ORIENTED_EDGE('',*,*,#308,.T.);
#136=ORIENTED_EDGE('',*,*,#316,.T.);
#137=ORIENTED_EDGE('',*,*,#289,.T.);
#138=ORIENTED_EDGE('',*,*,#307,.F.);
#139=ORIENTED_EDGE('',*,*,#330,.T.);
#140=ORIENTED_EDGE('',*,*,#332,.T.);
#141=ORIENTED_EDGE('',*,*,#353,.F.);
#142=ORIENTED_EDGE('',*,*,#354,.F.);
#143=ORIENTED_EDGE('',*,*,#355,.T.);
#144=ORIENTED_EDGE('',*,*,#356,.F.);
#145=ORIENTED_EDGE('',*,*,#354,.T.);
#146=ORIENTED_EDGE('',*,*,#357,.F.);
#147=ORIENTED_EDGE('',*,*,#304,.F.);
#148=ORIENTED_EDGE('',*,*,#333,.F.);
#149=ORIENTED_EDGE('',*,*,#355,.F.);
#150=ORIENTED_EDGE('',*,*,#356,.T.);
#151=ORIENTED_EDGE('',*,*,#310,.F.);
#152=ORIENTED_EDGE('',*,*,#357,.T.);
#153=ORIENTED_EDGE('',*,*,#353,.T.);
#154=ORIENTED_EDGE('',*,*,#331,.F.);
#155=ORIENTED_EDGE('',*,*,#305,.F.);
#156=ORIENTED_EDGE('',*,*,#312,.T.);
#157=ORIENTED_EDGE('',*,*,#358,.F.);
#158=ORIENTED_EDGE('',*,*,#359,.F.);
#159=ORIENTED_EDGE('',*,*,#360,.F.);
#160=ORIENTED_EDGE('',*,*,#311,.T.);
#161=ORIENTED_EDGE('',*,*,#329,.F.);
#162=ORIENTED_EDGE('',*,*,#361,.F.);
#163=ORIENTED_EDGE('',*,*,#358,.T.);
#164=ORIENTED_EDGE('',*,*,#313,.T.);
#165=ORIENTED_EDGE('',*,*,#360,.T.);
#166=ORIENTED_EDGE('',*,*,#362,.T.);
#167=ORIENTED_EDGE('',*,*,#335,.F.);
#168=ORIENTED_EDGE('',*,*,#328,.F.);
#169=ORIENTED_EDGE('',*,*,#362,.F.);
#170=ORIENTED_EDGE('',*,*,#359,.T.);
#171=ORIENTED_EDGE('',*,*,#361,.T.);
#172=ORIENTED_EDGE('',*,*,#345,.F.);
#173=ORIENTED_EDGE('',*,*,#363,.T.);
#174=ORIENTED_EDGE('',*,*,#346,.F.);
#175=ORIENTED_EDGE('',*,*,#327,.F.);
#176=ORIENTED_EDGE('',*,*,#302,.F.);
#177=ORIENTED_EDGE('',*,*,#364,.T.);
#178=ORIENTED_EDGE('',*,*,#343,.F.);
#179=ORIENTED_EDGE('',*,*,#325,.F.);
#180=ORIENTED_EDGE('',*,*,#348,.F.);
#181=ORIENTED_EDGE('',*,*,#365,.T.);
#182=ORIENTED_EDGE('',*,*,#340,.F.);
#183=ORIENTED_EDGE('',*,*,#319,.F.);
#184=ORIENTED_EDGE('',*,*,#342,.F.);
#185=ORIENTED_EDGE('',*,*,#366,.T.);
#186=ORIENTED_EDGE('',*,*,#300,.F.);
#187=ORIENTED_EDGE('',*,*,#321,.F.);
#188=ORIENTED_EDGE('',*,*,#367,.F.);
#189=ORIENTED_EDGE('',*,*,#364,.F.);
#190=ORIENTED_EDGE('',*,*,#368,.F.);
#191=ORIENTED_EDGE('',*,*,#368,.T.);
#192=ORIENTED_EDGE('',*,*,#301,.F.);
#193=ORIENTED_EDGE('',*,*,#369,.F.);
#194=ORIENTED_EDGE('',*,*,#349,.F.);
#195=ORIENTED_EDGE('',*,*,#367,.T.);
#196=ORIENTED_EDGE('',*,*,#352,.F.);
#197=ORIENTED_EDGE('',*,*,#370,.F.);
#198=ORIENTED_EDGE('',*,*,#344,.F.);
#199=ORIENTED_EDGE('',*,*,#369,.T.);
#200=ORIENTED_EDGE('',*,*,#366,.F.);
#201=ORIENTED_EDGE('',*,*,#371,.F.);
#202=ORIENTED_EDGE('',*,*,#363,.F.);
#203=ORIENTED_EDGE('',*,*,#370,.T.);
#204=ORIENTED_EDGE('',*,*,#372,.F.);
#205=ORIENTED_EDGE('',*,*,#371,.T.);
#206=ORIENTED_EDGE('',*,*,#341,.F.);
#207=ORIENTED_EDGE('',*,*,#373,.F.);
#208=ORIENTED_EDGE('',*,*,#350,.F.);
#209=ORIENTED_EDGE('',*,*,#372,.T.);
#210=ORIENTED_EDGE('',*,*,#351,.F.);
#211=ORIENTED_EDGE('',*,*,#374,.F.);
#212=ORIENTED_EDGE('',*,*,#347,.F.);
#213=ORIENTED_EDGE('',*,*,#373,.T.);
#214=ORIENTED_EDGE('',*,*,#365,.F.);
#215=ORIENTED_EDGE('',*,*,#374,.T.);
#216=ORIENTED_EDGE('',*,*,#375,.F.);
#217=ORIENTED_EDGE('',*,*,#337,.T.);
#218=ORIENTED_EDGE('',*,*,#375,.T.);
#219=ORIENTED_EDGE('',*,*,#376,.F.);
#220=ORIENTED_EDGE('',*,*,#336,.T.);
#221=ORIENTED_EDGE('',*,*,#376,.T.);
#222=ORIENTED_EDGE('',*,*,#377,.F.);
#223=ORIENTED_EDGE('',*,*,#339,.T.);
#224=ORIENTED_EDGE('',*,*,#377,.T.);
#225=ORIENTED_EDGE('',*,*,#378,.F.);
#226=ORIENTED_EDGE('',*,*,#338,.T.);
#227=ORIENTED_EDGE('',*,*,#378,.T.);
#228=ORIENTED_EDGE('',*,*,#298,.T.);
#229=ORIENTED_EDGE('',*,*,#379,.F.);
#230=ORIENTED_EDGE('',*,*,#380,.F.);
#231=ORIENTED_EDGE('',*,*,#322,.T.);
#232=ORIENTED_EDGE('',*,*,#297,.T.);
#233=ORIENTED_EDGE('',*,*,#381,.F.);
#234=ORIENTED_EDGE('',*,*,#382,.F.);
#235=ORIENTED_EDGE('',*,*,#379,.T.);
#236=ORIENTED_EDGE('',*,*,#296,.T.);
#237=ORIENTED_EDGE('',*,*,#324,.F.);
#238=ORIENTED_EDGE('',*,*,#383,.F.);
#239=ORIENTED_EDGE('',*,*,#381,.T.);
#240=ORIENTED_EDGE('',*,*,#323,.F.);
#241=ORIENTED_EDGE('',*,*,#380,.T.);
#242=ORIENTED_EDGE('',*,*,#382,.T.);
#243=ORIENTED_EDGE('',*,*,#383,.T.);
#244=ORIENTED_EDGE('',*,*,#384,.F.);
#245=ORIENTED_EDGE('',*,*,#385,.F.);
#246=ORIENTED_EDGE('',*,*,#284,.T.);
#247=ORIENTED_EDGE('',*,*,#386,.T.);
#248=ORIENTED_EDGE('',*,*,#387,.F.);
#249=ORIENTED_EDGE('',*,*,#386,.F.);
#250=ORIENTED_EDGE('',*,*,#287,.T.);
#251=ORIENTED_EDGE('',*,*,#388,.T.);
#252=ORIENTED_EDGE('',*,*,#389,.T.);
#253=ORIENTED_EDGE('',*,*,#388,.F.);
#254=ORIENTED_EDGE('',*,*,#286,.F.);
#255=ORIENTED_EDGE('',*,*,#390,.T.);
#256=ORIENTED_EDGE('',*,*,#391,.T.);
#257=ORIENTED_EDGE('',*,*,#390,.F.);
#258=ORIENTED_EDGE('',*,*,#285,.F.);
#259=ORIENTED_EDGE('',*,*,#385,.T.);
#260=ORIENTED_EDGE('',*,*,#384,.T.);
#261=ORIENTED_EDGE('',*,*,#387,.T.);
#262=ORIENTED_EDGE('',*,*,#389,.F.);
#263=ORIENTED_EDGE('',*,*,#391,.F.);
#264=ORIENTED_EDGE('',*,*,#392,.T.);
#265=ORIENTED_EDGE('',*,*,#393,.F.);
#266=ORIENTED_EDGE('',*,*,#293,.F.);
#267=ORIENTED_EDGE('',*,*,#394,.T.);
#268=ORIENTED_EDGE('',*,*,#395,.T.);
#269=ORIENTED_EDGE('',*,*,#394,.F.);
#270=ORIENTED_EDGE('',*,*,#292,.F.);
#271=ORIENTED_EDGE('',*,*,#396,.T.);
#272=ORIENTED_EDGE('',*,*,#397,.F.);
#273=ORIENTED_EDGE('',*,*,#396,.F.);
#274=ORIENTED_EDGE('',*,*,#295,.T.);
#275=ORIENTED_EDGE('',*,*,#398,.T.);
#276=ORIENTED_EDGE('',*,*,#399,.F.);
#277=ORIENTED_EDGE('',*,*,#398,.F.);
#278=ORIENTED_EDGE('',*,*,#294,.T.);
#279=ORIENTED_EDGE('',*,*,#393,.T.);
#280=ORIENTED_EDGE('',*,*,#392,.F.);
#281=ORIENTED_EDGE('',*,*,#395,.F.);
#282=ORIENTED_EDGE('',*,*,#397,.T.);
#283=ORIENTED_EDGE('',*,*,#399,.T.);
#284=EDGE_CURVE('',#400,#401,#476,.T.);
#285=EDGE_CURVE('',#400,#402,#477,.F.);
#286=EDGE_CURVE('',#402,#403,#478,.F.);
#287=EDGE_CURVE('',#401,#403,#479,.T.);
#288=EDGE_CURVE('',#404,#405,#480,.T.);
#289=EDGE_CURVE('',#406,#404,#481,.T.);
#290=EDGE_CURVE('',#406,#407,#482,.T.);
#291=EDGE_CURVE('',#407,#405,#483,.T.);
#292=EDGE_CURVE('',#408,#409,#484,.F.);
#293=EDGE_CURVE('',#409,#410,#485,.F.);
#294=EDGE_CURVE('',#411,#410,#486,.T.);
#295=EDGE_CURVE('',#408,#411,#487,.T.);
#296=EDGE_CURVE('',#412,#413,#488,.T.);
#297=EDGE_CURVE('',#414,#412,#489,.T.);
#298=EDGE_CURVE('',#415,#414,#490,.T.);
#299=EDGE_CURVE('',#416,#415,#491,.T.);
#300=EDGE_CURVE('',#416,#417,#492,.T.);
#301=EDGE_CURVE('',#417,#418,#493,.T.);
#302=EDGE_CURVE('',#418,#419,#494,.F.);
#303=EDGE_CURVE('',#413,#419,#495,.T.);
#304=EDGE_CURVE('',#420,#421,#496,.T.);
#305=EDGE_CURVE('',#421,#422,#497,.T.);
#306=EDGE_CURVE('',#422,#423,#498,.T.);
#307=EDGE_CURVE('',#423,#404,#499,.T.);
#308=EDGE_CURVE('',#424,#405,#500,.T.);
#309=EDGE_CURVE('',#424,#425,#501,.T.);
#310=EDGE_CURVE('',#425,#420,#502,.T.);
#311=EDGE_CURVE('',#426,#427,#503,.T.);
#312=EDGE_CURVE('',#428,#426,#504,.T.);
#313=EDGE_CURVE('',#429,#428,#505,.T.);
#314=EDGE_CURVE('',#430,#429,#506,.T.);
#315=EDGE_CURVE('',#430,#407,#507,.T.);
#316=EDGE_CURVE('',#431,#406,#508,.T.);
#317=EDGE_CURVE('',#427,#431,#509,.T.);
#318=EDGE_CURVE('',#432,#433,#510,.T.);
#319=EDGE_CURVE('',#432,#434,#28,.T.);
#320=EDGE_CURVE('',#435,#434,#511,.T.);
#321=EDGE_CURVE('',#435,#416,#29,.T.);
#322=EDGE_CURVE('',#436,#415,#512,.T.);
#323=EDGE_CURVE('',#436,#437,#513,.T.);
#324=EDGE_CURVE('',#437,#413,#514,.T.);
#325=EDGE_CURVE('',#419,#438,#30,.T.);
#326=EDGE_CURVE('',#438,#439,#515,.T.);
#327=EDGE_CURVE('',#439,#433,#31,.T.);
#328=EDGE_CURVE('',#440,#441,#516,.T.);
#329=EDGE_CURVE('',#441,#427,#517,.T.);
#330=EDGE_CURVE('',#423,#431,#518,.T.);
#331=EDGE_CURVE('',#422,#442,#519,.T.);
#332=EDGE_CURVE('',#443,#442,#520,.T.);
#333=EDGE_CURVE('',#443,#425,#521,.T.);
#334=EDGE_CURVE('',#424,#430,#522,.T.);
#335=EDGE_CURVE('',#429,#440,#523,.T.);
#336=EDGE_CURVE('',#444,#444,#32,.T.);
#337=EDGE_CURVE('',#445,#445,#33,.T.);
#338=EDGE_CURVE('',#446,#446,#34,.T.);
#339=EDGE_CURVE('',#447,#447,#35,.T.);
#340=EDGE_CURVE('',#434,#448,#524,.T.);
#341=EDGE_CURVE('',#448,#449,#525,.F.);
#342=EDGE_CURVE('',#449,#435,#526,.F.);
#343=EDGE_CURVE('',#438,#450,#527,.T.);
#344=EDGE_CURVE('',#450,#451,#528,.T.);
#345=EDGE_CURVE('',#451,#439,#529,.F.);
#346=EDGE_CURVE('',#433,#452,#530,.T.);
#347=EDGE_CURVE('',#452,#453,#531,.F.);
#348=EDGE_CURVE('',#453,#432,#532,.F.);
#349=EDGE_CURVE('',#454,#455,#533,.F.);
#350=EDGE_CURVE('',#455,#456,#534,.T.);
#351=EDGE_CURVE('',#456,#457,#535,.T.);
#352=EDGE_CURVE('',#457,#454,#536,.F.);
#353=EDGE_CURVE('',#458,#442,#537,.T.);
#354=EDGE_CURVE('',#459,#458,#538,.T.);
#355=EDGE_CURVE('',#459,#443,#539,.T.);
#356=EDGE_CURVE('',#459,#420,#540,.T.);
#357=EDGE_CURVE('',#421,#458,#541,.T.);
#358=EDGE_CURVE('',#460,#426,#542,.T.);
#359=EDGE_CURVE('',#461,#460,#543,.T.);
#360=EDGE_CURVE('',#428,#461,#544,.T.);
#361=EDGE_CURVE('',#460,#441,#545,.T.);
#362=EDGE_CURVE('',#461,#440,#546,.T.);
#363=EDGE_CURVE('',#451,#452,#36,.T.);
#364=EDGE_CURVE('',#418,#450,#37,.F.);
#365=EDGE_CURVE('',#453,#448,#38,.F.);
#366=EDGE_CURVE('',#449,#417,#39,.T.);
#367=EDGE_CURVE('',#450,#454,#40,.T.);
#368=EDGE_CURVE('',#454,#418,#41,.T.);
#369=EDGE_CURVE('',#455,#417,#42,.T.);
#370=EDGE_CURVE('',#451,#457,#43,.T.);
#371=EDGE_CURVE('',#455,#449,#44,.T.);
#372=EDGE_CURVE('',#452,#457,#45,.T.);
#373=EDGE_CURVE('',#456,#448,#46,.T.);
#374=EDGE_CURVE('',#453,#456,#47,.T.);
#375=EDGE_CURVE('',#462,#462,#48,.T.);
#376=EDGE_CURVE('',#463,#463,#49,.T.);
#377=EDGE_CURVE('',#464,#464,#50,.T.);
#378=EDGE_CURVE('',#465,#465,#51,.T.);
#379=EDGE_CURVE('',#466,#414,#547,.T.);
#380=EDGE_CURVE('',#436,#466,#548,.T.);
#381=EDGE_CURVE('',#467,#412,#549,.T.);
#382=EDGE_CURVE('',#466,#467,#550,.T.);
#383=EDGE_CURVE('',#467,#437,#551,.T.);
#384=EDGE_CURVE('',#468,#469,#552,.T.);
#385=EDGE_CURVE('',#400,#468,#553,.F.);
#386=EDGE_CURVE('',#401,#469,#554,.T.);
#387=EDGE_CURVE('',#469,#470,#555,.T.);
#388=EDGE_CURVE('',#403,#470,#556,.F.);
#389=EDGE_CURVE('',#471,#470,#557,.F.);
#390=EDGE_CURVE('',#402,#471,#558,.T.);
#391=EDGE_CURVE('',#468,#471,#559,.F.);
#392=EDGE_CURVE('',#472,#473,#560,.F.);
#393=EDGE_CURVE('',#410,#473,#561,.F.);
#394=EDGE_CURVE('',#409,#472,#562,.T.);
#395=EDGE_CURVE('',#474,#472,#563,.F.);
#396=EDGE_CURVE('',#408,#474,#564,.F.);
#397=EDGE_CURVE('',#474,#475,#565,.T.);
#398=EDGE_CURVE('',#411,#475,#566,.T.);
#399=EDGE_CURVE('',#475,#473,#567,.T.);
#400=VERTEX_POINT('',#1542);
#401=VERTEX_POINT('',#1543);
#402=VERTEX_POINT('',#1545);
#403=VERTEX_POINT('',#1547);
#404=VERTEX_POINT('',#1550);
#405=VERTEX_POINT('',#1551);
#406=VERTEX_POINT('',#1553);
#407=VERTEX_POINT('',#1555);
#408=VERTEX_POINT('',#1558);
#409=VERTEX_POINT('',#1559);
#410=VERTEX_POINT('',#1561);
#411=VERTEX_POINT('',#1563);
#412=VERTEX_POINT('',#1567);
#413=VERTEX_POINT('',#1568);
#414=VERTEX_POINT('',#1570);
#415=VERTEX_POINT('',#1572);
#416=VERTEX_POINT('',#1574);
#417=VERTEX_POINT('',#1576);
#418=VERTEX_POINT('',#1578);
#419=VERTEX_POINT('',#1580);
#420=VERTEX_POINT('',#1584);
#421=VERTEX_POINT('',#1585);
#422=VERTEX_POINT('',#1587);
#423=VERTEX_POINT('',#1589);
#424=VERTEX_POINT('',#1592);
#425=VERTEX_POINT('',#1594);
#426=VERTEX_POINT('',#1598);
#427=VERTEX_POINT('',#1599);
#428=VERTEX_POINT('',#1601);
#429=VERTEX_POINT('',#1603);
#430=VERTEX_POINT('',#1605);
#431=VERTEX_POINT('',#1608);
#432=VERTEX_POINT('',#1612);
#433=VERTEX_POINT('',#1613);
#434=VERTEX_POINT('',#1615);
#435=VERTEX_POINT('',#1617);
#436=VERTEX_POINT('',#1620);
#437=VERTEX_POINT('',#1622);
#438=VERTEX_POINT('',#1625);
#439=VERTEX_POINT('',#1627);
#440=VERTEX_POINT('',#1630);
#441=VERTEX_POINT('',#1631);
#442=VERTEX_POINT('',#1635);
#443=VERTEX_POINT('',#1637);
#444=VERTEX_POINT('',#1642);
#445=VERTEX_POINT('',#1644);
#446=VERTEX_POINT('',#1646);
#447=VERTEX_POINT('',#1648);
#448=VERTEX_POINT('',#1651);
#449=VERTEX_POINT('',#1653);
#450=VERTEX_POINT('',#1657);
#451=VERTEX_POINT('',#1659);
#452=VERTEX_POINT('',#1663);
#453=VERTEX_POINT('',#1665);
#454=VERTEX_POINT('',#1669);
#455=VERTEX_POINT('',#1670);
#456=VERTEX_POINT('',#1672);
#457=VERTEX_POINT('',#1674);
#458=VERTEX_POINT('',#1680);
#459=VERTEX_POINT('',#1682);
#460=VERTEX_POINT('',#1691);
#461=VERTEX_POINT('',#1693);
#462=VERTEX_POINT('',#1726);
#463=VERTEX_POINT('',#1730);
#464=VERTEX_POINT('',#1734);
#465=VERTEX_POINT('',#1738);
#466=VERTEX_POINT('',#1742);
#467=VERTEX_POINT('',#1746);
#468=VERTEX_POINT('',#1753);
#469=VERTEX_POINT('',#1754);
#470=VERTEX_POINT('',#1759);
#471=VERTEX_POINT('',#1763);
#472=VERTEX_POINT('',#1770);
#473=VERTEX_POINT('',#1771);
#474=VERTEX_POINT('',#1776);
#475=VERTEX_POINT('',#1780);
#476=LINE('',#1541,#568);
#477=LINE('',#1544,#569);
#478=LINE('',#1546,#570);
#479=LINE('',#1548,#571);
#480=LINE('',#1549,#572);
#481=LINE('',#1552,#573);
#482=LINE('',#1554,#574);
#483=LINE('',#1556,#575);
#484=LINE('',#1557,#576);
#485=LINE('',#1560,#577);
#486=LINE('',#1562,#578);
#487=LINE('',#1564,#579);
#488=LINE('',#1566,#580);
#489=LINE('',#1569,#581);
#490=LINE('',#1571,#582);
#491=LINE('',#1573,#583);
#492=LINE('',#1575,#584);
#493=LINE('',#1577,#585);
#494=LINE('',#1579,#586);
#495=LINE('',#1581,#587);
#496=LINE('',#1583,#588);
#497=LINE('',#1586,#589);
#498=LINE('',#1588,#590);
#499=LINE('',#1590,#591);
#500=LINE('',#1591,#592);
#501=LINE('',#1593,#593);
#502=LINE('',#1595,#594);
#503=LINE('',#1597,#595);
#504=LINE('',#1600,#596);
#505=LINE('',#1602,#597);
#506=LINE('',#1604,#598);
#507=LINE('',#1606,#599);
#508=LINE('',#1607,#600);
#509=LINE('',#1609,#601);
#510=LINE('',#1611,#602);
#511=LINE('',#1616,#603);
#512=LINE('',#1619,#604);
#513=LINE('',#1621,#605);
#514=LINE('',#1623,#606);
#515=LINE('',#1626,#607);
#516=LINE('',#1629,#608);
#517=LINE('',#1632,#609);
#518=LINE('',#1633,#610);
#519=LINE('',#1634,#611);
#520=LINE('',#1636,#612);
#521=LINE('',#1638,#613);
#522=LINE('',#1639,#614);
#523=LINE('',#1640,#615);
#524=LINE('',#1650,#616);
#525=LINE('',#1652,#617);
#526=LINE('',#1654,#618);
#527=LINE('',#1656,#619);
#528=LINE('',#1658,#620);
#529=LINE('',#1660,#621);
#530=LINE('',#1662,#622);
#531=LINE('',#1664,#623);
#532=LINE('',#1666,#624);
#533=LINE('',#1668,#625);
#534=LINE('',#1671,#626);
#535=LINE('',#1673,#627);
#536=LINE('',#1675,#628);
#537=LINE('',#1679,#629);
#538=LINE('',#1681,#630);
#539=LINE('',#1683,#631);
#540=LINE('',#1685,#632);
#541=LINE('',#1686,#633);
#542=LINE('',#1690,#634);
#543=LINE('',#1692,#635);
#544=LINE('',#1694,#636);
#545=LINE('',#1696,#637);
#546=LINE('',#1698,#638);
#547=LINE('',#1741,#639);
#548=LINE('',#1743,#640);
#549=LINE('',#1745,#641);
#550=LINE('',#1747,#642);
#551=LINE('',#1749,#643);
#552=LINE('',#1752,#644);
#553=LINE('',#1755,#645);
#554=LINE('',#1756,#646);
#555=LINE('',#1758,#647);
#556=LINE('',#1760,#648);
#557=LINE('',#1762,#649);
#558=LINE('',#1764,#650);
#559=LINE('',#1766,#651);
#560=LINE('',#1769,#652);
#561=LINE('',#1772,#653);
#562=LINE('',#1773,#654);
#563=LINE('',#1775,#655);
#564=LINE('',#1777,#656);
#565=LINE('',#1779,#657);
#566=LINE('',#1781,#658);
#567=LINE('',#1783,#659);
#568=VECTOR('',#1295,1.);
#569=VECTOR('',#1296,1.);
#570=VECTOR('',#1297,1.);
#571=VECTOR('',#1298,1.);
#572=VECTOR('',#1299,1.);
#573=VECTOR('',#1300,1.);
#574=VECTOR('',#1301,1.);
#575=VECTOR('',#1302,1.);
#576=VECTOR('',#1303,1.);
#577=VECTOR('',#1304,1.);
#578=VECTOR('',#1305,1.);
#579=VECTOR('',#1306,1.);
#580=VECTOR('',#1309,1.);
#581=VECTOR('',#1310,1.);
#582=VECTOR('',#1311,1.);
#583=VECTOR('',#1312,1.);
#584=VECTOR('',#1313,1.);
#585=VECTOR('',#1314,1.);
#586=VECTOR('',#1315,1.);
#587=VECTOR('',#1316,1.);
#588=VECTOR('',#1319,1.);
#589=VECTOR('',#1320,1.);
#590=VECTOR('',#1321,1.);
#591=VECTOR('',#1322,1.);
#592=VECTOR('',#1323,1.);
#593=VECTOR('',#1324,1.);
#594=VECTOR('',#1325,1.);
#595=VECTOR('',#1328,1.);
#596=VECTOR('',#1329,1.);
#597=VECTOR('',#1330,1.);
#598=VECTOR('',#1331,1.);
#599=VECTOR('',#1332,1.);
#600=VECTOR('',#1333,1.);
#601=VECTOR('',#1334,1.);
#602=VECTOR('',#1337,1.);
#603=VECTOR('',#1340,1.);
#604=VECTOR('',#1343,1.);
#605=VECTOR('',#1344,1.);
#606=VECTOR('',#1345,1.);
#607=VECTOR('',#1348,1.);
#608=VECTOR('',#1351,1.);
#609=VECTOR('',#1352,1.);
#610=VECTOR('',#1353,1.);
#611=VECTOR('',#1354,1.);
#612=VECTOR('',#1355,1.);
#613=VECTOR('',#1356,1.);
#614=VECTOR('',#1357,1.);
#615=VECTOR('',#1358,1.);
#616=VECTOR('',#1369,1.);
#617=VECTOR('',#1370,1.);
#618=VECTOR('',#1371,1.);
#619=VECTOR('',#1374,1.);
#620=VECTOR('',#1375,1.);
#621=VECTOR('',#1376,1.);
#622=VECTOR('',#1379,1.);
#623=VECTOR('',#1380,1.);
#624=VECTOR('',#1381,1.);
#625=VECTOR('',#1384,1.);
#626=VECTOR('',#1385,1.);
#627=VECTOR('',#1386,1.);
#628=VECTOR('',#1387,1.);
#629=VECTOR('',#1394,1.);
#630=VECTOR('',#1395,1.);
#631=VECTOR('',#1396,1.);
#632=VECTOR('',#1399,1.);
#633=VECTOR('',#1400,1.);
#634=VECTOR('',#1407,1.);
#635=VECTOR('',#1408,1.);
#636=VECTOR('',#1409,1.);
#637=VECTOR('',#1412,1.);
#638=VECTOR('',#1415,1.);
#639=VECTOR('',#1492,1.);
#640=VECTOR('',#1493,1.);
#641=VECTOR('',#1496,1.);
#642=VECTOR('',#1497,1.);
#643=VECTOR('',#1500,1.);
#644=VECTOR('',#1505,1.);
#645=VECTOR('',#1506,1.);
#646=VECTOR('',#1507,1.);
#647=VECTOR('',#1510,1.);
#648=VECTOR('',#1511,1.);
#649=VECTOR('',#1514,1.);
#650=VECTOR('',#1515,1.);
#651=VECTOR('',#1518,1.);
#652=VECTOR('',#1523,1.);
#653=VECTOR('',#1524,1.);
#654=VECTOR('',#1525,1.);
#655=VECTOR('',#1528,1.);
#656=VECTOR('',#1529,1.);
#657=VECTOR('',#1532,1.);
#658=VECTOR('',#1533,1.);
#659=VECTOR('',#1536,1.);
#660=EDGE_LOOP('',(#52,#53,#54,#55));
#661=EDGE_LOOP('',(#56,#57,#58,#59));
#662=EDGE_LOOP('',(#60,#61,#62,#63));
#663=EDGE_LOOP('',(#64,#65,#66,#67,#68,#69,#70,#71));
#664=EDGE_LOOP('',(#72,#73,#74,#75,#76,#77,#78,#79));
#665=EDGE_LOOP('',(#80,#81,#82,#83,#84,#85,#86,#87));
#666=EDGE_LOOP('',(#88,#89,#90,#91,#92,#93,#94,#95,#96,#97,#98,#99));
#667=EDGE_LOOP('',(#100,#101,#102,#103,#104,#105,#106,#107,#108,#109,#110,
#111));
#668=EDGE_LOOP('',(#112));
#669=EDGE_LOOP('',(#113));
#670=EDGE_LOOP('',(#114));
#671=EDGE_LOOP('',(#115));
#672=EDGE_LOOP('',(#116,#117,#118,#119));
#673=EDGE_LOOP('',(#120,#121,#122,#123));
#674=EDGE_LOOP('',(#124,#125,#126,#127));
#675=EDGE_LOOP('',(#128,#129,#130,#131));
#676=EDGE_LOOP('',(#132,#133,#134,#135));
#677=EDGE_LOOP('',(#136,#137,#138,#139));
#678=EDGE_LOOP('',(#140,#141,#142,#143));
#679=EDGE_LOOP('',(#144,#145,#146,#147));
#680=EDGE_LOOP('',(#148,#149,#150,#151));
#681=EDGE_LOOP('',(#152,#153,#154,#155));
#682=EDGE_LOOP('',(#156,#157,#158,#159));
#683=EDGE_LOOP('',(#160,#161,#162,#163));
#684=EDGE_LOOP('',(#164,#165,#166,#167));
#685=EDGE_LOOP('',(#168,#169,#170,#171));
#686=EDGE_LOOP('',(#172,#173,#174,#175));
#687=EDGE_LOOP('',(#176,#177,#178,#179));
#688=EDGE_LOOP('',(#180,#181,#182,#183));
#689=EDGE_LOOP('',(#184,#185,#186,#187));
#690=EDGE_LOOP('',(#188,#189,#190));
#691=EDGE_LOOP('',(#191,#192,#193,#194));
#692=EDGE_LOOP('',(#195,#196,#197,#198));
#693=EDGE_LOOP('',(#199,#200,#201));
#694=EDGE_LOOP('',(#202,#203,#204));
#695=EDGE_LOOP('',(#205,#206,#207,#208));
#696=EDGE_LOOP('',(#209,#210,#211,#212));
#697=EDGE_LOOP('',(#213,#214,#215));
#698=EDGE_LOOP('',(#216));
#699=EDGE_LOOP('',(#217));
#700=EDGE_LOOP('',(#218));
#701=EDGE_LOOP('',(#219));
#702=EDGE_LOOP('',(#220));
#703=EDGE_LOOP('',(#221));
#704=EDGE_LOOP('',(#222));
#705=EDGE_LOOP('',(#223));
#706=EDGE_LOOP('',(#224));
#707=EDGE_LOOP('',(#225));
#708=EDGE_LOOP('',(#226));
#709=EDGE_LOOP('',(#227));
#710=EDGE_LOOP('',(#228,#229,#230,#231));
#711=EDGE_LOOP('',(#232,#233,#234,#235));
#712=EDGE_LOOP('',(#236,#237,#238,#239));
#713=EDGE_LOOP('',(#240,#241,#242,#243));
#714=EDGE_LOOP('',(#244,#245,#246,#247));
#715=EDGE_LOOP('',(#248,#249,#250,#251));
#716=EDGE_LOOP('',(#252,#253,#254,#255));
#717=EDGE_LOOP('',(#256,#257,#258,#259));
#718=EDGE_LOOP('',(#260,#261,#262,#263));
#719=EDGE_LOOP('',(#264,#265,#266,#267));
#720=EDGE_LOOP('',(#268,#269,#270,#271));
#721=EDGE_LOOP('',(#272,#273,#274,#275));
#722=EDGE_LOOP('',(#276,#277,#278,#279));
#723=EDGE_LOOP('',(#280,#281,#282,#283));
#724=FACE_BOUND('',#660,.T.);
#725=FACE_BOUND('',#661,.T.);
#726=FACE_BOUND('',#662,.T.);
#727=FACE_BOUND('',#663,.T.);
#728=FACE_BOUND('',#664,.T.);
#729=FACE_BOUND('',#665,.T.);
#730=FACE_BOUND('',#666,.T.);
#731=FACE_BOUND('',#667,.T.);
#732=FACE_BOUND('',#668,.T.);
#733=FACE_BOUND('',#669,.T.);
#734=FACE_BOUND('',#670,.T.);
#735=FACE_BOUND('',#671,.T.);
#736=FACE_BOUND('',#672,.T.);
#737=FACE_BOUND('',#673,.T.);
#738=FACE_BOUND('',#674,.T.);
#739=FACE_BOUND('',#675,.T.);
#740=FACE_BOUND('',#676,.T.);
#741=FACE_BOUND('',#677,.T.);
#742=FACE_BOUND('',#678,.T.);
#743=FACE_BOUND('',#679,.T.);
#744=FACE_BOUND('',#680,.T.);
#745=FACE_BOUND('',#681,.T.);
#746=FACE_BOUND('',#682,.T.);
#747=FACE_BOUND('',#683,.T.);
#748=FACE_BOUND('',#684,.T.);
#749=FACE_BOUND('',#685,.T.);
#750=FACE_BOUND('',#686,.T.);
#751=FACE_BOUND('',#687,.T.);
#752=FACE_BOUND('',#688,.T.);
#753=FACE_BOUND('',#689,.T.);
#754=FACE_BOUND('',#690,.T.);
#755=FACE_BOUND('',#691,.T.);
#756=FACE_BOUND('',#692,.T.);
#757=FACE_BOUND('',#693,.T.);
#758=FACE_BOUND('',#694,.T.);
#759=FACE_BOUND('',#695,.T.);
#760=FACE_BOUND('',#696,.T.);
#761=FACE_BOUND('',#697,.T.);
#762=FACE_BOUND('',#698,.T.);
#763=FACE_BOUND('',#699,.T.);
#764=FACE_BOUND('',#700,.T.);
#765=FACE_BOUND('',#701,.T.);
#766=FACE_BOUND('',#702,.T.);
#767=FACE_BOUND('',#703,.T.);
#768=FACE_BOUND('',#704,.T.);
#769=FACE_BOUND('',#705,.T.);
#770=FACE_BOUND('',#706,.T.);
#771=FACE_BOUND('',#707,.T.);
#772=FACE_BOUND('',#708,.T.);
#773=FACE_BOUND('',#709,.T.);
#774=FACE_BOUND('',#710,.T.);
#775=FACE_BOUND('',#711,.T.);
#776=FACE_BOUND('',#712,.T.);
#777=FACE_BOUND('',#713,.T.);
#778=FACE_BOUND('',#714,.T.);
#779=FACE_BOUND('',#715,.T.);
#780=FACE_BOUND('',#716,.T.);
#781=FACE_BOUND('',#717,.T.);
#782=FACE_BOUND('',#718,.T.);
#783=FACE_BOUND('',#719,.T.);
#784=FACE_BOUND('',#720,.T.);
#785=FACE_BOUND('',#721,.T.);
#786=FACE_BOUND('',#722,.T.);
#787=FACE_BOUND('',#723,.T.);
#788=PLANE('',#1214);
#789=PLANE('',#1215);
#790=PLANE('',#1216);
#791=PLANE('',#1217);
#792=PLANE('',#1218);
#793=PLANE('',#1227);
#794=PLANE('',#1228);
#795=PLANE('',#1229);
#796=PLANE('',#1230);
#797=PLANE('',#1231);
#798=PLANE('',#1232);
#799=PLANE('',#1233);
#800=PLANE('',#1234);
#801=PLANE('',#1235);
#802=PLANE('',#1236);
#803=PLANE('',#1237);
#804=PLANE('',#1238);
#805=PLANE('',#1239);
#806=PLANE('',#1240);
#807=PLANE('',#1267);
#808=PLANE('',#1270);
#809=PLANE('',#1273);
#810=PLANE('',#1276);
#811=PLANE('',#1277);
#812=PLANE('',#1278);
#813=PLANE('',#1279);
#814=PLANE('',#1280);
#815=PLANE('',#1281);
#816=PLANE('',#1282);
#817=PLANE('',#1283);
#818=PLANE('',#1284);
#819=PLANE('',#1285);
#820=PLANE('',#1286);
#821=PLANE('',#1287);
#822=PLANE('',#1288);
#823=PLANE('',#1289);
#824=PLANE('',#1290);
#825=OVER_RIDING_STYLED_ITEM('',(#927),#871,#925);
#826=OVER_RIDING_STYLED_ITEM('',(#928),#872,#925);
#827=OVER_RIDING_STYLED_ITEM('',(#929),#873,#925);
#828=OVER_RIDING_STYLED_ITEM('',(#930),#875,#925);
#829=OVER_RIDING_STYLED_ITEM('',(#931),#876,#925);
#830=OVER_RIDING_STYLED_ITEM('',(#932),#877,#925);
#831=OVER_RIDING_STYLED_ITEM('',(#933),#878,#925);
#832=OVER_RIDING_STYLED_ITEM('',(#934),#879,#925);
#833=OVER_RIDING_STYLED_ITEM('',(#935),#880,#925);
#834=OVER_RIDING_STYLED_ITEM('',(#936),#881,#925);
#835=OVER_RIDING_STYLED_ITEM('',(#937),#883,#925);
#836=OVER_RIDING_STYLED_ITEM('',(#938),#886,#925);
#837=OVER_RIDING_STYLED_ITEM('',(#939),#890,#925);
#838=OVER_RIDING_STYLED_ITEM('',(#940),#891,#925);
#839=OVER_RIDING_STYLED_ITEM('',(#941),#892,#925);
#840=OVER_RIDING_STYLED_ITEM('',(#942),#893,#925);
#841=OVER_RIDING_STYLED_ITEM('',(#943),#894,#925);
#842=OVER_RIDING_STYLED_ITEM('',(#944),#895,#925);
#843=OVER_RIDING_STYLED_ITEM('',(#945),#896,#925);
#844=OVER_RIDING_STYLED_ITEM('',(#946),#897,#925);
#845=OVER_RIDING_STYLED_ITEM('',(#947),#898,#925);
#846=OVER_RIDING_STYLED_ITEM('',(#948),#899,#925);
#847=OVER_RIDING_STYLED_ITEM('',(#949),#900,#925);
#848=OVER_RIDING_STYLED_ITEM('',(#950),#901,#925);
#849=OVER_RIDING_STYLED_ITEM('',(#951),#902,#925);
#850=OVER_RIDING_STYLED_ITEM('',(#952),#903,#925);
#851=OVER_RIDING_STYLED_ITEM('',(#953),#904,#925);
#852=OVER_RIDING_STYLED_ITEM('',(#954),#905,#925);
#853=OVER_RIDING_STYLED_ITEM('',(#955),#906,#925);
#854=OVER_RIDING_STYLED_ITEM('',(#956),#907,#925);
#855=OVER_RIDING_STYLED_ITEM('',(#957),#908,#925);
#856=OVER_RIDING_STYLED_ITEM('',(#958),#909,#925);
#857=OVER_RIDING_STYLED_ITEM('',(#959),#910,#925);
#858=OVER_RIDING_STYLED_ITEM('',(#960),#911,#925);
#859=OVER_RIDING_STYLED_ITEM('',(#961),#912,#925);
#860=OVER_RIDING_STYLED_ITEM('',(#962),#913,#925);
#861=OVER_RIDING_STYLED_ITEM('',(#963),#914,#925);
#862=OVER_RIDING_STYLED_ITEM('',(#964),#915,#925);
#863=OVER_RIDING_STYLED_ITEM('',(#965),#916,#925);
#864=OVER_RIDING_STYLED_ITEM('',(#966),#917,#925);
#865=OVER_RIDING_STYLED_ITEM('',(#967),#918,#925);
#866=OVER_RIDING_STYLED_ITEM('',(#968),#919,#925);
#867=OVER_RIDING_STYLED_ITEM('',(#969),#920,#925);
#868=OVER_RIDING_STYLED_ITEM('',(#970),#921,#925);
#869=OVER_RIDING_STYLED_ITEM('',(#971),#922,#925);
#870=OVER_RIDING_STYLED_ITEM('',(#972),#923,#925);
#871=ADVANCED_FACE('Face appearance 33',(#724,#725,#726),#788,.T.);
#872=ADVANCED_FACE('Face appearance 5',(#727),#789,.F.);
#873=ADVANCED_FACE('Face appearance 34',(#728),#790,.T.);
#874=ADVANCED_FACE('',(#729),#791,.F.);
#875=ADVANCED_FACE('Face appearance 32',(#730,#731,#732,#733,#734,#735),
#792,.T.);
#876=ADVANCED_FACE('Face appearance 21',(#736),#793,.T.);
#877=ADVANCED_FACE('Face appearance 5',(#737),#794,.F.);
#878=ADVANCED_FACE('Face appearance 5',(#738),#795,.T.);
#879=ADVANCED_FACE('Face appearance 28',(#739),#796,.F.);
#880=ADVANCED_FACE('Face appearance 34',(#740),#797,.F.);
#881=ADVANCED_FACE('Face appearance 35',(#741),#798,.T.);
#882=ADVANCED_FACE('',(#742),#799,.F.);
#883=ADVANCED_FACE('Face appearance 36',(#743),#800,.T.);
#884=ADVANCED_FACE('',(#744),#801,.T.);
#885=ADVANCED_FACE('',(#745),#802,.T.);
#886=ADVANCED_FACE('Face appearance 36',(#746),#803,.T.);
#887=ADVANCED_FACE('',(#747),#804,.T.);
#888=ADVANCED_FACE('',(#748),#805,.T.);
#889=ADVANCED_FACE('',(#749),#806,.T.);
#890=ADVANCED_FACE('Face appearance 26',(#750),#16,.T.);
#891=ADVANCED_FACE('Face appearance 24',(#751),#17,.T.);
#892=ADVANCED_FACE('Face appearance 25',(#752),#18,.T.);
#893=ADVANCED_FACE('Face appearance 27',(#753),#19,.T.);
#894=ADVANCED_FACE('Face appearance 29',(#754),#12,.T.);
#895=ADVANCED_FACE('Face appearance 29',(#755),#20,.T.);
#896=ADVANCED_FACE('Face appearance 29',(#756),#21,.T.);
#897=ADVANCED_FACE('Face appearance 29',(#757),#13,.T.);
#898=ADVANCED_FACE('Face appearance 29',(#758),#14,.T.);
#899=ADVANCED_FACE('Face appearance 29',(#759),#22,.T.);
#900=ADVANCED_FACE('Face appearance 29',(#760),#23,.T.);
#901=ADVANCED_FACE('Face appearance 29',(#761),#15,.T.);
#902=ADVANCED_FACE('Face appearance 37',(#762,#763),#24,.T.);
#903=ADVANCED_FACE('Face appearance 37',(#764),#807,.T.);
#904=ADVANCED_FACE('Face appearance 33',(#765,#766),#25,.T.);
#905=ADVANCED_FACE('Face appearance 33',(#767),#808,.T.);
#906=ADVANCED_FACE('Face appearance 33',(#768,#769),#26,.T.);
#907=ADVANCED_FACE('Face appearance 33',(#770),#809,.T.);
#908=ADVANCED_FACE('Face appearance 33',(#771,#772),#27,.T.);
#909=ADVANCED_FACE('Face appearance 33',(#773),#810,.T.);
#910=ADVANCED_FACE('Face appearance 32',(#774),#811,.F.);
#911=ADVANCED_FACE('Face appearance 32',(#775),#812,.F.);
#912=ADVANCED_FACE('Face appearance 32',(#776),#813,.F.);
#913=ADVANCED_FACE('Face appearance 32',(#777),#814,.T.);
#914=ADVANCED_FACE('Face appearance 38',(#778),#815,.T.);
#915=ADVANCED_FACE('Face appearance 38',(#779),#816,.T.);
#916=ADVANCED_FACE('Face appearance 38',(#780),#817,.T.);
#917=ADVANCED_FACE('Face appearance 38',(#781),#818,.T.);
#918=ADVANCED_FACE('Face appearance 38',(#782),#819,.T.);
#919=ADVANCED_FACE('Face appearance 38',(#783),#820,.T.);
#920=ADVANCED_FACE('Face appearance 38',(#784),#821,.T.);
#921=ADVANCED_FACE('Face appearance 38',(#785),#822,.T.);
#922=ADVANCED_FACE('Face appearance 38',(#786),#823,.T.);
#923=ADVANCED_FACE('Face appearance 38',(#787),#824,.T.);
#924=CLOSED_SHELL('',(#871,#872,#873,#874,#875,#876,#877,#878,#879,#880,
#881,#882,#883,#884,#885,#886,#887,#888,#889,#890,#891,#892,#893,#894,#895,
#896,#897,#898,#899,#900,#901,#902,#903,#904,#905,#906,#907,#908,#909,#910,
#911,#912,#913,#914,#915,#916,#917,#918,#919,#920,#921,#922,#923));
#925=STYLED_ITEM('',(#926),#1210);
#926=PRESENTATION_STYLE_ASSIGNMENT((#973));
#927=PRESENTATION_STYLE_ASSIGNMENT((#974));
#928=PRESENTATION_STYLE_ASSIGNMENT((#975));
#929=PRESENTATION_STYLE_ASSIGNMENT((#976));
#930=PRESENTATION_STYLE_ASSIGNMENT((#977));
#931=PRESENTATION_STYLE_ASSIGNMENT((#978));
#932=PRESENTATION_STYLE_ASSIGNMENT((#979));
#933=PRESENTATION_STYLE_ASSIGNMENT((#980));
#934=PRESENTATION_STYLE_ASSIGNMENT((#981));
#935=PRESENTATION_STYLE_ASSIGNMENT((#982));
#936=PRESENTATION_STYLE_ASSIGNMENT((#983));
#937=PRESENTATION_STYLE_ASSIGNMENT((#984));
#938=PRESENTATION_STYLE_ASSIGNMENT((#985));
#939=PRESENTATION_STYLE_ASSIGNMENT((#986));
#940=PRESENTATION_STYLE_ASSIGNMENT((#987));
#941=PRESENTATION_STYLE_ASSIGNMENT((#988));
#942=PRESENTATION_STYLE_ASSIGNMENT((#989));
#943=PRESENTATION_STYLE_ASSIGNMENT((#990));
#944=PRESENTATION_STYLE_ASSIGNMENT((#991));
#945=PRESENTATION_STYLE_ASSIGNMENT((#992));
#946=PRESENTATION_STYLE_ASSIGNMENT((#993));
#947=PRESENTATION_STYLE_ASSIGNMENT((#994));
#948=PRESENTATION_STYLE_ASSIGNMENT((#995));
#949=PRESENTATION_STYLE_ASSIGNMENT((#996));
#950=PRESENTATION_STYLE_ASSIGNMENT((#997));
#951=PRESENTATION_STYLE_ASSIGNMENT((#998));
#952=PRESENTATION_STYLE_ASSIGNMENT((#999));
#953=PRESENTATION_STYLE_ASSIGNMENT((#1000));
#954=PRESENTATION_STYLE_ASSIGNMENT((#1001));
#955=PRESENTATION_STYLE_ASSIGNMENT((#1002));
#956=PRESENTATION_STYLE_ASSIGNMENT((#1003));
#957=PRESENTATION_STYLE_ASSIGNMENT((#1004));
#958=PRESENTATION_STYLE_ASSIGNMENT((#1005));
#959=PRESENTATION_STYLE_ASSIGNMENT((#1006));
#960=PRESENTATION_STYLE_ASSIGNMENT((#1007));
#961=PRESENTATION_STYLE_ASSIGNMENT((#1008));
#962=PRESENTATION_STYLE_ASSIGNMENT((#1009));
#963=PRESENTATION_STYLE_ASSIGNMENT((#1010));
#964=PRESENTATION_STYLE_ASSIGNMENT((#1011));
#965=PRESENTATION_STYLE_ASSIGNMENT((#1012));
#966=PRESENTATION_STYLE_ASSIGNMENT((#1013));
#967=PRESENTATION_STYLE_ASSIGNMENT((#1014));
#968=PRESENTATION_STYLE_ASSIGNMENT((#1015));
#969=PRESENTATION_STYLE_ASSIGNMENT((#1016));
#970=PRESENTATION_STYLE_ASSIGNMENT((#1017));
#971=PRESENTATION_STYLE_ASSIGNMENT((#1018));
#972=PRESENTATION_STYLE_ASSIGNMENT((#1019));
#973=SURFACE_STYLE_USAGE(.BOTH.,#1020);
#974=SURFACE_STYLE_USAGE(.BOTH.,#1021);
#975=SURFACE_STYLE_USAGE(.BOTH.,#1022);
#976=SURFACE_STYLE_USAGE(.BOTH.,#1023);
#977=SURFACE_STYLE_USAGE(.BOTH.,#1024);
#978=SURFACE_STYLE_USAGE(.BOTH.,#1025);
#979=SURFACE_STYLE_USAGE(.BOTH.,#1026);
#980=SURFACE_STYLE_USAGE(.BOTH.,#1027);
#981=SURFACE_STYLE_USAGE(.BOTH.,#1028);
#982=SURFACE_STYLE_USAGE(.BOTH.,#1029);
#983=SURFACE_STYLE_USAGE(.BOTH.,#1030);
#984=SURFACE_STYLE_USAGE(.BOTH.,#1031);
#985=SURFACE_STYLE_USAGE(.BOTH.,#1032);
#986=SURFACE_STYLE_USAGE(.BOTH.,#1033);
#987=SURFACE_STYLE_USAGE(.BOTH.,#1034);
#988=SURFACE_STYLE_USAGE(.BOTH.,#1035);
#989=SURFACE_STYLE_USAGE(.BOTH.,#1036);
#990=SURFACE_STYLE_USAGE(.BOTH.,#1037);
#991=SURFACE_STYLE_USAGE(.BOTH.,#1038);
#992=SURFACE_STYLE_USAGE(.BOTH.,#1039);
#993=SURFACE_STYLE_USAGE(.BOTH.,#1040);
#994=SURFACE_STYLE_USAGE(.BOTH.,#1041);
#995=SURFACE_STYLE_USAGE(.BOTH.,#1042);
#996=SURFACE_STYLE_USAGE(.BOTH.,#1043);
#997=SURFACE_STYLE_USAGE(.BOTH.,#1044);
#998=SURFACE_STYLE_USAGE(.BOTH.,#1045);
#999=SURFACE_STYLE_USAGE(.BOTH.,#1046);
#1000=SURFACE_STYLE_USAGE(.BOTH.,#1047);
#1001=SURFACE_STYLE_USAGE(.BOTH.,#1048);
#1002=SURFACE_STYLE_USAGE(.BOTH.,#1049);
#1003=SURFACE_STYLE_USAGE(.BOTH.,#1050);
#1004=SURFACE_STYLE_USAGE(.BOTH.,#1051);
#1005=SURFACE_STYLE_USAGE(.BOTH.,#1052);
#1006=SURFACE_STYLE_USAGE(.BOTH.,#1053);
#1007=SURFACE_STYLE_USAGE(.BOTH.,#1054);
#1008=SURFACE_STYLE_USAGE(.BOTH.,#1055);
#1009=SURFACE_STYLE_USAGE(.BOTH.,#1056);
#1010=SURFACE_STYLE_USAGE(.BOTH.,#1057);
#1011=SURFACE_STYLE_USAGE(.BOTH.,#1058);
#1012=SURFACE_STYLE_USAGE(.BOTH.,#1059);
#1013=SURFACE_STYLE_USAGE(.BOTH.,#1060);
#1014=SURFACE_STYLE_USAGE(.BOTH.,#1061);
#1015=SURFACE_STYLE_USAGE(.BOTH.,#1062);
#1016=SURFACE_STYLE_USAGE(.BOTH.,#1063);
#1017=SURFACE_STYLE_USAGE(.BOTH.,#1064);
#1018=SURFACE_STYLE_USAGE(.BOTH.,#1065);
#1019=SURFACE_STYLE_USAGE(.BOTH.,#1066);
#1020=SURFACE_SIDE_STYLE('',(#1067));
#1021=SURFACE_SIDE_STYLE('',(#1068));
#1022=SURFACE_SIDE_STYLE('',(#1069));
#1023=SURFACE_SIDE_STYLE('',(#1070));
#1024=SURFACE_SIDE_STYLE('',(#1071));
#1025=SURFACE_SIDE_STYLE('',(#1072));
#1026=SURFACE_SIDE_STYLE('',(#1073));
#1027=SURFACE_SIDE_STYLE('',(#1074));
#1028=SURFACE_SIDE_STYLE('',(#1075));
#1029=SURFACE_SIDE_STYLE('',(#1076));
#1030=SURFACE_SIDE_STYLE('',(#1077));
#1031=SURFACE_SIDE_STYLE('',(#1078));
#1032=SURFACE_SIDE_STYLE('',(#1079));
#1033=SURFACE_SIDE_STYLE('',(#1080));
#1034=SURFACE_SIDE_STYLE('',(#1081));
#1035=SURFACE_SIDE_STYLE('',(#1082));
#1036=SURFACE_SIDE_STYLE('',(#1083));
#1037=SURFACE_SIDE_STYLE('',(#1084));
#1038=SURFACE_SIDE_STYLE('',(#1085));
#1039=SURFACE_SIDE_STYLE('',(#1086));
#1040=SURFACE_SIDE_STYLE('',(#1087));
#1041=SURFACE_SIDE_STYLE('',(#1088));
#1042=SURFACE_SIDE_STYLE('',(#1089));
#1043=SURFACE_SIDE_STYLE('',(#1090));
#1044=SURFACE_SIDE_STYLE('',(#1091));
#1045=SURFACE_SIDE_STYLE('',(#1092));
#1046=SURFACE_SIDE_STYLE('',(#1093));
#1047=SURFACE_SIDE_STYLE('',(#1094));
#1048=SURFACE_SIDE_STYLE('',(#1095));
#1049=SURFACE_SIDE_STYLE('',(#1096));
#1050=SURFACE_SIDE_STYLE('',(#1097));
#1051=SURFACE_SIDE_STYLE('',(#1098));
#1052=SURFACE_SIDE_STYLE('',(#1099));
#1053=SURFACE_SIDE_STYLE('',(#1100));
#1054=SURFACE_SIDE_STYLE('',(#1101));
#1055=SURFACE_SIDE_STYLE('',(#1102));
#1056=SURFACE_SIDE_STYLE('',(#1103));
#1057=SURFACE_SIDE_STYLE('',(#1104));
#1058=SURFACE_SIDE_STYLE('',(#1105));
#1059=SURFACE_SIDE_STYLE('',(#1106));
#1060=SURFACE_SIDE_STYLE('',(#1107));
#1061=SURFACE_SIDE_STYLE('',(#1108));
#1062=SURFACE_SIDE_STYLE('',(#1109));
#1063=SURFACE_SIDE_STYLE('',(#1110));
#1064=SURFACE_SIDE_STYLE('',(#1111));
#1065=SURFACE_SIDE_STYLE('',(#1112));
#1066=SURFACE_SIDE_STYLE('',(#1113));
#1067=SURFACE_STYLE_FILL_AREA(#1114);
#1068=SURFACE_STYLE_FILL_AREA(#1115);
#1069=SURFACE_STYLE_FILL_AREA(#1116);
#1070=SURFACE_STYLE_FILL_AREA(#1117);
#1071=SURFACE_STYLE_FILL_AREA(#1118);
#1072=SURFACE_STYLE_FILL_AREA(#1119);
#1073=SURFACE_STYLE_FILL_AREA(#1120);
#1074=SURFACE_STYLE_FILL_AREA(#1121);
#1075=SURFACE_STYLE_FILL_AREA(#1122);
#1076=SURFACE_STYLE_FILL_AREA(#1123);
#1077=SURFACE_STYLE_FILL_AREA(#1124);
#1078=SURFACE_STYLE_FILL_AREA(#1125);
#1079=SURFACE_STYLE_FILL_AREA(#1126);
#1080=SURFACE_STYLE_FILL_AREA(#1127);
#1081=SURFACE_STYLE_FILL_AREA(#1128);
#1082=SURFACE_STYLE_FILL_AREA(#1129);
#1083=SURFACE_STYLE_FILL_AREA(#1130);
#1084=SURFACE_STYLE_FILL_AREA(#1131);
#1085=SURFACE_STYLE_FILL_AREA(#1132);
#1086=SURFACE_STYLE_FILL_AREA(#1133);
#1087=SURFACE_STYLE_FILL_AREA(#1134);
#1088=SURFACE_STYLE_FILL_AREA(#1135);
#1089=SURFACE_STYLE_FILL_AREA(#1136);
#1090=SURFACE_STYLE_FILL_AREA(#1137);
#1091=SURFACE_STYLE_FILL_AREA(#1138);
#1092=SURFACE_STYLE_FILL_AREA(#1139);
#1093=SURFACE_STYLE_FILL_AREA(#1140);
#1094=SURFACE_STYLE_FILL_AREA(#1141);
#1095=SURFACE_STYLE_FILL_AREA(#1142);
#1096=SURFACE_STYLE_FILL_AREA(#1143);
#1097=SURFACE_STYLE_FILL_AREA(#1144);
#1098=SURFACE_STYLE_FILL_AREA(#1145);
#1099=SURFACE_STYLE_FILL_AREA(#1146);
#1100=SURFACE_STYLE_FILL_AREA(#1147);
#1101=SURFACE_STYLE_FILL_AREA(#1148);
#1102=SURFACE_STYLE_FILL_AREA(#1149);
#1103=SURFACE_STYLE_FILL_AREA(#1150);
#1104=SURFACE_STYLE_FILL_AREA(#1151);
#1105=SURFACE_STYLE_FILL_AREA(#1152);
#1106=SURFACE_STYLE_FILL_AREA(#1153);
#1107=SURFACE_STYLE_FILL_AREA(#1154);
#1108=SURFACE_STYLE_FILL_AREA(#1155);
#1109=SURFACE_STYLE_FILL_AREA(#1156);
#1110=SURFACE_STYLE_FILL_AREA(#1157);
#1111=SURFACE_STYLE_FILL_AREA(#1158);
#1112=SURFACE_STYLE_FILL_AREA(#1159);
#1113=SURFACE_STYLE_FILL_AREA(#1160);
#1114=FILL_AREA_STYLE('',(#1161));
#1115=FILL_AREA_STYLE('',(#1162));
#1116=FILL_AREA_STYLE('',(#1163));
#1117=FILL_AREA_STYLE('',(#1164));
#1118=FILL_AREA_STYLE('',(#1165));
#1119=FILL_AREA_STYLE('',(#1166));
#1120=FILL_AREA_STYLE('',(#1167));
#1121=FILL_AREA_STYLE('',(#1168));
#1122=FILL_AREA_STYLE('',(#1169));
#1123=FILL_AREA_STYLE('',(#1170));
#1124=FILL_AREA_STYLE('',(#1171));
#1125=FILL_AREA_STYLE('',(#1172));
#1126=FILL_AREA_STYLE('',(#1173));
#1127=FILL_AREA_STYLE('',(#1174));
#1128=FILL_AREA_STYLE('',(#1175));
#1129=FILL_AREA_STYLE('',(#1176));
#1130=FILL_AREA_STYLE('',(#1177));
#1131=FILL_AREA_STYLE('',(#1178));
#1132=FILL_AREA_STYLE('',(#1179));
#1133=FILL_AREA_STYLE('',(#1180));
#1134=FILL_AREA_STYLE('',(#1181));
#1135=FILL_AREA_STYLE('',(#1182));
#1136=FILL_AREA_STYLE('',(#1183));
#1137=FILL_AREA_STYLE('',(#1184));
#1138=FILL_AREA_STYLE('',(#1185));
#1139=FILL_AREA_STYLE('',(#1186));
#1140=FILL_AREA_STYLE('',(#1187));
#1141=FILL_AREA_STYLE('',(#1188));
#1142=FILL_AREA_STYLE('',(#1189));
#1143=FILL_AREA_STYLE('',(#1190));
#1144=FILL_AREA_STYLE('',(#1191));
#1145=FILL_AREA_STYLE('',(#1192));
#1146=FILL_AREA_STYLE('',(#1193));
#1147=FILL_AREA_STYLE('',(#1194));
#1148=FILL_AREA_STYLE('',(#1195));
#1149=FILL_AREA_STYLE('',(#1196));
#1150=FILL_AREA_STYLE('',(#1197));
#1151=FILL_AREA_STYLE('',(#1198));
#1152=FILL_AREA_STYLE('',(#1199));
#1153=FILL_AREA_STYLE('',(#1200));
#1154=FILL_AREA_STYLE('',(#1201));
#1155=FILL_AREA_STYLE('',(#1202));
#1156=FILL_AREA_STYLE('',(#1203));
#1157=FILL_AREA_STYLE('',(#1204));
#1158=FILL_AREA_STYLE('',(#1205));
#1159=FILL_AREA_STYLE('',(#1206));
#1160=FILL_AREA_STYLE('',(#1207));
#1161=FILL_AREA_STYLE_COLOUR('',#1208);
#1162=FILL_AREA_STYLE_COLOUR('',#1209);
#1163=FILL_AREA_STYLE_COLOUR('',#1209);
#1164=FILL_AREA_STYLE_COLOUR('',#1209);
#1165=FILL_AREA_STYLE_COLOUR('',#1209);
#1166=FILL_AREA_STYLE_COLOUR('',#1209);
#1167=FILL_AREA_STYLE_COLOUR('',#1209);
#1168=FILL_AREA_STYLE_COLOUR('',#1209);
#1169=FILL_AREA_STYLE_COLOUR('',#1209);
#1170=FILL_AREA_STYLE_COLOUR('',#1209);
#1171=FILL_AREA_STYLE_COLOUR('',#1209);
#1172=FILL_AREA_STYLE_COLOUR('',#1209);
#1173=FILL_AREA_STYLE_COLOUR('',#1209);
#1174=FILL_AREA_STYLE_COLOUR('',#1209);
#1175=FILL_AREA_STYLE_COLOUR('',#1209);
#1176=FILL_AREA_STYLE_COLOUR('',#1209);
#1177=FILL_AREA_STYLE_COLOUR('',#1209);
#1178=FILL_AREA_STYLE_COLOUR('',#1209);
#1179=FILL_AREA_STYLE_COLOUR('',#1209);
#1180=FILL_AREA_STYLE_COLOUR('',#1209);
#1181=FILL_AREA_STYLE_COLOUR('',#1209);
#1182=FILL_AREA_STYLE_COLOUR('',#1209);
#1183=FILL_AREA_STYLE_COLOUR('',#1209);
#1184=FILL_AREA_STYLE_COLOUR('',#1209);
#1185=FILL_AREA_STYLE_COLOUR('',#1209);
#1186=FILL_AREA_STYLE_COLOUR('',#1209);
#1187=FILL_AREA_STYLE_COLOUR('',#1209);
#1188=FILL_AREA_STYLE_COLOUR('',#1209);
#1189=FILL_AREA_STYLE_COLOUR('',#1209);
#1190=FILL_AREA_STYLE_COLOUR('',#1209);
#1191=FILL_AREA_STYLE_COLOUR('',#1209);
#1192=FILL_AREA_STYLE_COLOUR('',#1209);
#1193=FILL_AREA_STYLE_COLOUR('',#1209);
#1194=FILL_AREA_STYLE_COLOUR('',#1209);
#1195=FILL_AREA_STYLE_COLOUR('',#1209);
#1196=FILL_AREA_STYLE_COLOUR('',#1209);
#1197=FILL_AREA_STYLE_COLOUR('',#1209);
#1198=FILL_AREA_STYLE_COLOUR('',#1209);
#1199=FILL_AREA_STYLE_COLOUR('',#1209);
#1200=FILL_AREA_STYLE_COLOUR('',#1209);
#1201=FILL_AREA_STYLE_COLOUR('',#1209);
#1202=FILL_AREA_STYLE_COLOUR('',#1209);
#1203=FILL_AREA_STYLE_COLOUR('',#1209);
#1204=FILL_AREA_STYLE_COLOUR('',#1209);
#1205=FILL_AREA_STYLE_COLOUR('',#1209);
#1206=FILL_AREA_STYLE_COLOUR('',#1209);
#1207=FILL_AREA_STYLE_COLOUR('',#1209);
#1208=COLOUR_RGB('',0.647058823529412,0.647058823529412,0.647058823529412);
#1209=COLOUR_RGB('',0.901960784313726,0.901960784313726,0.901960784313726);
#1210=MANIFOLD_SOLID_BREP('Drone Controller - Bottom',#924);
#1211=SHAPE_DEFINITION_REPRESENTATION(#1791,#1212);
#1212=SHAPE_REPRESENTATION('Drone Controller - Bottom',(#1213),#1786);
#1213=AXIS2_PLACEMENT_3D('',#1539,#1291,#1292);
#1214=AXIS2_PLACEMENT_3D('',#1540,#1293,#1294);
#1215=AXIS2_PLACEMENT_3D('',#1565,#1307,#1308);
#1216=AXIS2_PLACEMENT_3D('',#1582,#1317,#1318);
#1217=AXIS2_PLACEMENT_3D('',#1596,#1326,#1327);
#1218=AXIS2_PLACEMENT_3D('',#1610,#1335,#1336);
#1219=AXIS2_PLACEMENT_3D('',#1614,#1338,#1339);
#1220=AXIS2_PLACEMENT_3D('',#1618,#1341,#1342);
#1221=AXIS2_PLACEMENT_3D('',#1624,#1346,#1347);
#1222=AXIS2_PLACEMENT_3D('',#1628,#1349,#1350);
#1223=AXIS2_PLACEMENT_3D('',#1641,#1359,#1360);
#1224=AXIS2_PLACEMENT_3D('',#1643,#1361,#1362);
#1225=AXIS2_PLACEMENT_3D('',#1645,#1363,#1364);
#1226=AXIS2_PLACEMENT_3D('',#1647,#1365,#1366);
#1227=AXIS2_PLACEMENT_3D('',#1649,#1367,#1368);
#1228=AXIS2_PLACEMENT_3D('',#1655,#1372,#1373);
#1229=AXIS2_PLACEMENT_3D('',#1661,#1377,#1378);
#1230=AXIS2_PLACEMENT_3D('',#1667,#1382,#1383);
#1231=AXIS2_PLACEMENT_3D('',#1676,#1388,#1389);
#1232=AXIS2_PLACEMENT_3D('',#1677,#1390,#1391);
#1233=AXIS2_PLACEMENT_3D('',#1678,#1392,#1393);
#1234=AXIS2_PLACEMENT_3D('',#1684,#1397,#1398);
#1235=AXIS2_PLACEMENT_3D('',#1687,#1401,#1402);
#1236=AXIS2_PLACEMENT_3D('',#1688,#1403,#1404);
#1237=AXIS2_PLACEMENT_3D('',#1689,#1405,#1406);
#1238=AXIS2_PLACEMENT_3D('',#1695,#1410,#1411);
#1239=AXIS2_PLACEMENT_3D('',#1697,#1413,#1414);
#1240=AXIS2_PLACEMENT_3D('',#1699,#1416,#1417);
#1241=AXIS2_PLACEMENT_3D('',#1700,#1418,#1419);
#1242=AXIS2_PLACEMENT_3D('',#1701,#1420,#1421);
#1243=AXIS2_PLACEMENT_3D('',#1702,#1422,#1423);
#1244=AXIS2_PLACEMENT_3D('',#1703,#1424,#1425);
#1245=AXIS2_PLACEMENT_3D('',#1704,#1426,#1427);
#1246=AXIS2_PLACEMENT_3D('',#1705,#1428,#1429);
#1247=AXIS2_PLACEMENT_3D('',#1706,#1430,#1431);
#1248=AXIS2_PLACEMENT_3D('',#1707,#1432,#1433);
#1249=AXIS2_PLACEMENT_3D('',#1708,#1434,#1435);
#1250=AXIS2_PLACEMENT_3D('',#1709,#1436,#1437);
#1251=AXIS2_PLACEMENT_3D('',#1710,#1438,#1439);
#1252=AXIS2_PLACEMENT_3D('',#1711,#1440,#1441);
#1253=AXIS2_PLACEMENT_3D('',#1712,#1442,#1443);
#1254=AXIS2_PLACEMENT_3D('',#1713,#1444,#1445);
#1255=AXIS2_PLACEMENT_3D('',#1714,#1446,#1447);
#1256=AXIS2_PLACEMENT_3D('',#1715,#1448,#1449);
#1257=AXIS2_PLACEMENT_3D('',#1716,#1450,#1451);
#1258=AXIS2_PLACEMENT_3D('',#1717,#1452,#1453);
#1259=AXIS2_PLACEMENT_3D('',#1718,#1454,#1455);
#1260=AXIS2_PLACEMENT_3D('',#1719,#1456,#1457);
#1261=AXIS2_PLACEMENT_3D('',#1720,#1458,#1459);
#1262=AXIS2_PLACEMENT_3D('',#1721,#1460,#1461);
#1263=AXIS2_PLACEMENT_3D('',#1722,#1462,#1463);
#1264=AXIS2_PLACEMENT_3D('',#1723,#1464,#1465);
#1265=AXIS2_PLACEMENT_3D('',#1724,#1466,#1467);
#1266=AXIS2_PLACEMENT_3D('',#1725,#1468,#1469);
#1267=AXIS2_PLACEMENT_3D('',#1727,#1470,#1471);
#1268=AXIS2_PLACEMENT_3D('',#1728,#1472,#1473);
#1269=AXIS2_PLACEMENT_3D('',#1729,#1474,#1475);
#1270=AXIS2_PLACEMENT_3D('',#1731,#1476,#1477);
#1271=AXIS2_PLACEMENT_3D('',#1732,#1478,#1479);
#1272=AXIS2_PLACEMENT_3D('',#1733,#1480,#1481);
#1273=AXIS2_PLACEMENT_3D('',#1735,#1482,#1483);
#1274=AXIS2_PLACEMENT_3D('',#1736,#1484,#1485);
#1275=AXIS2_PLACEMENT_3D('',#1737,#1486,#1487);
#1276=AXIS2_PLACEMENT_3D('',#1739,#1488,#1489);
#1277=AXIS2_PLACEMENT_3D('',#1740,#1490,#1491);
#1278=AXIS2_PLACEMENT_3D('',#1744,#1494,#1495);
#1279=AXIS2_PLACEMENT_3D('',#1748,#1498,#1499);
#1280=AXIS2_PLACEMENT_3D('',#1750,#1501,#1502);
#1281=AXIS2_PLACEMENT_3D('',#1751,#1503,#1504);
#1282=AXIS2_PLACEMENT_3D('',#1757,#1508,#1509);
#1283=AXIS2_PLACEMENT_3D('',#1761,#1512,#1513);
#1284=AXIS2_PLACEMENT_3D('',#1765,#1516,#1517);
#1285=AXIS2_PLACEMENT_3D('',#1767,#1519,#1520);
#1286=AXIS2_PLACEMENT_3D('',#1768,#1521,#1522);
#1287=AXIS2_PLACEMENT_3D('',#1774,#1526,#1527);
#1288=AXIS2_PLACEMENT_3D('',#1778,#1530,#1531);
#1289=AXIS2_PLACEMENT_3D('',#1782,#1534,#1535);
#1290=AXIS2_PLACEMENT_3D('',#1784,#1537,#1538);
#1291=DIRECTION('',(0.,0.,1.));
#1292=DIRECTION('',(1.,0.,0.));
#1293=DIRECTION('',(0.,0.,1.));
#1294=DIRECTION('',(1.,0.,0.));
#1295=DIRECTION('',(-1.,0.,0.));
#1296=DIRECTION('',(0.,1.,0.));
#1297=DIRECTION('',(1.,0.,0.));
#1298=DIRECTION('',(0.,-1.,0.));
#1299=DIRECTION('',(1.,0.,0.));
#1300=DIRECTION('',(0.,1.,0.));
#1301=DIRECTION('',(1.,0.,0.));
#1302=DIRECTION('',(0.,1.,0.));
#1303=DIRECTION('',(0.,-1.,0.));
#1304=DIRECTION('',(-1.,0.,0.));
#1305=DIRECTION('',(0.,1.,0.));
#1306=DIRECTION('',(1.,0.,0.));
#1307=DIRECTION('',(7.50150692314295E-17,-1.,0.));
#1308=DIRECTION('',(1.,7.50150692314295E-17,0.));
#1309=DIRECTION('',(0.,0.,1.));
#1310=DIRECTION('',(-1.,-7.50150692314295E-17,0.));
#1311=DIRECTION('',(0.,0.,-1.));
#1312=DIRECTION('',(-1.,-7.50150692314295E-17,0.));
#1313=DIRECTION('',(0.,0.,-1.));
#1314=DIRECTION('',(-1.,-7.50150692314295E-17,0.));
#1315=DIRECTION('',(0.,0.,-1.));
#1316=DIRECTION('',(-1.,-7.50150692314295E-17,0.));
#1317=DIRECTION('',(0.,-1.,0.));
#1318=DIRECTION('',(0.,0.,-1.));
#1319=DIRECTION('',(-1.,0.,0.));
#1320=DIRECTION('',(0.,0.,1.));
#1321=DIRECTION('',(-1.,0.,0.));
#1322=DIRECTION('',(0.,0.,-1.));
#1323=DIRECTION('',(0.,0.,-1.));
#1324=DIRECTION('',(-1.,0.,0.));
#1325=DIRECTION('',(0.,0.,-1.));
#1326=DIRECTION('',(0.,-1.,0.));
#1327=DIRECTION('',(0.,0.,-1.));
#1328=DIRECTION('',(0.,0.,1.));
#1329=DIRECTION('',(-1.,0.,0.));
#1330=DIRECTION('',(0.,0.,-1.));
#1331=DIRECTION('',(-1.,0.,0.));
#1332=DIRECTION('',(0.,0.,-1.));
#1333=DIRECTION('',(0.,0.,-1.));
#1334=DIRECTION('',(-1.,0.,0.));
#1335=DIRECTION('',(0.,0.,1.));
#1336=DIRECTION('',(1.,0.,0.));
#1337=DIRECTION('',(-1.,-1.50030138462859E-16,0.));
#1338=DIRECTION('',(0.,0.,1.));
#1339=DIRECTION('',(1.,0.,0.));
#1340=DIRECTION('',(9.25185853854297E-17,-1.,0.));
#1341=DIRECTION('',(0.,0.,1.));
#1342=DIRECTION('',(1.,0.,0.));
#1343=DIRECTION('',(7.50150692314295E-17,-1.,0.));
#1344=DIRECTION('',(-1.,-7.50150692314295E-17,0.));
#1345=DIRECTION('',(7.50150692314295E-17,-1.,0.));
#1346=DIRECTION('',(0.,0.,1.));
#1347=DIRECTION('',(1.,0.,0.));
#1348=DIRECTION('',(9.25185853854297E-17,-1.,0.));
#1349=DIRECTION('',(0.,0.,1.));
#1350=DIRECTION('',(1.,0.,0.));
#1351=DIRECTION('',(-1.,0.,0.));
#1352=DIRECTION('',(0.,1.,0.));
#1353=DIRECTION('',(0.,-1.,0.));
#1354=DIRECTION('',(0.,1.,0.));
#1355=DIRECTION('',(-1.,0.,0.));
#1356=DIRECTION('',(0.,-1.,0.));
#1357=DIRECTION('',(0.,-1.,0.));
#1358=DIRECTION('',(0.,-1.,0.));
#1359=DIRECTION('',(0.,0.,1.));
#1360=DIRECTION('',(1.,0.,0.));
#1361=DIRECTION('',(0.,0.,1.));
#1362=DIRECTION('',(1.,0.,0.));
#1363=DIRECTION('',(0.,0.,1.));
#1364=DIRECTION('',(1.,0.,0.));
#1365=DIRECTION('',(0.,0.,1.));
#1366=DIRECTION('',(1.,0.,0.));
#1367=DIRECTION('',(1.,9.25185853854297E-17,0.));
#1368=DIRECTION('',(-9.25185853854297E-17,1.,0.));
#1369=DIRECTION('',(0.,0.,-1.));
#1370=DIRECTION('',(9.25185853854297E-17,-1.,0.));
#1371=DIRECTION('',(0.,0.,-1.));
#1372=DIRECTION('',(1.,9.25185853854297E-17,0.));
#1373=DIRECTION('',(-9.25185853854297E-17,1.,0.));
#1374=DIRECTION('',(0.,0.,-1.));
#1375=DIRECTION('',(9.25185853854297E-17,-1.,0.));
#1376=DIRECTION('',(0.,0.,-1.));
#1377=DIRECTION('',(1.50030138462859E-16,-1.,0.));
#1378=DIRECTION('',(1.,1.50030138462859E-16,0.));
#1379=DIRECTION('',(0.,0.,-1.));
#1380=DIRECTION('',(-1.,-1.50030138462859E-16,0.));
#1381=DIRECTION('',(0.,0.,-1.));
#1382=DIRECTION('',(0.,0.,1.));
#1383=DIRECTION('',(1.,0.,0.));
#1384=DIRECTION('',(-1.,-7.50150692314295E-17,0.));
#1385=DIRECTION('',(9.25185853854297E-17,-1.,0.));
#1386=DIRECTION('',(-1.,-1.50030138462859E-16,0.));
#1387=DIRECTION('',(9.25185853854297E-17,-1.,0.));
#1388=DIRECTION('',(1.,0.,0.));
#1389=DIRECTION('',(0.,0.,-1.));
#1390=DIRECTION('',(1.,0.,0.));
#1391=DIRECTION('',(0.,0.,-1.));
#1392=DIRECTION('',(0.,1.,0.));
#1393=DIRECTION('',(0.,0.,1.));
#1394=DIRECTION('',(0.,0.,1.));
#1395=DIRECTION('',(-1.,0.,0.));
#1396=DIRECTION('',(0.,0.,1.));
#1397=DIRECTION('',(0.,0.,1.));
#1398=DIRECTION('',(1.,0.,0.));
#1399=DIRECTION('',(0.,-1.,0.));
#1400=DIRECTION('',(0.,1.,0.));
#1401=DIRECTION('',(-1.,0.,0.));
#1402=DIRECTION('',(0.,0.,1.));
#1403=DIRECTION('',(1.,0.,0.));
#1404=DIRECTION('',(0.,0.,-1.));
#1405=DIRECTION('',(0.,0.,1.));
#1406=DIRECTION('',(1.,0.,0.));
#1407=DIRECTION('',(0.,1.,0.));
#1408=DIRECTION('',(-1.,0.,0.));
#1409=DIRECTION('',(0.,-1.,0.));
#1410=DIRECTION('',(1.,0.,0.));
#1411=DIRECTION('',(0.,0.,-1.));
#1412=DIRECTION('',(0.,0.,1.));
#1413=DIRECTION('',(-1.,0.,0.));
#1414=DIRECTION('',(0.,0.,1.));
#1415=DIRECTION('',(0.,0.,1.));
#1416=DIRECTION('',(0.,1.,0.));
#1417=DIRECTION('',(0.,0.,1.));
#1418=DIRECTION('',(0.,0.,1.));
#1419=DIRECTION('',(1.,0.,0.));
#1420=DIRECTION('',(0.,0.,1.));
#1421=DIRECTION('',(1.,0.,0.));
#1422=DIRECTION('',(0.,0.,-1.));
#1423=DIRECTION('',(-1.,0.,0.));
#1424=DIRECTION('',(0.,0.,-1.));
#1425=DIRECTION('',(-1.,0.,0.));
#1426=DIRECTION('',(0.,0.,-1.));
#1427=DIRECTION('',(-1.,0.,0.));
#1428=DIRECTION('',(0.,0.,-1.));
#1429=DIRECTION('',(-1.,0.,0.));
#1430=DIRECTION('',(0.,0.,1.));
#1431=DIRECTION('',(1.,0.,0.));
#1432=DIRECTION('',(0.,0.,1.));
#1433=DIRECTION('',(1.,0.,0.));
#1434=DIRECTION('',(0.,0.,1.));
#1435=DIRECTION('',(1.,0.,0.));
#1436=DIRECTION('',(0.,-1.,0.));
#1437=DIRECTION('',(0.,0.,-1.));
#1438=DIRECTION('',(1.,0.,0.));
#1439=DIRECTION('',(0.,0.,-1.));
#1440=DIRECTION('',(-1.,-7.50150692314295E-17,0.));
#1441=DIRECTION('',(7.50150692314295E-17,-1.,0.));
#1442=DIRECTION('',(1.,0.,0.));
#1443=DIRECTION('',(0.,0.,-1.));
#1444=DIRECTION('',(9.25185853854297E-17,-1.,0.));
#1445=DIRECTION('',(1.,9.25185853854297E-17,0.));
#1446=DIRECTION('',(0.,-1.,0.));
#1447=DIRECTION('',(0.,0.,-1.));
#1448=DIRECTION('',(0.,0.,1.));
#1449=DIRECTION('',(1.,0.,0.));
#1450=DIRECTION('',(0.,-1.,0.));
#1451=DIRECTION('',(0.,0.,-1.));
#1452=DIRECTION('',(0.,0.,1.));
#1453=DIRECTION('',(1.,0.,0.));
#1454=DIRECTION('',(1.,0.,0.));
#1455=DIRECTION('',(0.,0.,-1.));
#1456=DIRECTION('',(-9.25185853854297E-17,1.,0.));
#1457=DIRECTION('',(-1.,-9.25185853854297E-17,0.));
#1458=DIRECTION('',(0.,-1.,0.));
#1459=DIRECTION('',(0.,0.,-1.));
#1460=DIRECTION('',(1.,1.50030138462859E-16,0.));
#1461=DIRECTION('',(-1.50030138462859E-16,1.,0.));
#1462=DIRECTION('',(1.,0.,0.));
#1463=DIRECTION('',(0.,0.,-1.));
#1464=DIRECTION('',(0.,0.,1.));
#1465=DIRECTION('',(1.,0.,0.));
#1466=DIRECTION('',(0.,0.,-1.));
#1467=DIRECTION('',(-1.,0.,0.));
#1468=DIRECTION('',(0.,0.,1.));
#1469=DIRECTION('',(1.,0.,0.));
#1470=DIRECTION('',(0.,0.,1.));
#1471=DIRECTION('',(1.,0.,0.));
#1472=DIRECTION('',(0.,0.,-1.));
#1473=DIRECTION('',(-1.,0.,0.));
#1474=DIRECTION('',(0.,0.,1.));
#1475=DIRECTION('',(1.,0.,0.));
#1476=DIRECTION('',(0.,0.,1.));
#1477=DIRECTION('',(1.,0.,0.));
#1478=DIRECTION('',(0.,0.,-1.));
#1479=DIRECTION('',(-1.,0.,0.));
#1480=DIRECTION('',(0.,0.,1.));
#1481=DIRECTION('',(1.,0.,0.));
#1482=DIRECTION('',(0.,0.,1.));
#1483=DIRECTION('',(1.,0.,0.));
#1484=DIRECTION('',(0.,0.,-1.));
#1485=DIRECTION('',(-1.,0.,0.));
#1486=DIRECTION('',(0.,0.,1.));
#1487=DIRECTION('',(1.,0.,0.));
#1488=DIRECTION('',(0.,0.,1.));
#1489=DIRECTION('',(1.,0.,0.));
#1490=DIRECTION('',(-1.,-7.50150692314295E-17,0.));
#1491=DIRECTION('',(7.50150692314295E-17,-1.,0.));
#1492=DIRECTION('',(7.50150692314295E-17,-1.,0.));
#1493=DIRECTION('',(0.,0.,-1.));
#1494=DIRECTION('',(0.,0.,1.));
#1495=DIRECTION('',(1.,0.,0.));
#1496=DIRECTION('',(7.50150692314295E-17,-1.,0.));
#1497=DIRECTION('',(-1.,-7.50150692314295E-17,0.));
#1498=DIRECTION('',(1.,7.50150692314295E-17,0.));
#1499=DIRECTION('',(-7.50150692314295E-17,1.,0.));
#1500=DIRECTION('',(0.,0.,1.));
#1501=DIRECTION('',(-7.50150692314295E-17,1.,0.));
#1502=DIRECTION('',(-1.,-7.50150692314295E-17,0.));
#1503=DIRECTION('',(0.,0.866025403784439,-0.5));
#1504=DIRECTION('',(0.,-0.5,-0.866025403784439));
#1505=DIRECTION('',(-1.,0.,0.));
#1506=DIRECTION('',(-0.447213595499958,-0.447213595499958,-0.774596669241483));
#1507=DIRECTION('',(-0.447213595499958,0.447213595499958,0.774596669241483));
#1508=DIRECTION('',(-0.866025403784439,0.,-0.5));
#1509=DIRECTION('',(0.5,0.,-0.866025403784439));
#1510=DIRECTION('',(0.,-1.,0.));
#1511=DIRECTION('',(0.447213595499958,0.447213595499958,-0.774596669241483));
#1512=DIRECTION('',(0.,-0.866025403784439,-0.5));
#1513=DIRECTION('',(0.,0.5,-0.866025403784439));
#1514=DIRECTION('',(1.,0.,0.));
#1515=DIRECTION('',(0.447213595499958,-0.447213595499958,0.774596669241483));
#1516=DIRECTION('',(0.866025403784439,0.,-0.5));
#1517=DIRECTION('',(-0.5,0.,-0.866025403784439));
#1518=DIRECTION('',(0.,1.,0.));
#1519=DIRECTION('',(0.,0.,1.));
#1520=DIRECTION('',(1.,0.,0.));
#1521=DIRECTION('',(0.,0.866025403784439,-0.5));
#1522=DIRECTION('',(0.,-0.5,-0.866025403784439));
#1523=DIRECTION('',(-1.,0.,0.));
#1524=DIRECTION('',(-0.447213595499958,-0.447213595499958,-0.774596669241483));
#1525=DIRECTION('',(-0.447213595499958,0.447213595499958,0.774596669241483));
#1526=DIRECTION('',(-0.866025403784439,0.,-0.5));
#1527=DIRECTION('',(0.5,0.,-0.866025403784439));
#1528=DIRECTION('',(0.,-1.,0.));
#1529=DIRECTION('',(0.447213595499958,0.447213595499958,-0.774596669241483));
#1530=DIRECTION('',(0.,-0.866025403784439,-0.5));
#1531=DIRECTION('',(0.,0.5,-0.866025403784439));
#1532=DIRECTION('',(1.,0.,0.));
#1533=DIRECTION('',(0.447213595499958,-0.447213595499958,0.774596669241483));
#1534=DIRECTION('',(0.866025403784439,0.,-0.5));
#1535=DIRECTION('',(-0.5,0.,-0.866025403784439));
#1536=DIRECTION('',(0.,1.,0.));
#1537=DIRECTION('',(0.,0.,1.));
#1538=DIRECTION('',(1.,0.,0.));
#1539=CARTESIAN_POINT('',(0.,0.,0.));
#1540=CARTESIAN_POINT('',(-1.38777878078145E-17,0.,0.003));
#1541=CARTESIAN_POINT('',(-1.38777878078145E-17,-0.00261015385260836,0.003));
#1542=CARTESIAN_POINT('',(0.0722320508075689,-0.00261015385260836,0.003));
#1543=CARTESIAN_POINT('',(0.0517679491924311,-0.00261015385260836,0.003));
#1544=CARTESIAN_POINT('',(0.0722320508075689,0.,0.003));
#1545=CARTESIAN_POINT('',(0.0722320508075689,-0.0230742554677461,0.003));
#1546=CARTESIAN_POINT('',(-1.38777878078145E-17,-0.0230742554677461,0.003));
#1547=CARTESIAN_POINT('',(0.0517679491924311,-0.0230742554677461,0.003));
#1548=CARTESIAN_POINT('',(0.0517679491924311,0.,0.003));
#1549=CARTESIAN_POINT('',(-1.38777878078145E-17,0.065,0.003));
#1550=CARTESIAN_POINT('',(-0.0805,0.065,0.003));
#1551=CARTESIAN_POINT('',(0.0805,0.065,0.003));
#1552=CARTESIAN_POINT('',(-0.0805,0.,0.003));
#1553=CARTESIAN_POINT('',(-0.0805,-0.065,0.003));
#1554=CARTESIAN_POINT('',(-1.38777878078145E-17,-0.065,0.003));
#1555=CARTESIAN_POINT('',(0.0805,-0.065,0.003));
#1556=CARTESIAN_POINT('',(0.0805,0.,0.003));
#1557=CARTESIAN_POINT('',(-0.0722320508075689,0.,0.003));
#1558=CARTESIAN_POINT('',(-0.0722320508075689,-0.0230742554677461,0.003));
#1559=CARTESIAN_POINT('',(-0.0722320508075689,-0.00261015385260836,0.003));
#1560=CARTESIAN_POINT('',(-1.38777878078145E-17,-0.00261015385260836,0.003));
#1561=CARTESIAN_POINT('',(-0.0517679491924311,-0.00261015385260836,0.003));
#1562=CARTESIAN_POINT('',(-0.0517679491924311,0.,0.003));
#1563=CARTESIAN_POINT('',(-0.0517679491924311,-0.0230742554677461,0.003));
#1564=CARTESIAN_POINT('',(-1.38777878078145E-17,-0.0230742554677461,0.003));
#1565=CARTESIAN_POINT('',(0.,0.075,0.003));
#1566=CARTESIAN_POINT('',(-0.00565736330436353,0.075,0.01275));
#1567=CARTESIAN_POINT('',(-0.00565736330436353,0.075,0.0125));
#1568=CARTESIAN_POINT('',(-0.00565736330436353,0.075,0.013));
#1569=CARTESIAN_POINT('',(0.00134263669563647,0.075,0.0125));
#1570=CARTESIAN_POINT('',(0.00834263669563647,0.075,0.0125));
#1571=CARTESIAN_POINT('',(0.00834263669563647,0.075,0.01275));
#1572=CARTESIAN_POINT('',(0.00834263669563647,0.075,0.013));
#1573=CARTESIAN_POINT('',(0.,0.075,0.013));
#1574=CARTESIAN_POINT('',(0.0875,0.075,0.013));
#1575=CARTESIAN_POINT('',(0.0875,0.075,0.));
#1576=CARTESIAN_POINT('',(0.0875,0.075,0.005));
#1577=CARTESIAN_POINT('',(0.,0.075,0.005));
#1578=CARTESIAN_POINT('',(-0.0875,0.075,0.005));
#1579=CARTESIAN_POINT('',(-0.0875,0.075,0.003));
#1580=CARTESIAN_POINT('',(-0.0875,0.075,0.013));
#1581=CARTESIAN_POINT('',(0.,0.075,0.013));
#1582=CARTESIAN_POINT('',(0.,0.065,0.013));
#1583=CARTESIAN_POINT('',(0.,0.065,0.011));
#1584=CARTESIAN_POINT('',(0.0609166150547005,0.065,0.011));
#1585=CARTESIAN_POINT('',(-0.0590833849452995,0.065,0.011));
#1586=CARTESIAN_POINT('',(-0.0590833849452995,0.065,0.013));
#1587=CARTESIAN_POINT('',(-0.0590833849452995,0.065,0.013));
#1588=CARTESIAN_POINT('',(0.,0.065,0.013));
#1589=CARTESIAN_POINT('',(-0.0805,0.065,0.013));
#1590=CARTESIAN_POINT('',(-0.0805,0.065,0.013));
#1591=CARTESIAN_POINT('',(0.0805,0.065,0.013));
#1592=CARTESIAN_POINT('',(0.0805,0.065,0.013));
#1593=CARTESIAN_POINT('',(0.,0.065,0.013));
#1594=CARTESIAN_POINT('',(0.0609166150547005,0.065,0.013));
#1595=CARTESIAN_POINT('',(0.0609166150547005,0.065,0.013));
#1596=CARTESIAN_POINT('',(0.,-0.065,0.013));
#1597=CARTESIAN_POINT('',(-0.0590833849452995,-0.065,0.013));
#1598=CARTESIAN_POINT('',(-0.0590833849452995,-0.065,0.011));
#1599=CARTESIAN_POINT('',(-0.0590833849452995,-0.065,0.013));
#1600=CARTESIAN_POINT('',(0.,-0.065,0.011));
#1601=CARTESIAN_POINT('',(0.0609166150547005,-0.065,0.011));
#1602=CARTESIAN_POINT('',(0.0609166150547005,-0.065,0.013));
#1603=CARTESIAN_POINT('',(0.0609166150547005,-0.065,0.013));
#1604=CARTESIAN_POINT('',(0.,-0.065,0.013));
#1605=CARTESIAN_POINT('',(0.0805,-0.065,0.013));
#1606=CARTESIAN_POINT('',(0.0805,-0.065,0.013));
#1607=CARTESIAN_POINT('',(-0.0805,-0.065,0.013));
#1608=CARTESIAN_POINT('',(-0.0805,-0.065,0.013));
#1609=CARTESIAN_POINT('',(0.,-0.065,0.013));
#1610=CARTESIAN_POINT('',(-1.38777878078145E-17,0.,0.013));
#1611=CARTESIAN_POINT('',(0.,-0.075,0.013));
#1612=CARTESIAN_POINT('',(0.0875,-0.075,0.013));
#1613=CARTESIAN_POINT('',(-0.0875,-0.075,0.013));
#1614=CARTESIAN_POINT('',(0.0875,-0.07,0.013));
#1615=CARTESIAN_POINT('',(0.0925,-0.07,0.013));
#1616=CARTESIAN_POINT('',(0.0925,1.38777878078145E-17,0.013));
#1617=CARTESIAN_POINT('',(0.0925,0.07,0.013));
#1618=CARTESIAN_POINT('',(0.0875,0.07,0.013));
#1619=CARTESIAN_POINT('',(0.00834263669563647,0.077,0.013));
#1620=CARTESIAN_POINT('',(0.00834263669563647,0.077,0.013));
#1621=CARTESIAN_POINT('',(-1.50030138462859E-19,0.077,0.013));
#1622=CARTESIAN_POINT('',(-0.00565736330436353,0.077,0.013));
#1623=CARTESIAN_POINT('',(-0.00565736330436353,0.077,0.013));
#1624=CARTESIAN_POINT('',(-0.0875,0.07,0.013));
#1625=CARTESIAN_POINT('',(-0.0925,0.07,0.013));
#1626=CARTESIAN_POINT('',(-0.0925,-1.38777878078145E-17,0.013));
#1627=CARTESIAN_POINT('',(-0.0925,-0.07,0.013));
#1628=CARTESIAN_POINT('',(-0.0875,-0.07,0.013));
#1629=CARTESIAN_POINT('',(0.00091661505470049,-0.0715235898165436,0.013));
#1630=CARTESIAN_POINT('',(0.0609166150547005,-0.0715235898165436,0.013));
#1631=CARTESIAN_POINT('',(-0.0590833849452995,-0.0715235898165436,0.013));
#1632=CARTESIAN_POINT('',(-0.0590833849452995,-0.0682617949082718,0.013));
#1633=CARTESIAN_POINT('',(-0.0805,0.,0.013));
#1634=CARTESIAN_POINT('',(-0.0590833849452995,-0.0682617949082718,0.013));
#1635=CARTESIAN_POINT('',(-0.0590833849452995,0.0715235898165436,0.013));
#1636=CARTESIAN_POINT('',(0.00091661505470049,0.0715235898165436,0.013));
#1637=CARTESIAN_POINT('',(0.0609166150547005,0.0715235898165436,0.013));
#1638=CARTESIAN_POINT('',(0.0609166150547005,-0.0682617949082718,0.013));
#1639=CARTESIAN_POINT('',(0.0805,0.,0.013));
#1640=CARTESIAN_POINT('',(0.0609166150547005,-0.0682617949082718,0.013));
#1641=CARTESIAN_POINT('',(-0.0875,-0.07,0.013));
#1642=CARTESIAN_POINT('',(-0.08575,-0.07,0.013));
#1643=CARTESIAN_POINT('',(-0.0875,0.07,0.013));
#1644=CARTESIAN_POINT('',(-0.08575,0.07,0.013));
#1645=CARTESIAN_POINT('',(0.0875,0.07,0.013));
#1646=CARTESIAN_POINT('',(0.08925,0.07,0.013));
#1647=CARTESIAN_POINT('',(0.0875,-0.07,0.013));
#1648=CARTESIAN_POINT('',(0.08925,-0.07,0.013));
#1649=CARTESIAN_POINT('',(0.0925,1.38777878078145E-17,0.003));
#1650=CARTESIAN_POINT('',(0.0925,-0.07,0.003));
#1651=CARTESIAN_POINT('',(0.0925,-0.07,0.005));
#1652=CARTESIAN_POINT('',(0.0925,0.07,0.005));
#1653=CARTESIAN_POINT('',(0.0925,0.07,0.005));
#1654=CARTESIAN_POINT('',(0.0925,0.07,0.013));
#1655=CARTESIAN_POINT('',(-0.0925,-1.38777878078145E-17,0.003));
#1656=CARTESIAN_POINT('',(-0.0925,0.07,0.003));
#1657=CARTESIAN_POINT('',(-0.0925,0.07,0.005));
#1658=CARTESIAN_POINT('',(-0.0925,-1.38777878078145E-17,0.005));
#1659=CARTESIAN_POINT('',(-0.0925,-0.07,0.005));
#1660=CARTESIAN_POINT('',(-0.0925,-0.07,0.013));
#1661=CARTESIAN_POINT('',(0.,-0.075,0.003));
#1662=CARTESIAN_POINT('',(-0.0875,-0.075,0.));
#1663=CARTESIAN_POINT('',(-0.0875,-0.075,0.005));
#1664=CARTESIAN_POINT('',(0.0875,-0.075,0.005));
#1665=CARTESIAN_POINT('',(0.0875,-0.075,0.005));
#1666=CARTESIAN_POINT('',(0.0875,-0.075,0.003));
#1667=CARTESIAN_POINT('',(-1.38777878078145E-17,0.,0.));
#1668=CARTESIAN_POINT('',(-1.91288426540145E-17,0.07,0.));
#1669=CARTESIAN_POINT('',(-0.0875,0.07,0.));
#1670=CARTESIAN_POINT('',(0.0875,0.07,0.));
#1671=CARTESIAN_POINT('',(0.0875,-0.07,0.));
#1672=CARTESIAN_POINT('',(0.0875,-0.07,0.));
#1673=CARTESIAN_POINT('',(-0.0875,-0.07,0.));
#1674=CARTESIAN_POINT('',(-0.0875,-0.07,0.));
#1675=CARTESIAN_POINT('',(-0.0875,-8.0953762212251E-18,0.));
#1676=CARTESIAN_POINT('',(0.0805,0.,0.013));
#1677=CARTESIAN_POINT('',(-0.0805,0.,0.013));
#1678=CARTESIAN_POINT('',(0.00091661505470049,0.0715235898165436,0.011));
#1679=CARTESIAN_POINT('',(-0.0590833849452995,0.0715235898165436,0.011));
#1680=CARTESIAN_POINT('',(-0.0590833849452995,0.0715235898165436,0.011));
#1681=CARTESIAN_POINT('',(0.00091661505470049,0.0715235898165436,0.011));
#1682=CARTESIAN_POINT('',(0.0609166150547005,0.0715235898165436,0.011));
#1683=CARTESIAN_POINT('',(0.0609166150547005,0.0715235898165436,0.011));
#1684=CARTESIAN_POINT('',(-1.38777878078145E-17,0.,0.011));
#1685=CARTESIAN_POINT('',(0.0609166150547005,-0.0682617949082718,0.011));
#1686=CARTESIAN_POINT('',(-0.0590833849452995,-0.0682617949082718,0.011));
#1687=CARTESIAN_POINT('',(0.0609166150547005,-0.0682617949082718,0.011));
#1688=CARTESIAN_POINT('',(-0.0590833849452995,-0.0682617949082718,0.011));
#1689=CARTESIAN_POINT('',(-1.38777878078145E-17,0.,0.011));
#1690=CARTESIAN_POINT('',(-0.0590833849452995,-0.0682617949082718,0.011));
#1691=CARTESIAN_POINT('',(-0.0590833849452995,-0.0715235898165436,0.011));
#1692=CARTESIAN_POINT('',(0.00091661505470049,-0.0715235898165436,0.011));
#1693=CARTESIAN_POINT('',(0.0609166150547005,-0.0715235898165436,0.011));
#1694=CARTESIAN_POINT('',(0.0609166150547005,-0.0682617949082718,0.011));
#1695=CARTESIAN_POINT('',(-0.0590833849452995,-0.0682617949082718,0.011));
#1696=CARTESIAN_POINT('',(-0.0590833849452995,-0.0715235898165436,0.011));
#1697=CARTESIAN_POINT('',(0.0609166150547005,-0.0682617949082718,0.011));
#1698=CARTESIAN_POINT('',(0.0609166150547005,-0.0715235898165436,0.011));
#1699=CARTESIAN_POINT('',(0.00091661505470049,-0.0715235898165436,0.011));
#1700=CARTESIAN_POINT('',(-0.0875,-0.07,0.003));
#1701=CARTESIAN_POINT('',(-0.0875,-0.07,0.005));
#1702=CARTESIAN_POINT('',(-0.0875,0.07,0.003));
#1703=CARTESIAN_POINT('',(-0.0875,0.07,0.005));
#1704=CARTESIAN_POINT('',(0.0875,-0.07,0.003));
#1705=CARTESIAN_POINT('',(0.0875,-0.07,0.005));
#1706=CARTESIAN_POINT('',(0.0875,0.07,0.003));
#1707=CARTESIAN_POINT('',(0.0875,0.07,0.005));
#1708=CARTESIAN_POINT('',(-0.0875,0.07,0.005));
#1709=CARTESIAN_POINT('',(-0.0875,0.07,0.005));
#1710=CARTESIAN_POINT('',(-0.0875,0.07,0.005));
#1711=CARTESIAN_POINT('',(3.75075346157148E-19,0.07,0.005));
#1712=CARTESIAN_POINT('',(0.0875,0.07,0.005));
#1713=CARTESIAN_POINT('',(-0.0875,-1.34151948808873E-17,0.005));
#1714=CARTESIAN_POINT('',(-0.0875,-0.07,0.005));
#1715=CARTESIAN_POINT('',(0.0875,0.07,0.005));
#1716=CARTESIAN_POINT('',(0.0875,0.07,0.005));
#1717=CARTESIAN_POINT('',(-0.0875,-0.07,0.005));
#1718=CARTESIAN_POINT('',(-0.0875,-0.07,0.005));
#1719=CARTESIAN_POINT('',(0.0875,8.0953762212251E-18,0.005));
#1720=CARTESIAN_POINT('',(0.0875,-0.07,0.005));
#1721=CARTESIAN_POINT('',(-3.37567811541433E-18,-0.07,0.005));
#1722=CARTESIAN_POINT('',(0.0875,-0.07,0.005));
#1723=CARTESIAN_POINT('',(0.0875,-0.07,0.005));
#1724=CARTESIAN_POINT('',(-0.0875,0.07,0.023));
#1725=CARTESIAN_POINT('',(-0.0875,0.07,0.023));
#1726=CARTESIAN_POINT('',(-0.08575,0.07,0.023));
#1727=CARTESIAN_POINT('',(0.,0.,0.023));
#1728=CARTESIAN_POINT('',(-0.0875,-0.07,0.023));
#1729=CARTESIAN_POINT('',(-0.0875,-0.07,0.023));
#1730=CARTESIAN_POINT('',(-0.08575,-0.07,0.023));
#1731=CARTESIAN_POINT('',(0.,0.,0.023));
#1732=CARTESIAN_POINT('',(0.0875,-0.07,0.023));
#1733=CARTESIAN_POINT('',(0.0875,-0.07,0.023));
#1734=CARTESIAN_POINT('',(0.08925,-0.07,0.023));
#1735=CARTESIAN_POINT('',(0.,0.,0.023));
#1736=CARTESIAN_POINT('',(0.0875,0.07,0.023));
#1737=CARTESIAN_POINT('',(0.0875,0.07,0.023));
#1738=CARTESIAN_POINT('',(0.08925,0.07,0.023));
#1739=CARTESIAN_POINT('',(0.,0.,0.023));
#1740=CARTESIAN_POINT('',(0.00834263669563647,0.077,0.01275));
#1741=CARTESIAN_POINT('',(0.00834263669563647,0.077,0.0125));
#1742=CARTESIAN_POINT('',(0.00834263669563647,0.077,0.0125));
#1743=CARTESIAN_POINT('',(0.00834263669563647,0.077,0.01275));
#1744=CARTESIAN_POINT('',(0.00134263669563647,0.077,0.0125));
#1745=CARTESIAN_POINT('',(-0.00565736330436353,0.077,0.0125));
#1746=CARTESIAN_POINT('',(-0.00565736330436353,0.077,0.0125));
#1747=CARTESIAN_POINT('',(0.00134263669563647,0.077,0.0125));
#1748=CARTESIAN_POINT('',(-0.00565736330436353,0.077,0.01275));
#1749=CARTESIAN_POINT('',(-0.00565736330436353,0.077,0.01275));
#1750=CARTESIAN_POINT('',(-5.77616033082007E-18,0.077,0.009));
#1751=CARTESIAN_POINT('',(-1.38777878078145E-17,-0.00434220466017723,0.));
#1752=CARTESIAN_POINT('',(0.,0.00316334883928791,0.013));
#1753=CARTESIAN_POINT('',(0.0780055534994651,0.0031633488392879,0.013));
#1754=CARTESIAN_POINT('',(0.0459944465005349,0.0031633488392879,0.013));
#1755=CARTESIAN_POINT('',(0.0564,-0.0184422046601772,-0.0244219163867212));
#1756=CARTESIAN_POINT('',(0.0428,0.00635779533982277,0.018532943640987));
#1757=CARTESIAN_POINT('',(0.0535,0.,0.));
#1758=CARTESIAN_POINT('',(0.0459944465005349,0.001,0.013));
#1759=CARTESIAN_POINT('',(0.0459944465005349,-0.0288477581596423,0.013));
#1760=CARTESIAN_POINT('',(0.0428,-0.0320422046601773,0.018532943640987));
#1761=CARTESIAN_POINT('',(-1.38777878078145E-17,-0.0213422046601772,0.));
#1762=CARTESIAN_POINT('',(0.,-0.0288477581596423,0.013));
#1763=CARTESIAN_POINT('',(0.0780055534994651,-0.0288477581596423,0.013));
#1764=CARTESIAN_POINT('',(0.0564,-0.00724220466017722,-0.0244219163867212));
#1765=CARTESIAN_POINT('',(0.0705,0.,0.));
#1766=CARTESIAN_POINT('',(0.0780055534994652,0.001,0.013));
#1767=CARTESIAN_POINT('',(0.,0.001,0.013));
#1768=CARTESIAN_POINT('',(-1.38777878078145E-17,-0.00434220466017723,0.));
#1769=CARTESIAN_POINT('',(0.,0.00316334883928791,0.013));
#1770=CARTESIAN_POINT('',(-0.0780055534994651,0.0031633488392879,0.013));
#1771=CARTESIAN_POINT('',(-0.0459944465005349,0.0031633488392879,0.013));
#1772=CARTESIAN_POINT('',(-0.0428,0.00635779533982277,0.018532943640987));
#1773=CARTESIAN_POINT('',(-0.0564,-0.0184422046601772,-0.0244219163867212));
#1774=CARTESIAN_POINT('',(-0.0705,0.,0.));
#1775=CARTESIAN_POINT('',(-0.0780055534994652,0.001,0.013));
#1776=CARTESIAN_POINT('',(-0.0780055534994651,-0.0288477581596423,0.013));
#1777=CARTESIAN_POINT('',(-0.0564,-0.00724220466017723,-0.0244219163867212));
#1778=CARTESIAN_POINT('',(-1.38777878078145E-17,-0.0213422046601772,0.));
#1779=CARTESIAN_POINT('',(0.,-0.0288477581596423,0.013));
#1780=CARTESIAN_POINT('',(-0.0459944465005349,-0.0288477581596423,0.013));
#1781=CARTESIAN_POINT('',(-0.0428,-0.0320422046601773,0.018532943640987));
#1782=CARTESIAN_POINT('',(-0.0535,0.,0.));
#1783=CARTESIAN_POINT('',(-0.0459944465005349,0.001,0.013));
#1784=CARTESIAN_POINT('',(0.,0.001,0.013));
#1785=MECHANICAL_DESIGN_GEOMETRIC_PRESENTATION_REPRESENTATION('',(#925,
#825,#826,#827,#828,#829,#830,#831,#832,#833,#834,#835,#836,#837,#838,#839,
#840,#841,#842,#843,#844,#845,#846,#847,#848,#849,#850,#851,#852,#853,#854,
#855,#856,#857,#858,#859,#860,#861,#862,#863,#864,#865,#866,#867,#868,#869,
#870),#1786);
#1786=(
GEOMETRIC_REPRESENTATION_CONTEXT(3)
GLOBAL_UNCERTAINTY_ASSIGNED_CONTEXT((#1787))
GLOBAL_UNIT_ASSIGNED_CONTEXT((#1790,#1789,#1788))
REPRESENTATION_CONTEXT('Drone Controller - Bottom',
'TOP_LEVEL_ASSEMBLY_PART')
);
#1787=UNCERTAINTY_MEASURE_WITH_UNIT(LENGTH_MEASURE(1.E-8),#1790,
'DISTANCE_ACCURACY_VALUE','Maximum Tolerance applied to model');
#1788=(
NAMED_UNIT(*)
SI_UNIT($,.STERADIAN.)
SOLID_ANGLE_UNIT()
);
#1789=(
NAMED_UNIT(*)
PLANE_ANGLE_UNIT()
SI_UNIT($,.RADIAN.)
);
#1790=(
LENGTH_UNIT()
NAMED_UNIT(*)
SI_UNIT($,.METRE.)
);
#1791=PRODUCT_DEFINITION_SHAPE('','',#1792);
#1792=PRODUCT_DEFINITION('','',#1794,#1793);
#1793=PRODUCT_DEFINITION_CONTEXT('',#1800,'design');
#1794=PRODUCT_DEFINITION_FORMATION_WITH_SPECIFIED_SOURCE('','',#1796,
 .NOT_KNOWN.);
#1795=PRODUCT_RELATED_PRODUCT_CATEGORY('','',(#1796));
#1796=PRODUCT('Drone Controller - Bottom','Drone Controller - Bottom',
'Drone Controller - Bottom',(#1798));
#1797=PRODUCT_CATEGORY('','');
#1798=PRODUCT_CONTEXT('',#1800,'mechanical');
#1799=APPLICATION_PROTOCOL_DEFINITION('international standard',
'ap242_managed_model_based_3d_engineering',2020,#1800);
#1800=APPLICATION_CONTEXT('managed model based 3d engineering');
ENDSEC;
END-ISO-10303-21;
