ISO-10303-21;
HEADER;
/* Generated by software containing ST-Developer
 * from STEP Tools, Inc. (www.steptools.com) 
 */
/* OPTION: using custom renumber hook */

FILE_DESCRIPTION(
/* description */ ('STEP AP242 Edition 2',
'CAx-IF Rec.Pracs.---Representation and Presentation of Product Manufa
cturing Information (PMI)---4.0---2014-10-13',
'CAx-IF Rec.Pracs.---3D Tessellated Geometry---0.4---2014-09-14','2;1',
'CAx-IF Rec.Pracs.---User Defined Attributes---1.5---2016-08-15'),
/* implementation_level */ '2;1');

FILE_NAME(
/* name */ 'KICAD Drohnen COntroller - Part 497',
/* time_stamp */ '2026-08-15T02:21:28Z',
/* author */ (''),
/* organization */ (''),
/* preprocessor_version */ 'ST-DEVELOPER v20',
/* originating_system */ 'ONSHAPE BY PTC INC, 1.219',
/* authorisation */ '  ');

FILE_SCHEMA (('AP242_MANAGED_MODEL_BASED_3D_ENGINEERING_MIM_LF { 1 0 10303 442 3 1 4 }'));
ENDSEC;

DATA;
#10=SHAPE_REPRESENTATION_RELATIONSHIP('','',#948,#11);
#11=ADVANCED_BREP_SHAPE_REPRESENTATION('',(#946),#1418);
#12=SPHERICAL_SURFACE('',#985,0.005);
#13=SPHERICAL_SURFACE('',#992,0.005);
#14=SPHERICAL_SURFACE('',#994,0.005);
#15=SPHERICAL_SURFACE('',#1000,0.005);
#16=CYLINDRICAL_SURFACE('',#977,0.005);
#17=CYLINDRICAL_SURFACE('',#979,0.005);
#18=CYLINDRICAL_SURFACE('',#981,0.005);
#19=CYLINDRICAL_SURFACE('',#983,0.005);
#20=CYLINDRICAL_SURFACE('',#988,0.005);
#21=CYLINDRICAL_SURFACE('',#990,0.005);
#22=CYLINDRICAL_SURFACE('',#996,0.005);
#23=CYLINDRICAL_SURFACE('',#998,0.005);
#24=CYLINDRICAL_SURFACE('',#1001,0.00125);
#25=CYLINDRICAL_SURFACE('',#1004,0.00125);
#26=CYLINDRICAL_SURFACE('',#1007,0.00125);
#27=CYLINDRICAL_SURFACE('',#1010,0.00125);
#28=CIRCLE('',#954,0.005);
#29=CIRCLE('',#955,0.005);
#30=CIRCLE('',#956,0.005);
#31=CIRCLE('',#957,0.005);
#32=CIRCLE('',#958,0.00125);
#33=CIRCLE('',#959,0.00125);
#34=CIRCLE('',#960,0.00125);
#35=CIRCLE('',#961,0.00125);
#36=CIRCLE('',#978,0.005);
#37=CIRCLE('',#980,0.005);
#38=CIRCLE('',#982,0.005);
#39=CIRCLE('',#984,0.005);
#40=CIRCLE('',#986,0.005);
#41=CIRCLE('',#987,0.005);
#42=CIRCLE('',#989,0.005);
#43=CIRCLE('',#991,0.005);
#44=CIRCLE('',#993,0.005);
#45=CIRCLE('',#995,0.005);
#46=CIRCLE('',#997,0.005);
#47=CIRCLE('',#999,0.005);
#48=CIRCLE('',#1002,0.00125);
#49=CIRCLE('',#1005,0.00125);
#50=CIRCLE('',#1008,0.00125);
#51=CIRCLE('',#1011,0.00125);
#52=ORIENTED_EDGE('',*,*,#236,.F.);
#53=ORIENTED_EDGE('',*,*,#237,.F.);
#54=ORIENTED_EDGE('',*,*,#238,.F.);
#55=ORIENTED_EDGE('',*,*,#239,.F.);
#56=ORIENTED_EDGE('',*,*,#240,.T.);
#57=ORIENTED_EDGE('',*,*,#241,.T.);
#58=ORIENTED_EDGE('',*,*,#242,.T.);
#59=ORIENTED_EDGE('',*,*,#243,.F.);
#60=ORIENTED_EDGE('',*,*,#244,.T.);
#61=ORIENTED_EDGE('',*,*,#245,.T.);
#62=ORIENTED_EDGE('',*,*,#246,.T.);
#63=ORIENTED_EDGE('',*,*,#247,.T.);
#64=ORIENTED_EDGE('',*,*,#248,.T.);
#65=ORIENTED_EDGE('',*,*,#249,.F.);
#66=ORIENTED_EDGE('',*,*,#250,.T.);
#67=ORIENTED_EDGE('',*,*,#251,.T.);
#68=ORIENTED_EDGE('',*,*,#252,.F.);
#69=ORIENTED_EDGE('',*,*,#253,.F.);
#70=ORIENTED_EDGE('',*,*,#254,.F.);
#71=ORIENTED_EDGE('',*,*,#255,.F.);
#72=ORIENTED_EDGE('',*,*,#256,.T.);
#73=ORIENTED_EDGE('',*,*,#257,.F.);
#74=ORIENTED_EDGE('',*,*,#258,.F.);
#75=ORIENTED_EDGE('',*,*,#259,.F.);
#76=ORIENTED_EDGE('',*,*,#260,.F.);
#77=ORIENTED_EDGE('',*,*,#261,.T.);
#78=ORIENTED_EDGE('',*,*,#262,.F.);
#79=ORIENTED_EDGE('',*,*,#263,.T.);
#80=ORIENTED_EDGE('',*,*,#239,.T.);
#81=ORIENTED_EDGE('',*,*,#264,.F.);
#82=ORIENTED_EDGE('',*,*,#265,.T.);
#83=ORIENTED_EDGE('',*,*,#266,.T.);
#84=ORIENTED_EDGE('',*,*,#243,.T.);
#85=ORIENTED_EDGE('',*,*,#267,.T.);
#86=ORIENTED_EDGE('',*,*,#268,.T.);
#87=ORIENTED_EDGE('',*,*,#269,.T.);
#88=ORIENTED_EDGE('',*,*,#270,.T.);
#89=ORIENTED_EDGE('',*,*,#271,.T.);
#90=ORIENTED_EDGE('',*,*,#259,.T.);
#91=ORIENTED_EDGE('',*,*,#272,.F.);
#92=ORIENTED_EDGE('',*,*,#246,.F.);
#93=ORIENTED_EDGE('',*,*,#273,.T.);
#94=ORIENTED_EDGE('',*,*,#274,.F.);
#95=ORIENTED_EDGE('',*,*,#275,.T.);
#96=ORIENTED_EDGE('',*,*,#250,.F.);
#97=ORIENTED_EDGE('',*,*,#276,.T.);
#98=ORIENTED_EDGE('',*,*,#255,.T.);
#99=ORIENTED_EDGE('',*,*,#277,.T.);
#100=ORIENTED_EDGE('',*,*,#278,.F.);
#101=ORIENTED_EDGE('',*,*,#279,.F.);
#102=ORIENTED_EDGE('',*,*,#280,.F.);
#103=ORIENTED_EDGE('',*,*,#281,.F.);
#104=ORIENTED_EDGE('',*,*,#282,.T.);
#105=ORIENTED_EDGE('',*,*,#283,.T.);
#106=ORIENTED_EDGE('',*,*,#284,.T.);
#107=ORIENTED_EDGE('',*,*,#262,.T.);
#108=ORIENTED_EDGE('',*,*,#285,.T.);
#109=ORIENTED_EDGE('',*,*,#286,.T.);
#110=ORIENTED_EDGE('',*,*,#287,.T.);
#111=ORIENTED_EDGE('',*,*,#268,.F.);
#112=ORIENTED_EDGE('',*,*,#288,.T.);
#113=ORIENTED_EDGE('',*,*,#289,.T.);
#114=ORIENTED_EDGE('',*,*,#290,.T.);
#115=ORIENTED_EDGE('',*,*,#260,.T.);
#116=ORIENTED_EDGE('',*,*,#291,.T.);
#117=ORIENTED_EDGE('',*,*,#292,.T.);
#118=ORIENTED_EDGE('',*,*,#293,.T.);
#119=ORIENTED_EDGE('',*,*,#294,.T.);
#120=ORIENTED_EDGE('',*,*,#295,.F.);
#121=ORIENTED_EDGE('',*,*,#256,.F.);
#122=ORIENTED_EDGE('',*,*,#276,.F.);
#123=ORIENTED_EDGE('',*,*,#249,.T.);
#124=ORIENTED_EDGE('',*,*,#258,.T.);
#125=ORIENTED_EDGE('',*,*,#296,.T.);
#126=ORIENTED_EDGE('',*,*,#247,.F.);
#127=ORIENTED_EDGE('',*,*,#272,.T.);
#128=ORIENTED_EDGE('',*,*,#248,.F.);
#129=ORIENTED_EDGE('',*,*,#296,.F.);
#130=ORIENTED_EDGE('',*,*,#257,.T.);
#131=ORIENTED_EDGE('',*,*,#295,.T.);
#132=ORIENTED_EDGE('',*,*,#274,.T.);
#133=ORIENTED_EDGE('',*,*,#297,.F.);
#134=ORIENTED_EDGE('',*,*,#298,.F.);
#135=ORIENTED_EDGE('',*,*,#299,.T.);
#136=ORIENTED_EDGE('',*,*,#300,.F.);
#137=ORIENTED_EDGE('',*,*,#298,.T.);
#138=ORIENTED_EDGE('',*,*,#301,.F.);
#139=ORIENTED_EDGE('',*,*,#244,.F.);
#140=ORIENTED_EDGE('',*,*,#275,.F.);
#141=ORIENTED_EDGE('',*,*,#299,.F.);
#142=ORIENTED_EDGE('',*,*,#300,.T.);
#143=ORIENTED_EDGE('',*,*,#251,.F.);
#144=ORIENTED_EDGE('',*,*,#301,.T.);
#145=ORIENTED_EDGE('',*,*,#297,.T.);
#146=ORIENTED_EDGE('',*,*,#273,.F.);
#147=ORIENTED_EDGE('',*,*,#245,.F.);
#148=ORIENTED_EDGE('',*,*,#253,.T.);
#149=ORIENTED_EDGE('',*,*,#302,.F.);
#150=ORIENTED_EDGE('',*,*,#303,.F.);
#151=ORIENTED_EDGE('',*,*,#304,.F.);
#152=ORIENTED_EDGE('',*,*,#252,.T.);
#153=ORIENTED_EDGE('',*,*,#271,.F.);
#154=ORIENTED_EDGE('',*,*,#305,.F.);
#155=ORIENTED_EDGE('',*,*,#302,.T.);
#156=ORIENTED_EDGE('',*,*,#254,.T.);
#157=ORIENTED_EDGE('',*,*,#304,.T.);
#158=ORIENTED_EDGE('',*,*,#306,.T.);
#159=ORIENTED_EDGE('',*,*,#277,.F.);
#160=ORIENTED_EDGE('',*,*,#270,.F.);
#161=ORIENTED_EDGE('',*,*,#306,.F.);
#162=ORIENTED_EDGE('',*,*,#303,.T.);
#163=ORIENTED_EDGE('',*,*,#305,.T.);
#164=ORIENTED_EDGE('',*,*,#287,.F.);
#165=ORIENTED_EDGE('',*,*,#307,.T.);
#166=ORIENTED_EDGE('',*,*,#288,.F.);
#167=ORIENTED_EDGE('',*,*,#269,.F.);
#168=ORIENTED_EDGE('',*,*,#242,.F.);
#169=ORIENTED_EDGE('',*,*,#308,.T.);
#170=ORIENTED_EDGE('',*,*,#285,.F.);
#171=ORIENTED_EDGE('',*,*,#267,.F.);
#172=ORIENTED_EDGE('',*,*,#290,.F.);
#173=ORIENTED_EDGE('',*,*,#309,.T.);
#174=ORIENTED_EDGE('',*,*,#282,.F.);
#175=ORIENTED_EDGE('',*,*,#261,.F.);
#176=ORIENTED_EDGE('',*,*,#284,.F.);
#177=ORIENTED_EDGE('',*,*,#310,.T.);
#178=ORIENTED_EDGE('',*,*,#240,.F.);
#179=ORIENTED_EDGE('',*,*,#263,.F.);
#180=ORIENTED_EDGE('',*,*,#311,.F.);
#181=ORIENTED_EDGE('',*,*,#308,.F.);
#182=ORIENTED_EDGE('',*,*,#312,.F.);
#183=ORIENTED_EDGE('',*,*,#312,.T.);
#184=ORIENTED_EDGE('',*,*,#241,.F.);
#185=ORIENTED_EDGE('',*,*,#313,.F.);
#186=ORIENTED_EDGE('',*,*,#291,.F.);
#187=ORIENTED_EDGE('',*,*,#311,.T.);
#188=ORIENTED_EDGE('',*,*,#294,.F.);
#189=ORIENTED_EDGE('',*,*,#314,.F.);
#190=ORIENTED_EDGE('',*,*,#286,.F.);
#191=ORIENTED_EDGE('',*,*,#313,.T.);
#192=ORIENTED_EDGE('',*,*,#310,.F.);
#193=ORIENTED_EDGE('',*,*,#315,.F.);
#194=ORIENTED_EDGE('',*,*,#307,.F.);
#195=ORIENTED_EDGE('',*,*,#314,.T.);
#196=ORIENTED_EDGE('',*,*,#316,.F.);
#197=ORIENTED_EDGE('',*,*,#315,.T.);
#198=ORIENTED_EDGE('',*,*,#283,.F.);
#199=ORIENTED_EDGE('',*,*,#317,.F.);
#200=ORIENTED_EDGE('',*,*,#292,.F.);
#201=ORIENTED_EDGE('',*,*,#316,.T.);
#202=ORIENTED_EDGE('',*,*,#293,.F.);
#203=ORIENTED_EDGE('',*,*,#318,.F.);
#204=ORIENTED_EDGE('',*,*,#289,.F.);
#205=ORIENTED_EDGE('',*,*,#317,.T.);
#206=ORIENTED_EDGE('',*,*,#309,.F.);
#207=ORIENTED_EDGE('',*,*,#318,.T.);
#208=ORIENTED_EDGE('',*,*,#319,.F.);
#209=ORIENTED_EDGE('',*,*,#279,.T.);
#210=ORIENTED_EDGE('',*,*,#319,.T.);
#211=ORIENTED_EDGE('',*,*,#320,.F.);
#212=ORIENTED_EDGE('',*,*,#278,.T.);
#213=ORIENTED_EDGE('',*,*,#320,.T.);
#214=ORIENTED_EDGE('',*,*,#321,.F.);
#215=ORIENTED_EDGE('',*,*,#281,.T.);
#216=ORIENTED_EDGE('',*,*,#321,.T.);
#217=ORIENTED_EDGE('',*,*,#322,.F.);
#218=ORIENTED_EDGE('',*,*,#280,.T.);
#219=ORIENTED_EDGE('',*,*,#322,.T.);
#220=ORIENTED_EDGE('',*,*,#238,.T.);
#221=ORIENTED_EDGE('',*,*,#323,.F.);
#222=ORIENTED_EDGE('',*,*,#324,.F.);
#223=ORIENTED_EDGE('',*,*,#264,.T.);
#224=ORIENTED_EDGE('',*,*,#237,.T.);
#225=ORIENTED_EDGE('',*,*,#325,.F.);
#226=ORIENTED_EDGE('',*,*,#326,.F.);
#227=ORIENTED_EDGE('',*,*,#323,.T.);
#228=ORIENTED_EDGE('',*,*,#236,.T.);
#229=ORIENTED_EDGE('',*,*,#266,.F.);
#230=ORIENTED_EDGE('',*,*,#327,.F.);
#231=ORIENTED_EDGE('',*,*,#325,.T.);
#232=ORIENTED_EDGE('',*,*,#265,.F.);
#233=ORIENTED_EDGE('',*,*,#324,.T.);
#234=ORIENTED_EDGE('',*,*,#326,.T.);
#235=ORIENTED_EDGE('',*,*,#327,.T.);
#236=EDGE_CURVE('',#328,#329,#388,.T.);
#237=EDGE_CURVE('',#330,#328,#389,.T.);
#238=EDGE_CURVE('',#331,#330,#390,.T.);
#239=EDGE_CURVE('',#332,#331,#391,.T.);
#240=EDGE_CURVE('',#332,#333,#392,.T.);
#241=EDGE_CURVE('',#333,#334,#393,.T.);
#242=EDGE_CURVE('',#334,#335,#394,.F.);
#243=EDGE_CURVE('',#329,#335,#395,.T.);
#244=EDGE_CURVE('',#336,#337,#396,.T.);
#245=EDGE_CURVE('',#337,#338,#397,.T.);
#246=EDGE_CURVE('',#338,#339,#398,.T.);
#247=EDGE_CURVE('',#339,#340,#399,.T.);
#248=EDGE_CURVE('',#340,#341,#400,.T.);
#249=EDGE_CURVE('',#342,#341,#401,.T.);
#250=EDGE_CURVE('',#342,#343,#402,.T.);
#251=EDGE_CURVE('',#343,#336,#403,.T.);
#252=EDGE_CURVE('',#344,#345,#404,.T.);
#253=EDGE_CURVE('',#346,#344,#405,.T.);
#254=EDGE_CURVE('',#347,#346,#406,.T.);
#255=EDGE_CURVE('',#348,#347,#407,.T.);
#256=EDGE_CURVE('',#348,#349,#408,.T.);
#257=EDGE_CURVE('',#350,#349,#409,.T.);
#258=EDGE_CURVE('',#351,#350,#410,.T.);
#259=EDGE_CURVE('',#345,#351,#411,.T.);
#260=EDGE_CURVE('',#352,#353,#412,.T.);
#261=EDGE_CURVE('',#352,#354,#28,.T.);
#262=EDGE_CURVE('',#355,#354,#413,.T.);
#263=EDGE_CURVE('',#355,#332,#29,.T.);
#264=EDGE_CURVE('',#356,#331,#414,.T.);
#265=EDGE_CURVE('',#356,#357,#415,.T.);
#266=EDGE_CURVE('',#357,#329,#416,.T.);
#267=EDGE_CURVE('',#335,#358,#30,.T.);
#268=EDGE_CURVE('',#358,#359,#417,.T.);
#269=EDGE_CURVE('',#359,#353,#31,.T.);
#270=EDGE_CURVE('',#360,#361,#418,.T.);
#271=EDGE_CURVE('',#361,#345,#419,.T.);
#272=EDGE_CURVE('',#339,#351,#420,.T.);
#273=EDGE_CURVE('',#338,#362,#421,.T.);
#274=EDGE_CURVE('',#363,#362,#422,.T.);
#275=EDGE_CURVE('',#363,#343,#423,.T.);
#276=EDGE_CURVE('',#342,#348,#424,.T.);
#277=EDGE_CURVE('',#347,#360,#425,.T.);
#278=EDGE_CURVE('',#364,#364,#32,.T.);
#279=EDGE_CURVE('',#365,#365,#33,.T.);
#280=EDGE_CURVE('',#366,#366,#34,.T.);
#281=EDGE_CURVE('',#367,#367,#35,.T.);
#282=EDGE_CURVE('',#354,#368,#426,.T.);
#283=EDGE_CURVE('',#368,#369,#427,.F.);
#284=EDGE_CURVE('',#369,#355,#428,.F.);
#285=EDGE_CURVE('',#358,#370,#429,.T.);
#286=EDGE_CURVE('',#370,#371,#430,.T.);
#287=EDGE_CURVE('',#371,#359,#431,.F.);
#288=EDGE_CURVE('',#353,#372,#432,.T.);
#289=EDGE_CURVE('',#372,#373,#433,.F.);
#290=EDGE_CURVE('',#373,#352,#434,.F.);
#291=EDGE_CURVE('',#374,#375,#435,.F.);
#292=EDGE_CURVE('',#375,#376,#436,.T.);
#293=EDGE_CURVE('',#376,#377,#437,.T.);
#294=EDGE_CURVE('',#377,#374,#438,.F.);
#295=EDGE_CURVE('',#349,#341,#439,.T.);
#296=EDGE_CURVE('',#350,#340,#440,.T.);
#297=EDGE_CURVE('',#378,#362,#441,.T.);
#298=EDGE_CURVE('',#379,#378,#442,.T.);
#299=EDGE_CURVE('',#379,#363,#443,.T.);
#300=EDGE_CURVE('',#379,#336,#444,.T.);
#301=EDGE_CURVE('',#337,#378,#445,.T.);
#302=EDGE_CURVE('',#380,#344,#446,.T.);
#303=EDGE_CURVE('',#381,#380,#447,.T.);
#304=EDGE_CURVE('',#346,#381,#448,.T.);
#305=EDGE_CURVE('',#380,#361,#449,.T.);
#306=EDGE_CURVE('',#381,#360,#450,.T.);
#307=EDGE_CURVE('',#371,#372,#36,.T.);
#308=EDGE_CURVE('',#334,#370,#37,.F.);
#309=EDGE_CURVE('',#373,#368,#38,.F.);
#310=EDGE_CURVE('',#369,#333,#39,.T.);
#311=EDGE_CURVE('',#370,#374,#40,.T.);
#312=EDGE_CURVE('',#374,#334,#41,.T.);
#313=EDGE_CURVE('',#375,#333,#42,.T.);
#314=EDGE_CURVE('',#371,#377,#43,.T.);
#315=EDGE_CURVE('',#375,#369,#44,.T.);
#316=EDGE_CURVE('',#372,#377,#45,.T.);
#317=EDGE_CURVE('',#376,#368,#46,.T.);
#318=EDGE_CURVE('',#373,#376,#47,.T.);
#319=EDGE_CURVE('',#382,#382,#48,.T.);
#320=EDGE_CURVE('',#383,#383,#49,.T.);
#321=EDGE_CURVE('',#384,#384,#50,.T.);
#322=EDGE_CURVE('',#385,#385,#51,.T.);
#323=EDGE_CURVE('',#386,#330,#451,.T.);
#324=EDGE_CURVE('',#356,#386,#452,.T.);
#325=EDGE_CURVE('',#387,#328,#453,.T.);
#326=EDGE_CURVE('',#386,#387,#454,.T.);
#327=EDGE_CURVE('',#387,#357,#455,.T.);
#328=VERTEX_POINT('',#1224);
#329=VERTEX_POINT('',#1225);
#330=VERTEX_POINT('',#1227);
#331=VERTEX_POINT('',#1229);
#332=VERTEX_POINT('',#1231);
#333=VERTEX_POINT('',#1233);
#334=VERTEX_POINT('',#1235);
#335=VERTEX_POINT('',#1237);
#336=VERTEX_POINT('',#1241);
#337=VERTEX_POINT('',#1242);
#338=VERTEX_POINT('',#1244);
#339=VERTEX_POINT('',#1246);
#340=VERTEX_POINT('',#1248);
#341=VERTEX_POINT('',#1250);
#342=VERTEX_POINT('',#1252);
#343=VERTEX_POINT('',#1254);
#344=VERTEX_POINT('',#1258);
#345=VERTEX_POINT('',#1259);
#346=VERTEX_POINT('',#1261);
#347=VERTEX_POINT('',#1263);
#348=VERTEX_POINT('',#1265);
#349=VERTEX_POINT('',#1267);
#350=VERTEX_POINT('',#1269);
#351=VERTEX_POINT('',#1271);
#352=VERTEX_POINT('',#1275);
#353=VERTEX_POINT('',#1276);
#354=VERTEX_POINT('',#1278);
#355=VERTEX_POINT('',#1280);
#356=VERTEX_POINT('',#1283);
#357=VERTEX_POINT('',#1285);
#358=VERTEX_POINT('',#1288);
#359=VERTEX_POINT('',#1290);
#360=VERTEX_POINT('',#1293);
#361=VERTEX_POINT('',#1294);
#362=VERTEX_POINT('',#1298);
#363=VERTEX_POINT('',#1300);
#364=VERTEX_POINT('',#1305);
#365=VERTEX_POINT('',#1307);
#366=VERTEX_POINT('',#1309);
#367=VERTEX_POINT('',#1311);
#368=VERTEX_POINT('',#1314);
#369=VERTEX_POINT('',#1316);
#370=VERTEX_POINT('',#1320);
#371=VERTEX_POINT('',#1322);
#372=VERTEX_POINT('',#1326);
#373=VERTEX_POINT('',#1328);
#374=VERTEX_POINT('',#1332);
#375=VERTEX_POINT('',#1333);
#376=VERTEX_POINT('',#1335);
#377=VERTEX_POINT('',#1337);
#378=VERTEX_POINT('',#1346);
#379=VERTEX_POINT('',#1348);
#380=VERTEX_POINT('',#1357);
#381=VERTEX_POINT('',#1359);
#382=VERTEX_POINT('',#1392);
#383=VERTEX_POINT('',#1396);
#384=VERTEX_POINT('',#1400);
#385=VERTEX_POINT('',#1404);
#386=VERTEX_POINT('',#1408);
#387=VERTEX_POINT('',#1412);
#388=LINE('',#1223,#456);
#389=LINE('',#1226,#457);
#390=LINE('',#1228,#458);
#391=LINE('',#1230,#459);
#392=LINE('',#1232,#460);
#393=LINE('',#1234,#461);
#394=LINE('',#1236,#462);
#395=LINE('',#1238,#463);
#396=LINE('',#1240,#464);
#397=LINE('',#1243,#465);
#398=LINE('',#1245,#466);
#399=LINE('',#1247,#467);
#400=LINE('',#1249,#468);
#401=LINE('',#1251,#469);
#402=LINE('',#1253,#470);
#403=LINE('',#1255,#471);
#404=LINE('',#1257,#472);
#405=LINE('',#1260,#473);
#406=LINE('',#1262,#474);
#407=LINE('',#1264,#475);
#408=LINE('',#1266,#476);
#409=LINE('',#1268,#477);
#410=LINE('',#1270,#478);
#411=LINE('',#1272,#479);
#412=LINE('',#1274,#480);
#413=LINE('',#1279,#481);
#414=LINE('',#1282,#482);
#415=LINE('',#1284,#483);
#416=LINE('',#1286,#484);
#417=LINE('',#1289,#485);
#418=LINE('',#1292,#486);
#419=LINE('',#1295,#487);
#420=LINE('',#1296,#488);
#421=LINE('',#1297,#489);
#422=LINE('',#1299,#490);
#423=LINE('',#1301,#491);
#424=LINE('',#1302,#492);
#425=LINE('',#1303,#493);
#426=LINE('',#1313,#494);
#427=LINE('',#1315,#495);
#428=LINE('',#1317,#496);
#429=LINE('',#1319,#497);
#430=LINE('',#1321,#498);
#431=LINE('',#1323,#499);
#432=LINE('',#1325,#500);
#433=LINE('',#1327,#501);
#434=LINE('',#1329,#502);
#435=LINE('',#1331,#503);
#436=LINE('',#1334,#504);
#437=LINE('',#1336,#505);
#438=LINE('',#1338,#506);
#439=LINE('',#1340,#507);
#440=LINE('',#1342,#508);
#441=LINE('',#1345,#509);
#442=LINE('',#1347,#510);
#443=LINE('',#1349,#511);
#444=LINE('',#1351,#512);
#445=LINE('',#1352,#513);
#446=LINE('',#1356,#514);
#447=LINE('',#1358,#515);
#448=LINE('',#1360,#516);
#449=LINE('',#1362,#517);
#450=LINE('',#1364,#518);
#451=LINE('',#1407,#519);
#452=LINE('',#1409,#520);
#453=LINE('',#1411,#521);
#454=LINE('',#1413,#522);
#455=LINE('',#1415,#523);
#456=VECTOR('',#1021,1.);
#457=VECTOR('',#1022,1.);
#458=VECTOR('',#1023,1.);
#459=VECTOR('',#1024,1.);
#460=VECTOR('',#1025,1.);
#461=VECTOR('',#1026,1.);
#462=VECTOR('',#1027,1.);
#463=VECTOR('',#1028,1.);
#464=VECTOR('',#1031,1.);
#465=VECTOR('',#1032,1.);
#466=VECTOR('',#1033,1.);
#467=VECTOR('',#1034,1.);
#468=VECTOR('',#1035,1.);
#469=VECTOR('',#1036,1.);
#470=VECTOR('',#1037,1.);
#471=VECTOR('',#1038,1.);
#472=VECTOR('',#1041,1.);
#473=VECTOR('',#1042,1.);
#474=VECTOR('',#1043,1.);
#475=VECTOR('',#1044,1.);
#476=VECTOR('',#1045,1.);
#477=VECTOR('',#1046,1.);
#478=VECTOR('',#1047,1.);
#479=VECTOR('',#1048,1.);
#480=VECTOR('',#1051,1.);
#481=VECTOR('',#1054,1.);
#482=VECTOR('',#1057,1.);
#483=VECTOR('',#1058,1.);
#484=VECTOR('',#1059,1.);
#485=VECTOR('',#1062,1.);
#486=VECTOR('',#1065,1.);
#487=VECTOR('',#1066,1.);
#488=VECTOR('',#1067,1.);
#489=VECTOR('',#1068,1.);
#490=VECTOR('',#1069,1.);
#491=VECTOR('',#1070,1.);
#492=VECTOR('',#1071,1.);
#493=VECTOR('',#1072,1.);
#494=VECTOR('',#1083,1.);
#495=VECTOR('',#1084,1.);
#496=VECTOR('',#1085,1.);
#497=VECTOR('',#1088,1.);
#498=VECTOR('',#1089,1.);
#499=VECTOR('',#1090,1.);
#500=VECTOR('',#1093,1.);
#501=VECTOR('',#1094,1.);
#502=VECTOR('',#1095,1.);
#503=VECTOR('',#1098,1.);
#504=VECTOR('',#1099,1.);
#505=VECTOR('',#1100,1.);
#506=VECTOR('',#1101,1.);
#507=VECTOR('',#1104,1.);
#508=VECTOR('',#1107,1.);
#509=VECTOR('',#1112,1.);
#510=VECTOR('',#1113,1.);
#511=VECTOR('',#1114,1.);
#512=VECTOR('',#1117,1.);
#513=VECTOR('',#1118,1.);
#514=VECTOR('',#1125,1.);
#515=VECTOR('',#1126,1.);
#516=VECTOR('',#1127,1.);
#517=VECTOR('',#1130,1.);
#518=VECTOR('',#1133,1.);
#519=VECTOR('',#1210,1.);
#520=VECTOR('',#1211,1.);
#521=VECTOR('',#1214,1.);
#522=VECTOR('',#1215,1.);
#523=VECTOR('',#1218,1.);
#524=EDGE_LOOP('',(#52,#53,#54,#55,#56,#57,#58,#59));
#525=EDGE_LOOP('',(#60,#61,#62,#63,#64,#65,#66,#67));
#526=EDGE_LOOP('',(#68,#69,#70,#71,#72,#73,#74,#75));
#527=EDGE_LOOP('',(#76,#77,#78,#79,#80,#81,#82,#83,#84,#85,#86,#87));
#528=EDGE_LOOP('',(#88,#89,#90,#91,#92,#93,#94,#95,#96,#97,#98,#99));
#529=EDGE_LOOP('',(#100));
#530=EDGE_LOOP('',(#101));
#531=EDGE_LOOP('',(#102));
#532=EDGE_LOOP('',(#103));
#533=EDGE_LOOP('',(#104,#105,#106,#107));
#534=EDGE_LOOP('',(#108,#109,#110,#111));
#535=EDGE_LOOP('',(#112,#113,#114,#115));
#536=EDGE_LOOP('',(#116,#117,#118,#119));
#537=EDGE_LOOP('',(#120,#121,#122,#123));
#538=EDGE_LOOP('',(#124,#125,#126,#127));
#539=EDGE_LOOP('',(#128,#129,#130,#131));
#540=EDGE_LOOP('',(#132,#133,#134,#135));
#541=EDGE_LOOP('',(#136,#137,#138,#139));
#542=EDGE_LOOP('',(#140,#141,#142,#143));
#543=EDGE_LOOP('',(#144,#145,#146,#147));
#544=EDGE_LOOP('',(#148,#149,#150,#151));
#545=EDGE_LOOP('',(#152,#153,#154,#155));
#546=EDGE_LOOP('',(#156,#157,#158,#159));
#547=EDGE_LOOP('',(#160,#161,#162,#163));
#548=EDGE_LOOP('',(#164,#165,#166,#167));
#549=EDGE_LOOP('',(#168,#169,#170,#171));
#550=EDGE_LOOP('',(#172,#173,#174,#175));
#551=EDGE_LOOP('',(#176,#177,#178,#179));
#552=EDGE_LOOP('',(#180,#181,#182));
#553=EDGE_LOOP('',(#183,#184,#185,#186));
#554=EDGE_LOOP('',(#187,#188,#189,#190));
#555=EDGE_LOOP('',(#191,#192,#193));
#556=EDGE_LOOP('',(#194,#195,#196));
#557=EDGE_LOOP('',(#197,#198,#199,#200));
#558=EDGE_LOOP('',(#201,#202,#203,#204));
#559=EDGE_LOOP('',(#205,#206,#207));
#560=EDGE_LOOP('',(#208));
#561=EDGE_LOOP('',(#209));
#562=EDGE_LOOP('',(#210));
#563=EDGE_LOOP('',(#211));
#564=EDGE_LOOP('',(#212));
#565=EDGE_LOOP('',(#213));
#566=EDGE_LOOP('',(#214));
#567=EDGE_LOOP('',(#215));
#568=EDGE_LOOP('',(#216));
#569=EDGE_LOOP('',(#217));
#570=EDGE_LOOP('',(#218));
#571=EDGE_LOOP('',(#219));
#572=EDGE_LOOP('',(#220,#221,#222,#223));
#573=EDGE_LOOP('',(#224,#225,#226,#227));
#574=EDGE_LOOP('',(#228,#229,#230,#231));
#575=EDGE_LOOP('',(#232,#233,#234,#235));
#576=FACE_BOUND('',#524,.T.);
#577=FACE_BOUND('',#525,.T.);
#578=FACE_BOUND('',#526,.T.);
#579=FACE_BOUND('',#527,.T.);
#580=FACE_BOUND('',#528,.T.);
#581=FACE_BOUND('',#529,.T.);
#582=FACE_BOUND('',#530,.T.);
#583=FACE_BOUND('',#531,.T.);
#584=FACE_BOUND('',#532,.T.);
#585=FACE_BOUND('',#533,.T.);
#586=FACE_BOUND('',#534,.T.);
#587=FACE_BOUND('',#535,.T.);
#588=FACE_BOUND('',#536,.T.);
#589=FACE_BOUND('',#537,.T.);
#590=FACE_BOUND('',#538,.T.);
#591=FACE_BOUND('',#539,.T.);
#592=FACE_BOUND('',#540,.T.);
#593=FACE_BOUND('',#541,.T.);
#594=FACE_BOUND('',#542,.T.);
#595=FACE_BOUND('',#543,.T.);
#596=FACE_BOUND('',#544,.T.);
#597=FACE_BOUND('',#545,.T.);
#598=FACE_BOUND('',#546,.T.);
#599=FACE_BOUND('',#547,.T.);
#600=FACE_BOUND('',#548,.T.);
#601=FACE_BOUND('',#549,.T.);
#602=FACE_BOUND('',#550,.T.);
#603=FACE_BOUND('',#551,.T.);
#604=FACE_BOUND('',#552,.T.);
#605=FACE_BOUND('',#553,.T.);
#606=FACE_BOUND('',#554,.T.);
#607=FACE_BOUND('',#555,.T.);
#608=FACE_BOUND('',#556,.T.);
#609=FACE_BOUND('',#557,.T.);
#610=FACE_BOUND('',#558,.T.);
#611=FACE_BOUND('',#559,.T.);
#612=FACE_BOUND('',#560,.T.);
#613=FACE_BOUND('',#561,.T.);
#614=FACE_BOUND('',#562,.T.);
#615=FACE_BOUND('',#563,.T.);
#616=FACE_BOUND('',#564,.T.);
#617=FACE_BOUND('',#565,.T.);
#618=FACE_BOUND('',#566,.T.);
#619=FACE_BOUND('',#567,.T.);
#620=FACE_BOUND('',#568,.T.);
#621=FACE_BOUND('',#569,.T.);
#622=FACE_BOUND('',#570,.T.);
#623=FACE_BOUND('',#571,.T.);
#624=FACE_BOUND('',#572,.T.);
#625=FACE_BOUND('',#573,.T.);
#626=FACE_BOUND('',#574,.T.);
#627=FACE_BOUND('',#575,.T.);
#628=PLANE('',#950);
#629=PLANE('',#951);
#630=PLANE('',#952);
#631=PLANE('',#953);
#632=PLANE('',#962);
#633=PLANE('',#963);
#634=PLANE('',#964);
#635=PLANE('',#965);
#636=PLANE('',#966);
#637=PLANE('',#967);
#638=PLANE('',#968);
#639=PLANE('',#969);
#640=PLANE('',#970);
#641=PLANE('',#971);
#642=PLANE('',#972);
#643=PLANE('',#973);
#644=PLANE('',#974);
#645=PLANE('',#975);
#646=PLANE('',#976);
#647=PLANE('',#1003);
#648=PLANE('',#1006);
#649=PLANE('',#1009);
#650=PLANE('',#1012);
#651=PLANE('',#1013);
#652=PLANE('',#1014);
#653=PLANE('',#1015);
#654=PLANE('',#1016);
#655=OVER_RIDING_STYLED_ITEM('',(#735),#689,#733);
#656=OVER_RIDING_STYLED_ITEM('',(#736),#690,#733);
#657=OVER_RIDING_STYLED_ITEM('',(#737),#692,#733);
#658=OVER_RIDING_STYLED_ITEM('',(#738),#693,#733);
#659=OVER_RIDING_STYLED_ITEM('',(#739),#694,#733);
#660=OVER_RIDING_STYLED_ITEM('',(#740),#695,#733);
#661=OVER_RIDING_STYLED_ITEM('',(#741),#696,#733);
#662=OVER_RIDING_STYLED_ITEM('',(#742),#697,#733);
#663=OVER_RIDING_STYLED_ITEM('',(#743),#698,#733);
#664=OVER_RIDING_STYLED_ITEM('',(#744),#699,#733);
#665=OVER_RIDING_STYLED_ITEM('',(#745),#701,#733);
#666=OVER_RIDING_STYLED_ITEM('',(#746),#704,#733);
#667=OVER_RIDING_STYLED_ITEM('',(#747),#708,#733);
#668=OVER_RIDING_STYLED_ITEM('',(#748),#709,#733);
#669=OVER_RIDING_STYLED_ITEM('',(#749),#710,#733);
#670=OVER_RIDING_STYLED_ITEM('',(#750),#711,#733);
#671=OVER_RIDING_STYLED_ITEM('',(#751),#712,#733);
#672=OVER_RIDING_STYLED_ITEM('',(#752),#713,#733);
#673=OVER_RIDING_STYLED_ITEM('',(#753),#714,#733);
#674=OVER_RIDING_STYLED_ITEM('',(#754),#715,#733);
#675=OVER_RIDING_STYLED_ITEM('',(#755),#716,#733);
#676=OVER_RIDING_STYLED_ITEM('',(#756),#717,#733);
#677=OVER_RIDING_STYLED_ITEM('',(#757),#718,#733);
#678=OVER_RIDING_STYLED_ITEM('',(#758),#719,#733);
#679=OVER_RIDING_STYLED_ITEM('',(#759),#722,#733);
#680=OVER_RIDING_STYLED_ITEM('',(#760),#723,#733);
#681=OVER_RIDING_STYLED_ITEM('',(#761),#724,#733);
#682=OVER_RIDING_STYLED_ITEM('',(#762),#725,#733);
#683=OVER_RIDING_STYLED_ITEM('',(#763),#726,#733);
#684=OVER_RIDING_STYLED_ITEM('',(#764),#727,#733);
#685=OVER_RIDING_STYLED_ITEM('',(#765),#728,#733);
#686=OVER_RIDING_STYLED_ITEM('',(#766),#729,#733);
#687=OVER_RIDING_STYLED_ITEM('',(#767),#730,#733);
#688=OVER_RIDING_STYLED_ITEM('',(#768),#731,#733);
#689=ADVANCED_FACE('Face appearance 5',(#576),#628,.F.);
#690=ADVANCED_FACE('Face appearance 34',(#577),#629,.T.);
#691=ADVANCED_FACE('',(#578),#630,.F.);
#692=ADVANCED_FACE('Face appearance 32',(#579,#580,#581,#582,#583,#584),
#631,.T.);
#693=ADVANCED_FACE('Face appearance 21',(#585),#632,.T.);
#694=ADVANCED_FACE('Face appearance 5',(#586),#633,.F.);
#695=ADVANCED_FACE('Face appearance 5',(#587),#634,.T.);
#696=ADVANCED_FACE('Face appearance 28',(#588),#635,.F.);
#697=ADVANCED_FACE('Face appearance 34',(#589),#636,.F.);
#698=ADVANCED_FACE('Face appearance 35',(#590),#637,.T.);
#699=ADVANCED_FACE('Face appearance 33',(#591),#638,.T.);
#700=ADVANCED_FACE('',(#592),#639,.F.);
#701=ADVANCED_FACE('Face appearance 36',(#593),#640,.T.);
#702=ADVANCED_FACE('',(#594),#641,.T.);
#703=ADVANCED_FACE('',(#595),#642,.T.);
#704=ADVANCED_FACE('Face appearance 36',(#596),#643,.T.);
#705=ADVANCED_FACE('',(#597),#644,.T.);
#706=ADVANCED_FACE('',(#598),#645,.T.);
#707=ADVANCED_FACE('',(#599),#646,.T.);
#708=ADVANCED_FACE('Face appearance 26',(#600),#16,.T.);
#709=ADVANCED_FACE('Face appearance 24',(#601),#17,.T.);
#710=ADVANCED_FACE('Face appearance 25',(#602),#18,.T.);
#711=ADVANCED_FACE('Face appearance 27',(#603),#19,.T.);
#712=ADVANCED_FACE('Face appearance 29',(#604),#12,.T.);
#713=ADVANCED_FACE('Face appearance 29',(#605),#20,.T.);
#714=ADVANCED_FACE('Face appearance 29',(#606),#21,.T.);
#715=ADVANCED_FACE('Face appearance 29',(#607),#13,.T.);
#716=ADVANCED_FACE('Face appearance 29',(#608),#14,.T.);
#717=ADVANCED_FACE('Face appearance 29',(#609),#22,.T.);
#718=ADVANCED_FACE('Face appearance 29',(#610),#23,.T.);
#719=ADVANCED_FACE('Face appearance 29',(#611),#15,.T.);
#720=ADVANCED_FACE('',(#612,#613),#24,.T.);
#721=ADVANCED_FACE('',(#614),#647,.T.);
#722=ADVANCED_FACE('Face appearance 33',(#615,#616),#25,.T.);
#723=ADVANCED_FACE('Face appearance 33',(#617),#648,.T.);
#724=ADVANCED_FACE('Face appearance 33',(#618,#619),#26,.T.);
#725=ADVANCED_FACE('Face appearance 33',(#620),#649,.T.);
#726=ADVANCED_FACE('Face appearance 33',(#621,#622),#27,.T.);
#727=ADVANCED_FACE('Face appearance 33',(#623),#650,.T.);
#728=ADVANCED_FACE('Face appearance 32',(#624),#651,.F.);
#729=ADVANCED_FACE('Face appearance 32',(#625),#652,.F.);
#730=ADVANCED_FACE('Face appearance 32',(#626),#653,.F.);
#731=ADVANCED_FACE('Face appearance 32',(#627),#654,.T.);
#732=CLOSED_SHELL('',(#689,#690,#691,#692,#693,#694,#695,#696,#697,#698,
#699,#700,#701,#702,#703,#704,#705,#706,#707,#708,#709,#710,#711,#712,#713,
#714,#715,#716,#717,#718,#719,#720,#721,#722,#723,#724,#725,#726,#727,#728,
#729,#730,#731));
#733=STYLED_ITEM('',(#734),#946);
#734=PRESENTATION_STYLE_ASSIGNMENT((#769));
#735=PRESENTATION_STYLE_ASSIGNMENT((#770));
#736=PRESENTATION_STYLE_ASSIGNMENT((#771));
#737=PRESENTATION_STYLE_ASSIGNMENT((#772));
#738=PRESENTATION_STYLE_ASSIGNMENT((#773));
#739=PRESENTATION_STYLE_ASSIGNMENT((#774));
#740=PRESENTATION_STYLE_ASSIGNMENT((#775));
#741=PRESENTATION_STYLE_ASSIGNMENT((#776));
#742=PRESENTATION_STYLE_ASSIGNMENT((#777));
#743=PRESENTATION_STYLE_ASSIGNMENT((#778));
#744=PRESENTATION_STYLE_ASSIGNMENT((#779));
#745=PRESENTATION_STYLE_ASSIGNMENT((#780));
#746=PRESENTATION_STYLE_ASSIGNMENT((#781));
#747=PRESENTATION_STYLE_ASSIGNMENT((#782));
#748=PRESENTATION_STYLE_ASSIGNMENT((#783));
#749=PRESENTATION_STYLE_ASSIGNMENT((#784));
#750=PRESENTATION_STYLE_ASSIGNMENT((#785));
#751=PRESENTATION_STYLE_ASSIGNMENT((#786));
#752=PRESENTATION_STYLE_ASSIGNMENT((#787));
#753=PRESENTATION_STYLE_ASSIGNMENT((#788));
#754=PRESENTATION_STYLE_ASSIGNMENT((#789));
#755=PRESENTATION_STYLE_ASSIGNMENT((#790));
#756=PRESENTATION_STYLE_ASSIGNMENT((#791));
#757=PRESENTATION_STYLE_ASSIGNMENT((#792));
#758=PRESENTATION_STYLE_ASSIGNMENT((#793));
#759=PRESENTATION_STYLE_ASSIGNMENT((#794));
#760=PRESENTATION_STYLE_ASSIGNMENT((#795));
#761=PRESENTATION_STYLE_ASSIGNMENT((#796));
#762=PRESENTATION_STYLE_ASSIGNMENT((#797));
#763=PRESENTATION_STYLE_ASSIGNMENT((#798));
#764=PRESENTATION_STYLE_ASSIGNMENT((#799));
#765=PRESENTATION_STYLE_ASSIGNMENT((#800));
#766=PRESENTATION_STYLE_ASSIGNMENT((#801));
#767=PRESENTATION_STYLE_ASSIGNMENT((#802));
#768=PRESENTATION_STYLE_ASSIGNMENT((#803));
#769=SURFACE_STYLE_USAGE(.BOTH.,#804);
#770=SURFACE_STYLE_USAGE(.BOTH.,#805);
#771=SURFACE_STYLE_USAGE(.BOTH.,#806);
#772=SURFACE_STYLE_USAGE(.BOTH.,#807);
#773=SURFACE_STYLE_USAGE(.BOTH.,#808);
#774=SURFACE_STYLE_USAGE(.BOTH.,#809);
#775=SURFACE_STYLE_USAGE(.BOTH.,#810);
#776=SURFACE_STYLE_USAGE(.BOTH.,#811);
#777=SURFACE_STYLE_USAGE(.BOTH.,#812);
#778=SURFACE_STYLE_USAGE(.BOTH.,#813);
#779=SURFACE_STYLE_USAGE(.BOTH.,#814);
#780=SURFACE_STYLE_USAGE(.BOTH.,#815);
#781=SURFACE_STYLE_USAGE(.BOTH.,#816);
#782=SURFACE_STYLE_USAGE(.BOTH.,#817);
#783=SURFACE_STYLE_USAGE(.BOTH.,#818);
#784=SURFACE_STYLE_USAGE(.BOTH.,#819);
#785=SURFACE_STYLE_USAGE(.BOTH.,#820);
#786=SURFACE_STYLE_USAGE(.BOTH.,#821);
#787=SURFACE_STYLE_USAGE(.BOTH.,#822);
#788=SURFACE_STYLE_USAGE(.BOTH.,#823);
#789=SURFACE_STYLE_USAGE(.BOTH.,#824);
#790=SURFACE_STYLE_USAGE(.BOTH.,#825);
#791=SURFACE_STYLE_USAGE(.BOTH.,#826);
#792=SURFACE_STYLE_USAGE(.BOTH.,#827);
#793=SURFACE_STYLE_USAGE(.BOTH.,#828);
#794=SURFACE_STYLE_USAGE(.BOTH.,#829);
#795=SURFACE_STYLE_USAGE(.BOTH.,#830);
#796=SURFACE_STYLE_USAGE(.BOTH.,#831);
#797=SURFACE_STYLE_USAGE(.BOTH.,#832);
#798=SURFACE_STYLE_USAGE(.BOTH.,#833);
#799=SURFACE_STYLE_USAGE(.BOTH.,#834);
#800=SURFACE_STYLE_USAGE(.BOTH.,#835);
#801=SURFACE_STYLE_USAGE(.BOTH.,#836);
#802=SURFACE_STYLE_USAGE(.BOTH.,#837);
#803=SURFACE_STYLE_USAGE(.BOTH.,#838);
#804=SURFACE_SIDE_STYLE('',(#839));
#805=SURFACE_SIDE_STYLE('',(#840));
#806=SURFACE_SIDE_STYLE('',(#841));
#807=SURFACE_SIDE_STYLE('',(#842));
#808=SURFACE_SIDE_STYLE('',(#843));
#809=SURFACE_SIDE_STYLE('',(#844));
#810=SURFACE_SIDE_STYLE('',(#845));
#811=SURFACE_SIDE_STYLE('',(#846));
#812=SURFACE_SIDE_STYLE('',(#847));
#813=SURFACE_SIDE_STYLE('',(#848));
#814=SURFACE_SIDE_STYLE('',(#849));
#815=SURFACE_SIDE_STYLE('',(#850));
#816=SURFACE_SIDE_STYLE('',(#851));
#817=SURFACE_SIDE_STYLE('',(#852));
#818=SURFACE_SIDE_STYLE('',(#853));
#819=SURFACE_SIDE_STYLE('',(#854));
#820=SURFACE_SIDE_STYLE('',(#855));
#821=SURFACE_SIDE_STYLE('',(#856));
#822=SURFACE_SIDE_STYLE('',(#857));
#823=SURFACE_SIDE_STYLE('',(#858));
#824=SURFACE_SIDE_STYLE('',(#859));
#825=SURFACE_SIDE_STYLE('',(#860));
#826=SURFACE_SIDE_STYLE('',(#861));
#827=SURFACE_SIDE_STYLE('',(#862));
#828=SURFACE_SIDE_STYLE('',(#863));
#829=SURFACE_SIDE_STYLE('',(#864));
#830=SURFACE_SIDE_STYLE('',(#865));
#831=SURFACE_SIDE_STYLE('',(#866));
#832=SURFACE_SIDE_STYLE('',(#867));
#833=SURFACE_SIDE_STYLE('',(#868));
#834=SURFACE_SIDE_STYLE('',(#869));
#835=SURFACE_SIDE_STYLE('',(#870));
#836=SURFACE_SIDE_STYLE('',(#871));
#837=SURFACE_SIDE_STYLE('',(#872));
#838=SURFACE_SIDE_STYLE('',(#873));
#839=SURFACE_STYLE_FILL_AREA(#874);
#840=SURFACE_STYLE_FILL_AREA(#875);
#841=SURFACE_STYLE_FILL_AREA(#876);
#842=SURFACE_STYLE_FILL_AREA(#877);
#843=SURFACE_STYLE_FILL_AREA(#878);
#844=SURFACE_STYLE_FILL_AREA(#879);
#845=SURFACE_STYLE_FILL_AREA(#880);
#846=SURFACE_STYLE_FILL_AREA(#881);
#847=SURFACE_STYLE_FILL_AREA(#882);
#848=SURFACE_STYLE_FILL_AREA(#883);
#849=SURFACE_STYLE_FILL_AREA(#884);
#850=SURFACE_STYLE_FILL_AREA(#885);
#851=SURFACE_STYLE_FILL_AREA(#886);
#852=SURFACE_STYLE_FILL_AREA(#887);
#853=SURFACE_STYLE_FILL_AREA(#888);
#854=SURFACE_STYLE_FILL_AREA(#889);
#855=SURFACE_STYLE_FILL_AREA(#890);
#856=SURFACE_STYLE_FILL_AREA(#891);
#857=SURFACE_STYLE_FILL_AREA(#892);
#858=SURFACE_STYLE_FILL_AREA(#893);
#859=SURFACE_STYLE_FILL_AREA(#894);
#860=SURFACE_STYLE_FILL_AREA(#895);
#861=SURFACE_STYLE_FILL_AREA(#896);
#862=SURFACE_STYLE_FILL_AREA(#897);
#863=SURFACE_STYLE_FILL_AREA(#898);
#864=SURFACE_STYLE_FILL_AREA(#899);
#865=SURFACE_STYLE_FILL_AREA(#900);
#866=SURFACE_STYLE_FILL_AREA(#901);
#867=SURFACE_STYLE_FILL_AREA(#902);
#868=SURFACE_STYLE_FILL_AREA(#903);
#869=SURFACE_STYLE_FILL_AREA(#904);
#870=SURFACE_STYLE_FILL_AREA(#905);
#871=SURFACE_STYLE_FILL_AREA(#906);
#872=SURFACE_STYLE_FILL_AREA(#907);
#873=SURFACE_STYLE_FILL_AREA(#908);
#874=FILL_AREA_STYLE('',(#909));
#875=FILL_AREA_STYLE('',(#910));
#876=FILL_AREA_STYLE('',(#911));
#877=FILL_AREA_STYLE('',(#912));
#878=FILL_AREA_STYLE('',(#913));
#879=FILL_AREA_STYLE('',(#914));
#880=FILL_AREA_STYLE('',(#915));
#881=FILL_AREA_STYLE('',(#916));
#882=FILL_AREA_STYLE('',(#917));
#883=FILL_AREA_STYLE('',(#918));
#884=FILL_AREA_STYLE('',(#919));
#885=FILL_AREA_STYLE('',(#920));
#886=FILL_AREA_STYLE('',(#921));
#887=FILL_AREA_STYLE('',(#922));
#888=FILL_AREA_STYLE('',(#923));
#889=FILL_AREA_STYLE('',(#924));
#890=FILL_AREA_STYLE('',(#925));
#891=FILL_AREA_STYLE('',(#926));
#892=FILL_AREA_STYLE('',(#927));
#893=FILL_AREA_STYLE('',(#928));
#894=FILL_AREA_STYLE('',(#929));
#895=FILL_AREA_STYLE('',(#930));
#896=FILL_AREA_STYLE('',(#931));
#897=FILL_AREA_STYLE('',(#932));
#898=FILL_AREA_STYLE('',(#933));
#899=FILL_AREA_STYLE('',(#934));
#900=FILL_AREA_STYLE('',(#935));
#901=FILL_AREA_STYLE('',(#936));
#902=FILL_AREA_STYLE('',(#937));
#903=FILL_AREA_STYLE('',(#938));
#904=FILL_AREA_STYLE('',(#939));
#905=FILL_AREA_STYLE('',(#940));
#906=FILL_AREA_STYLE('',(#941));
#907=FILL_AREA_STYLE('',(#942));
#908=FILL_AREA_STYLE('',(#943));
#909=FILL_AREA_STYLE_COLOUR('',#944);
#910=FILL_AREA_STYLE_COLOUR('',#945);
#911=FILL_AREA_STYLE_COLOUR('',#945);
#912=FILL_AREA_STYLE_COLOUR('',#945);
#913=FILL_AREA_STYLE_COLOUR('',#945);
#914=FILL_AREA_STYLE_COLOUR('',#945);
#915=FILL_AREA_STYLE_COLOUR('',#945);
#916=FILL_AREA_STYLE_COLOUR('',#945);
#917=FILL_AREA_STYLE_COLOUR('',#945);
#918=FILL_AREA_STYLE_COLOUR('',#945);
#919=FILL_AREA_STYLE_COLOUR('',#945);
#920=FILL_AREA_STYLE_COLOUR('',#945);
#921=FILL_AREA_STYLE_COLOUR('',#945);
#922=FILL_AREA_STYLE_COLOUR('',#945);
#923=FILL_AREA_STYLE_COLOUR('',#945);
#924=FILL_AREA_STYLE_COLOUR('',#945);
#925=FILL_AREA_STYLE_COLOUR('',#945);
#926=FILL_AREA_STYLE_COLOUR('',#945);
#927=FILL_AREA_STYLE_COLOUR('',#945);
#928=FILL_AREA_STYLE_COLOUR('',#945);
#929=FILL_AREA_STYLE_COLOUR('',#945);
#930=FILL_AREA_STYLE_COLOUR('',#945);
#931=FILL_AREA_STYLE_COLOUR('',#945);
#932=FILL_AREA_STYLE_COLOUR('',#945);
#933=FILL_AREA_STYLE_COLOUR('',#945);
#934=FILL_AREA_STYLE_COLOUR('',#945);
#935=FILL_AREA_STYLE_COLOUR('',#945);
#936=FILL_AREA_STYLE_COLOUR('',#945);
#937=FILL_AREA_STYLE_COLOUR('',#945);
#938=FILL_AREA_STYLE_COLOUR('',#945);
#939=FILL_AREA_STYLE_COLOUR('',#945);
#940=FILL_AREA_STYLE_COLOUR('',#945);
#941=FILL_AREA_STYLE_COLOUR('',#945);
#942=FILL_AREA_STYLE_COLOUR('',#945);
#943=FILL_AREA_STYLE_COLOUR('',#945);
#944=COLOUR_RGB('',0.647058823529412,0.647058823529412,0.647058823529412);
#945=COLOUR_RGB('',0.901960784313726,0.901960784313726,0.901960784313726);
#946=MANIFOLD_SOLID_BREP('Part 497',#732);
#947=SHAPE_DEFINITION_REPRESENTATION(#1423,#948);
#948=SHAPE_REPRESENTATION('Part 497',(#949),#1418);
#949=AXIS2_PLACEMENT_3D('',#1221,#1017,#1018);
#950=AXIS2_PLACEMENT_3D('',#1222,#1019,#1020);
#951=AXIS2_PLACEMENT_3D('',#1239,#1029,#1030);
#952=AXIS2_PLACEMENT_3D('',#1256,#1039,#1040);
#953=AXIS2_PLACEMENT_3D('',#1273,#1049,#1050);
#954=AXIS2_PLACEMENT_3D('',#1277,#1052,#1053);
#955=AXIS2_PLACEMENT_3D('',#1281,#1055,#1056);
#956=AXIS2_PLACEMENT_3D('',#1287,#1060,#1061);
#957=AXIS2_PLACEMENT_3D('',#1291,#1063,#1064);
#958=AXIS2_PLACEMENT_3D('',#1304,#1073,#1074);
#959=AXIS2_PLACEMENT_3D('',#1306,#1075,#1076);
#960=AXIS2_PLACEMENT_3D('',#1308,#1077,#1078);
#961=AXIS2_PLACEMENT_3D('',#1310,#1079,#1080);
#962=AXIS2_PLACEMENT_3D('',#1312,#1081,#1082);
#963=AXIS2_PLACEMENT_3D('',#1318,#1086,#1087);
#964=AXIS2_PLACEMENT_3D('',#1324,#1091,#1092);
#965=AXIS2_PLACEMENT_3D('',#1330,#1096,#1097);
#966=AXIS2_PLACEMENT_3D('',#1339,#1102,#1103);
#967=AXIS2_PLACEMENT_3D('',#1341,#1105,#1106);
#968=AXIS2_PLACEMENT_3D('',#1343,#1108,#1109);
#969=AXIS2_PLACEMENT_3D('',#1344,#1110,#1111);
#970=AXIS2_PLACEMENT_3D('',#1350,#1115,#1116);
#971=AXIS2_PLACEMENT_3D('',#1353,#1119,#1120);
#972=AXIS2_PLACEMENT_3D('',#1354,#1121,#1122);
#973=AXIS2_PLACEMENT_3D('',#1355,#1123,#1124);
#974=AXIS2_PLACEMENT_3D('',#1361,#1128,#1129);
#975=AXIS2_PLACEMENT_3D('',#1363,#1131,#1132);
#976=AXIS2_PLACEMENT_3D('',#1365,#1134,#1135);
#977=AXIS2_PLACEMENT_3D('',#1366,#1136,#1137);
#978=AXIS2_PLACEMENT_3D('',#1367,#1138,#1139);
#979=AXIS2_PLACEMENT_3D('',#1368,#1140,#1141);
#980=AXIS2_PLACEMENT_3D('',#1369,#1142,#1143);
#981=AXIS2_PLACEMENT_3D('',#1370,#1144,#1145);
#982=AXIS2_PLACEMENT_3D('',#1371,#1146,#1147);
#983=AXIS2_PLACEMENT_3D('',#1372,#1148,#1149);
#984=AXIS2_PLACEMENT_3D('',#1373,#1150,#1151);
#985=AXIS2_PLACEMENT_3D('',#1374,#1152,#1153);
#986=AXIS2_PLACEMENT_3D('',#1375,#1154,#1155);
#987=AXIS2_PLACEMENT_3D('',#1376,#1156,#1157);
#988=AXIS2_PLACEMENT_3D('',#1377,#1158,#1159);
#989=AXIS2_PLACEMENT_3D('',#1378,#1160,#1161);
#990=AXIS2_PLACEMENT_3D('',#1379,#1162,#1163);
#991=AXIS2_PLACEMENT_3D('',#1380,#1164,#1165);
#992=AXIS2_PLACEMENT_3D('',#1381,#1166,#1167);
#993=AXIS2_PLACEMENT_3D('',#1382,#1168,#1169);
#994=AXIS2_PLACEMENT_3D('',#1383,#1170,#1171);
#995=AXIS2_PLACEMENT_3D('',#1384,#1172,#1173);
#996=AXIS2_PLACEMENT_3D('',#1385,#1174,#1175);
#997=AXIS2_PLACEMENT_3D('',#1386,#1176,#1177);
#998=AXIS2_PLACEMENT_3D('',#1387,#1178,#1179);
#999=AXIS2_PLACEMENT_3D('',#1388,#1180,#1181);
#1000=AXIS2_PLACEMENT_3D('',#1389,#1182,#1183);
#1001=AXIS2_PLACEMENT_3D('',#1390,#1184,#1185);
#1002=AXIS2_PLACEMENT_3D('',#1391,#1186,#1187);
#1003=AXIS2_PLACEMENT_3D('',#1393,#1188,#1189);
#1004=AXIS2_PLACEMENT_3D('',#1394,#1190,#1191);
#1005=AXIS2_PLACEMENT_3D('',#1395,#1192,#1193);
#1006=AXIS2_PLACEMENT_3D('',#1397,#1194,#1195);
#1007=AXIS2_PLACEMENT_3D('',#1398,#1196,#1197);
#1008=AXIS2_PLACEMENT_3D('',#1399,#1198,#1199);
#1009=AXIS2_PLACEMENT_3D('',#1401,#1200,#1201);
#1010=AXIS2_PLACEMENT_3D('',#1402,#1202,#1203);
#1011=AXIS2_PLACEMENT_3D('',#1403,#1204,#1205);
#1012=AXIS2_PLACEMENT_3D('',#1405,#1206,#1207);
#1013=AXIS2_PLACEMENT_3D('',#1406,#1208,#1209);
#1014=AXIS2_PLACEMENT_3D('',#1410,#1212,#1213);
#1015=AXIS2_PLACEMENT_3D('',#1414,#1216,#1217);
#1016=AXIS2_PLACEMENT_3D('',#1416,#1219,#1220);
#1017=DIRECTION('',(0.,0.,1.));
#1018=DIRECTION('',(1.,0.,0.));
#1019=DIRECTION('',(7.66728608166545E-17,-1.,0.));
#1020=DIRECTION('',(1.,7.66728608166545E-17,0.));
#1021=DIRECTION('',(3.46944695195361E-15,2.66012423257905E-31,1.));
#1022=DIRECTION('',(-1.,-7.66728608166545E-17,0.));
#1023=DIRECTION('',(0.,0.,-1.));
#1024=DIRECTION('',(-1.,-7.66728608166545E-17,0.));
#1025=DIRECTION('',(0.,0.,-1.));
#1026=DIRECTION('',(-1.,-7.66728608166545E-17,0.));
#1027=DIRECTION('',(0.,0.,-1.));
#1028=DIRECTION('',(-1.,-7.66728608166545E-17,0.));
#1029=DIRECTION('',(0.,-1.,0.));
#1030=DIRECTION('',(0.,0.,-1.));
#1031=DIRECTION('',(-1.,0.,0.));
#1032=DIRECTION('',(0.,0.,1.));
#1033=DIRECTION('',(-1.,0.,0.));
#1034=DIRECTION('',(0.,0.,-1.));
#1035=DIRECTION('',(1.,0.,0.));
#1036=DIRECTION('',(0.,0.,-1.));
#1037=DIRECTION('',(-1.,0.,0.));
#1038=DIRECTION('',(0.,0.,-1.));
#1039=DIRECTION('',(0.,-1.,0.));
#1040=DIRECTION('',(0.,0.,-1.));
#1041=DIRECTION('',(0.,0.,1.));
#1042=DIRECTION('',(-1.,0.,0.));
#1043=DIRECTION('',(0.,0.,-1.));
#1044=DIRECTION('',(-1.,0.,0.));
#1045=DIRECTION('',(0.,0.,-1.));
#1046=DIRECTION('',(1.,0.,0.));
#1047=DIRECTION('',(0.,0.,-1.));
#1048=DIRECTION('',(-1.,0.,0.));
#1049=DIRECTION('',(0.,0.,1.));
#1050=DIRECTION('',(1.,0.,0.));
#1051=DIRECTION('',(-1.,-1.53345721633309E-16,0.));
#1052=DIRECTION('',(0.,0.,1.));
#1053=DIRECTION('',(1.,0.,0.));
#1054=DIRECTION('',(9.25185853854297E-17,-1.,0.));
#1055=DIRECTION('',(0.,0.,1.));
#1056=DIRECTION('',(1.,0.,0.));
#1057=DIRECTION('',(7.66728608166545E-17,-1.,0.));
#1058=DIRECTION('',(-1.,-7.66728608166545E-17,0.));
#1059=DIRECTION('',(7.66728608166545E-17,-1.,0.));
#1060=DIRECTION('',(0.,0.,1.));
#1061=DIRECTION('',(1.,0.,0.));
#1062=DIRECTION('',(9.25185853854297E-17,-1.,0.));
#1063=DIRECTION('',(0.,0.,1.));
#1064=DIRECTION('',(1.,0.,0.));
#1065=DIRECTION('',(-1.,0.,0.));
#1066=DIRECTION('',(0.,1.,0.));
#1067=DIRECTION('',(0.,-1.,0.));
#1068=DIRECTION('',(0.,1.,0.));
#1069=DIRECTION('',(-1.,0.,0.));
#1070=DIRECTION('',(0.,-1.,0.));
#1071=DIRECTION('',(0.,-1.,0.));
#1072=DIRECTION('',(0.,-1.,0.));
#1073=DIRECTION('',(0.,0.,1.));
#1074=DIRECTION('',(1.,0.,0.));
#1075=DIRECTION('',(0.,0.,1.));
#1076=DIRECTION('',(1.,0.,0.));
#1077=DIRECTION('',(0.,0.,1.));
#1078=DIRECTION('',(1.,0.,0.));
#1079=DIRECTION('',(0.,0.,1.));
#1080=DIRECTION('',(1.,0.,0.));
#1081=DIRECTION('',(1.,9.25185853854297E-17,0.));
#1082=DIRECTION('',(-9.25185853854297E-17,1.,0.));
#1083=DIRECTION('',(0.,0.,-1.));
#1084=DIRECTION('',(9.25185853854297E-17,-1.,0.));
#1085=DIRECTION('',(0.,0.,-1.));
#1086=DIRECTION('',(1.,9.25185853854297E-17,0.));
#1087=DIRECTION('',(-9.25185853854297E-17,1.,0.));
#1088=DIRECTION('',(0.,0.,-1.));
#1089=DIRECTION('',(9.25185853854297E-17,-1.,0.));
#1090=DIRECTION('',(0.,0.,-1.));
#1091=DIRECTION('',(1.53345721633309E-16,-1.,0.));
#1092=DIRECTION('',(1.,1.53345721633309E-16,0.));
#1093=DIRECTION('',(0.,0.,-1.));
#1094=DIRECTION('',(-1.,-1.53345721633309E-16,0.));
#1095=DIRECTION('',(0.,0.,-1.));
#1096=DIRECTION('',(0.,0.,1.));
#1097=DIRECTION('',(1.,0.,0.));
#1098=DIRECTION('',(-1.,-7.66728608166545E-17,0.));
#1099=DIRECTION('',(9.25185853854297E-17,-1.,0.));
#1100=DIRECTION('',(-1.,-1.53345721633309E-16,0.));
#1101=DIRECTION('',(9.25185853854297E-17,-1.,0.));
#1102=DIRECTION('',(1.,0.,0.));
#1103=DIRECTION('',(0.,0.,-1.));
#1104=DIRECTION('',(0.,1.,0.));
#1105=DIRECTION('',(1.,0.,0.));
#1106=DIRECTION('',(0.,0.,-1.));
#1107=DIRECTION('',(0.,1.,0.));
#1108=DIRECTION('',(0.,0.,1.));
#1109=DIRECTION('',(1.,0.,0.));
#1110=DIRECTION('',(0.,1.,0.));
#1111=DIRECTION('',(0.,0.,1.));
#1112=DIRECTION('',(0.,0.,1.));
#1113=DIRECTION('',(-1.,0.,0.));
#1114=DIRECTION('',(0.,0.,1.));
#1115=DIRECTION('',(0.,0.,1.));
#1116=DIRECTION('',(1.,0.,0.));
#1117=DIRECTION('',(0.,-1.,0.));
#1118=DIRECTION('',(0.,1.,0.));
#1119=DIRECTION('',(-1.,0.,0.));
#1120=DIRECTION('',(0.,0.,1.));
#1121=DIRECTION('',(1.,0.,0.));
#1122=DIRECTION('',(0.,0.,-1.));
#1123=DIRECTION('',(0.,0.,1.));
#1124=DIRECTION('',(1.,0.,0.));
#1125=DIRECTION('',(0.,1.,0.));
#1126=DIRECTION('',(-1.,0.,0.));
#1127=DIRECTION('',(0.,-1.,0.));
#1128=DIRECTION('',(1.,0.,0.));
#1129=DIRECTION('',(0.,0.,-1.));
#1130=DIRECTION('',(0.,0.,1.));
#1131=DIRECTION('',(-1.,0.,0.));
#1132=DIRECTION('',(0.,0.,1.));
#1133=DIRECTION('',(0.,0.,1.));
#1134=DIRECTION('',(0.,1.,0.));
#1135=DIRECTION('',(0.,0.,1.));
#1136=DIRECTION('',(0.,0.,1.));
#1137=DIRECTION('',(1.,0.,0.));
#1138=DIRECTION('',(0.,0.,1.));
#1139=DIRECTION('',(1.,0.,0.));
#1140=DIRECTION('',(0.,0.,-1.));
#1141=DIRECTION('',(-1.,0.,0.));
#1142=DIRECTION('',(0.,0.,-1.));
#1143=DIRECTION('',(-1.,0.,0.));
#1144=DIRECTION('',(0.,0.,-1.));
#1145=DIRECTION('',(-1.,0.,0.));
#1146=DIRECTION('',(0.,0.,-1.));
#1147=DIRECTION('',(-1.,0.,0.));
#1148=DIRECTION('',(0.,0.,1.));
#1149=DIRECTION('',(1.,0.,0.));
#1150=DIRECTION('',(0.,0.,1.));
#1151=DIRECTION('',(1.,0.,0.));
#1152=DIRECTION('',(0.,0.,1.));
#1153=DIRECTION('',(1.,0.,0.));
#1154=DIRECTION('',(0.,-1.,0.));
#1155=DIRECTION('',(0.,0.,-1.));
#1156=DIRECTION('',(1.,0.,0.));
#1157=DIRECTION('',(0.,0.,-1.));
#1158=DIRECTION('',(-1.,-7.66728608166545E-17,0.));
#1159=DIRECTION('',(7.66728608166545E-17,-1.,0.));
#1160=DIRECTION('',(1.,0.,0.));
#1161=DIRECTION('',(0.,0.,-1.));
#1162=DIRECTION('',(9.25185853854297E-17,-1.,0.));
#1163=DIRECTION('',(1.,9.25185853854297E-17,0.));
#1164=DIRECTION('',(0.,-1.,0.));
#1165=DIRECTION('',(0.,0.,-1.));
#1166=DIRECTION('',(0.,0.,1.));
#1167=DIRECTION('',(1.,0.,0.));
#1168=DIRECTION('',(0.,-1.,0.));
#1169=DIRECTION('',(0.,0.,-1.));
#1170=DIRECTION('',(0.,0.,1.));
#1171=DIRECTION('',(1.,0.,0.));
#1172=DIRECTION('',(1.,0.,0.));
#1173=DIRECTION('',(0.,0.,-1.));
#1174=DIRECTION('',(-9.25185853854297E-17,1.,0.));
#1175=DIRECTION('',(-1.,-9.25185853854297E-17,0.));
#1176=DIRECTION('',(0.,-1.,0.));
#1177=DIRECTION('',(0.,0.,-1.));
#1178=DIRECTION('',(1.,1.53345721633309E-16,0.));
#1179=DIRECTION('',(-1.53345721633309E-16,1.,0.));
#1180=DIRECTION('',(1.,0.,0.));
#1181=DIRECTION('',(0.,0.,-1.));
#1182=DIRECTION('',(0.,0.,1.));
#1183=DIRECTION('',(1.,0.,0.));
#1184=DIRECTION('',(0.,0.,-1.));
#1185=DIRECTION('',(-1.,0.,0.));
#1186=DIRECTION('',(0.,0.,1.));
#1187=DIRECTION('',(1.,0.,0.));
#1188=DIRECTION('',(0.,0.,1.));
#1189=DIRECTION('',(1.,0.,0.));
#1190=DIRECTION('',(0.,0.,-1.));
#1191=DIRECTION('',(-1.,0.,0.));
#1192=DIRECTION('',(0.,0.,1.));
#1193=DIRECTION('',(1.,0.,0.));
#1194=DIRECTION('',(0.,0.,1.));
#1195=DIRECTION('',(1.,0.,0.));
#1196=DIRECTION('',(0.,0.,-1.));
#1197=DIRECTION('',(-1.,0.,0.));
#1198=DIRECTION('',(0.,0.,1.));
#1199=DIRECTION('',(1.,0.,0.));
#1200=DIRECTION('',(0.,0.,1.));
#1201=DIRECTION('',(1.,0.,0.));
#1202=DIRECTION('',(0.,0.,-1.));
#1203=DIRECTION('',(-1.,0.,0.));
#1204=DIRECTION('',(0.,0.,1.));
#1205=DIRECTION('',(1.,0.,0.));
#1206=DIRECTION('',(0.,0.,1.));
#1207=DIRECTION('',(1.,0.,0.));
#1208=DIRECTION('',(-1.,-7.66728608166545E-17,0.));
#1209=DIRECTION('',(7.66728608166545E-17,-1.,0.));
#1210=DIRECTION('',(7.66728608166545E-17,-1.,0.));
#1211=DIRECTION('',(0.,0.,-1.));
#1212=DIRECTION('',(0.,0.,1.));
#1213=DIRECTION('',(1.,0.,0.));
#1214=DIRECTION('',(7.66728608166545E-17,-1.,0.));
#1215=DIRECTION('',(-1.,-7.66728608166545E-17,0.));
#1216=DIRECTION('',(1.,7.66728608166545E-17,-3.46944695195361E-15));
#1217=DIRECTION('',(-3.46944695195361E-15,0.,-1.));
#1218=DIRECTION('',(3.46944695195361E-15,2.66012423257905E-31,1.));
#1219=DIRECTION('',(-7.66728608166545E-17,1.,0.));
#1220=DIRECTION('',(-1.,-7.66728608166545E-17,0.));
#1221=CARTESIAN_POINT('',(0.,0.,0.));
#1222=CARTESIAN_POINT('',(0.,0.075,0.003));
#1223=CARTESIAN_POINT('',(-0.00565736330436353,0.075,0.01275));
#1224=CARTESIAN_POINT('',(-0.00565736330436354,0.075,0.0125));
#1225=CARTESIAN_POINT('',(-0.00565736330436353,0.075,0.013));
#1226=CARTESIAN_POINT('',(0.00134263669563647,0.075,0.0125));
#1227=CARTESIAN_POINT('',(0.00834263669563647,0.075,0.0125));
#1228=CARTESIAN_POINT('',(0.00834263669563647,0.075,0.01275));
#1229=CARTESIAN_POINT('',(0.00834263669563647,0.075,0.013));
#1230=CARTESIAN_POINT('',(0.,0.075,0.013));
#1231=CARTESIAN_POINT('',(0.0855,0.075,0.013));
#1232=CARTESIAN_POINT('',(0.0855,0.075,0.));
#1233=CARTESIAN_POINT('',(0.0855,0.075,0.005));
#1234=CARTESIAN_POINT('',(0.,0.075,0.005));
#1235=CARTESIAN_POINT('',(-0.0855,0.075,0.005));
#1236=CARTESIAN_POINT('',(-0.0855,0.075,0.003));
#1237=CARTESIAN_POINT('',(-0.0855,0.075,0.013));
#1238=CARTESIAN_POINT('',(0.,0.075,0.013));
#1239=CARTESIAN_POINT('',(0.,0.065,0.013));
#1240=CARTESIAN_POINT('',(0.,0.065,0.011));
#1241=CARTESIAN_POINT('',(0.0609166150547005,0.065,0.011));
#1242=CARTESIAN_POINT('',(-0.0590833849452995,0.065,0.011));
#1243=CARTESIAN_POINT('',(-0.0590833849452995,0.065,0.013));
#1244=CARTESIAN_POINT('',(-0.0590833849452995,0.065,0.013));
#1245=CARTESIAN_POINT('',(0.,0.065,0.013));
#1246=CARTESIAN_POINT('',(-0.0805,0.065,0.013));
#1247=CARTESIAN_POINT('',(-0.0805,0.065,0.013));
#1248=CARTESIAN_POINT('',(-0.0805,0.065,0.003));
#1249=CARTESIAN_POINT('',(0.,0.065,0.003));
#1250=CARTESIAN_POINT('',(0.0805,0.065,0.003));
#1251=CARTESIAN_POINT('',(0.0805,0.065,0.013));
#1252=CARTESIAN_POINT('',(0.0805,0.065,0.013));
#1253=CARTESIAN_POINT('',(0.,0.065,0.013));
#1254=CARTESIAN_POINT('',(0.0609166150547005,0.065,0.013));
#1255=CARTESIAN_POINT('',(0.0609166150547005,0.065,0.013));
#1256=CARTESIAN_POINT('',(0.,-0.065,0.013));
#1257=CARTESIAN_POINT('',(-0.0590833849452995,-0.065,0.013));
#1258=CARTESIAN_POINT('',(-0.0590833849452995,-0.065,0.011));
#1259=CARTESIAN_POINT('',(-0.0590833849452995,-0.065,0.013));
#1260=CARTESIAN_POINT('',(0.,-0.065,0.011));
#1261=CARTESIAN_POINT('',(0.0609166150547005,-0.065,0.011));
#1262=CARTESIAN_POINT('',(0.0609166150547005,-0.065,0.013));
#1263=CARTESIAN_POINT('',(0.0609166150547005,-0.065,0.013));
#1264=CARTESIAN_POINT('',(0.,-0.065,0.013));
#1265=CARTESIAN_POINT('',(0.0805,-0.065,0.013));
#1266=CARTESIAN_POINT('',(0.0805,-0.065,0.013));
#1267=CARTESIAN_POINT('',(0.0805,-0.065,0.003));
#1268=CARTESIAN_POINT('',(0.,-0.065,0.003));
#1269=CARTESIAN_POINT('',(-0.0805,-0.065,0.003));
#1270=CARTESIAN_POINT('',(-0.0805,-0.065,0.013));
#1271=CARTESIAN_POINT('',(-0.0805,-0.065,0.013));
#1272=CARTESIAN_POINT('',(0.,-0.065,0.013));
#1273=CARTESIAN_POINT('',(0.,0.,0.013));
#1274=CARTESIAN_POINT('',(0.,-0.075,0.013));
#1275=CARTESIAN_POINT('',(0.0855,-0.075,0.013));
#1276=CARTESIAN_POINT('',(-0.0855,-0.075,0.013));
#1277=CARTESIAN_POINT('',(0.0855,-0.07,0.013));
#1278=CARTESIAN_POINT('',(0.0905,-0.07,0.013));
#1279=CARTESIAN_POINT('',(0.0905,1.38777878078145E-17,0.013));
#1280=CARTESIAN_POINT('',(0.0905,0.07,0.013));
#1281=CARTESIAN_POINT('',(0.0855,0.07,0.013));
#1282=CARTESIAN_POINT('',(0.00834263669563647,0.077,0.013));
#1283=CARTESIAN_POINT('',(0.00834263669563647,0.077,0.013));
#1284=CARTESIAN_POINT('',(-1.53345721633309E-19,0.077,0.013));
#1285=CARTESIAN_POINT('',(-0.00565736330436353,0.077,0.013));
#1286=CARTESIAN_POINT('',(-0.00565736330436353,0.077,0.013));
#1287=CARTESIAN_POINT('',(-0.0855,0.07,0.013));
#1288=CARTESIAN_POINT('',(-0.0905,0.07,0.013));
#1289=CARTESIAN_POINT('',(-0.0905,-1.38777878078145E-17,0.013));
#1290=CARTESIAN_POINT('',(-0.0905,-0.07,0.013));
#1291=CARTESIAN_POINT('',(-0.0855,-0.07,0.013));
#1292=CARTESIAN_POINT('',(0.00091661505470049,-0.0715235898165436,0.013));
#1293=CARTESIAN_POINT('',(0.0609166150547005,-0.0715235898165436,0.013));
#1294=CARTESIAN_POINT('',(-0.0590833849452995,-0.0715235898165436,0.013));
#1295=CARTESIAN_POINT('',(-0.0590833849452995,-0.0682617949082718,0.013));
#1296=CARTESIAN_POINT('',(-0.0805,0.,0.013));
#1297=CARTESIAN_POINT('',(-0.0590833849452995,-0.0682617949082718,0.013));
#1298=CARTESIAN_POINT('',(-0.0590833849452995,0.0715235898165436,0.013));
#1299=CARTESIAN_POINT('',(0.00091661505470049,0.0715235898165436,0.013));
#1300=CARTESIAN_POINT('',(0.0609166150547005,0.0715235898165436,0.013));
#1301=CARTESIAN_POINT('',(0.0609166150547005,-0.0682617949082718,0.013));
#1302=CARTESIAN_POINT('',(0.0805,0.,0.013));
#1303=CARTESIAN_POINT('',(0.0609166150547005,-0.0682617949082718,0.013));
#1304=CARTESIAN_POINT('',(-0.0855,-0.07,0.013));
#1305=CARTESIAN_POINT('',(-0.08425,-0.07,0.013));
#1306=CARTESIAN_POINT('',(-0.0855,0.07,0.013));
#1307=CARTESIAN_POINT('',(-0.08425,0.07,0.013));
#1308=CARTESIAN_POINT('',(0.0855,0.07,0.013));
#1309=CARTESIAN_POINT('',(0.08675,0.07,0.013));
#1310=CARTESIAN_POINT('',(0.0855,-0.07,0.013));
#1311=CARTESIAN_POINT('',(0.08675,-0.07,0.013));
#1312=CARTESIAN_POINT('',(0.0905,1.38777878078145E-17,0.003));
#1313=CARTESIAN_POINT('',(0.0905,-0.07,0.003));
#1314=CARTESIAN_POINT('',(0.0905,-0.07,0.005));
#1315=CARTESIAN_POINT('',(0.0905,0.07,0.005));
#1316=CARTESIAN_POINT('',(0.0905,0.07,0.005));
#1317=CARTESIAN_POINT('',(0.0905,0.07,0.013));
#1318=CARTESIAN_POINT('',(-0.0905,-1.38777878078145E-17,0.003));
#1319=CARTESIAN_POINT('',(-0.0905,0.07,0.003));
#1320=CARTESIAN_POINT('',(-0.0905,0.07,0.005));
#1321=CARTESIAN_POINT('',(-0.0905,-1.38777878078145E-17,0.005));
#1322=CARTESIAN_POINT('',(-0.0905,-0.07,0.005));
#1323=CARTESIAN_POINT('',(-0.0905,-0.07,0.013));
#1324=CARTESIAN_POINT('',(0.,-0.075,0.003));
#1325=CARTESIAN_POINT('',(-0.0855,-0.075,0.));
#1326=CARTESIAN_POINT('',(-0.0855,-0.075,0.005));
#1327=CARTESIAN_POINT('',(0.0855,-0.075,0.005));
#1328=CARTESIAN_POINT('',(0.0855,-0.075,0.005));
#1329=CARTESIAN_POINT('',(0.0855,-0.075,0.003));
#1330=CARTESIAN_POINT('',(0.,0.,0.));
#1331=CARTESIAN_POINT('',(-5.36710025716581E-18,0.07,0.));
#1332=CARTESIAN_POINT('',(-0.0855,0.07,0.));
#1333=CARTESIAN_POINT('',(0.0855,0.07,0.));
#1334=CARTESIAN_POINT('',(0.0855,-0.07,0.));
#1335=CARTESIAN_POINT('',(0.0855,-0.07,0.));
#1336=CARTESIAN_POINT('',(-0.0855,-0.07,0.));
#1337=CARTESIAN_POINT('',(-0.0855,-0.07,0.));
#1338=CARTESIAN_POINT('',(-0.0855,-7.91033905045424E-18,0.));
#1339=CARTESIAN_POINT('',(0.0805,0.,0.013));
#1340=CARTESIAN_POINT('',(0.0805,0.,0.003));
#1341=CARTESIAN_POINT('',(-0.0805,0.,0.013));
#1342=CARTESIAN_POINT('',(-0.0805,0.,0.003));
#1343=CARTESIAN_POINT('',(0.,0.,0.003));
#1344=CARTESIAN_POINT('',(0.00091661505470049,0.0715235898165436,0.011));
#1345=CARTESIAN_POINT('',(-0.0590833849452995,0.0715235898165436,0.011));
#1346=CARTESIAN_POINT('',(-0.0590833849452995,0.0715235898165436,0.011));
#1347=CARTESIAN_POINT('',(0.00091661505470049,0.0715235898165436,0.011));
#1348=CARTESIAN_POINT('',(0.0609166150547005,0.0715235898165436,0.011));
#1349=CARTESIAN_POINT('',(0.0609166150547005,0.0715235898165436,0.011));
#1350=CARTESIAN_POINT('',(0.,0.,0.011));
#1351=CARTESIAN_POINT('',(0.0609166150547005,-0.0682617949082718,0.011));
#1352=CARTESIAN_POINT('',(-0.0590833849452995,-0.0682617949082718,0.011));
#1353=CARTESIAN_POINT('',(0.0609166150547005,-0.0682617949082718,0.011));
#1354=CARTESIAN_POINT('',(-0.0590833849452995,-0.0682617949082718,0.011));
#1355=CARTESIAN_POINT('',(0.,0.,0.011));
#1356=CARTESIAN_POINT('',(-0.0590833849452995,-0.0682617949082718,0.011));
#1357=CARTESIAN_POINT('',(-0.0590833849452995,-0.0715235898165436,0.011));
#1358=CARTESIAN_POINT('',(0.00091661505470049,-0.0715235898165436,0.011));
#1359=CARTESIAN_POINT('',(0.0609166150547005,-0.0715235898165436,0.011));
#1360=CARTESIAN_POINT('',(0.0609166150547005,-0.0682617949082718,0.011));
#1361=CARTESIAN_POINT('',(-0.0590833849452995,-0.0682617949082718,0.011));
#1362=CARTESIAN_POINT('',(-0.0590833849452995,-0.0715235898165436,0.011));
#1363=CARTESIAN_POINT('',(0.0609166150547005,-0.0682617949082718,0.011));
#1364=CARTESIAN_POINT('',(0.0609166150547005,-0.0715235898165436,0.011));
#1365=CARTESIAN_POINT('',(0.00091661505470049,-0.0715235898165436,0.011));
#1366=CARTESIAN_POINT('',(-0.0855,-0.07,0.003));
#1367=CARTESIAN_POINT('',(-0.0855,-0.07,0.005));
#1368=CARTESIAN_POINT('',(-0.0855,0.07,0.003));
#1369=CARTESIAN_POINT('',(-0.0855,0.07,0.005));
#1370=CARTESIAN_POINT('',(0.0855,-0.07,0.003));
#1371=CARTESIAN_POINT('',(0.0855,-0.07,0.005));
#1372=CARTESIAN_POINT('',(0.0855,0.07,0.003));
#1373=CARTESIAN_POINT('',(0.0855,0.07,0.005));
#1374=CARTESIAN_POINT('',(-0.0855,0.07,0.005));
#1375=CARTESIAN_POINT('',(-0.0855,0.07,0.005));
#1376=CARTESIAN_POINT('',(-0.0855,0.07,0.005));
#1377=CARTESIAN_POINT('',(3.83364304083272E-19,0.07,0.005));
#1378=CARTESIAN_POINT('',(0.0855,0.07,0.005));
#1379=CARTESIAN_POINT('',(-0.0855,-1.34151948808873E-17,0.005));
#1380=CARTESIAN_POINT('',(-0.0855,-0.07,0.005));
#1381=CARTESIAN_POINT('',(0.0855,0.07,0.005));
#1382=CARTESIAN_POINT('',(0.0855,0.07,0.005));
#1383=CARTESIAN_POINT('',(-0.0855,-0.07,0.005));
#1384=CARTESIAN_POINT('',(-0.0855,-0.07,0.005));
#1385=CARTESIAN_POINT('',(0.0855,7.91033905045424E-18,0.005));
#1386=CARTESIAN_POINT('',(0.0855,-0.07,0.005));
#1387=CARTESIAN_POINT('',(1.07342005143316E-17,-0.07,0.005));
#1388=CARTESIAN_POINT('',(0.0855,-0.07,0.005));
#1389=CARTESIAN_POINT('',(0.0855,-0.07,0.005));
#1390=CARTESIAN_POINT('',(-0.0855,0.07,0.033));
#1391=CARTESIAN_POINT('',(-0.0855,0.07,0.033));
#1392=CARTESIAN_POINT('',(-0.08425,0.07,0.033));
#1393=CARTESIAN_POINT('',(0.,0.,0.033));
#1394=CARTESIAN_POINT('',(-0.0855,-0.07,0.033));
#1395=CARTESIAN_POINT('',(-0.0855,-0.07,0.033));
#1396=CARTESIAN_POINT('',(-0.08425,-0.07,0.033));
#1397=CARTESIAN_POINT('',(0.,0.,0.033));
#1398=CARTESIAN_POINT('',(0.0855,-0.07,0.033));
#1399=CARTESIAN_POINT('',(0.0855,-0.07,0.033));
#1400=CARTESIAN_POINT('',(0.08675,-0.07,0.033));
#1401=CARTESIAN_POINT('',(0.,0.,0.033));
#1402=CARTESIAN_POINT('',(0.0855,0.07,0.033));
#1403=CARTESIAN_POINT('',(0.0855,0.07,0.033));
#1404=CARTESIAN_POINT('',(0.08675,0.07,0.033));
#1405=CARTESIAN_POINT('',(0.,0.,0.033));
#1406=CARTESIAN_POINT('',(0.00834263669563647,0.077,0.01275));
#1407=CARTESIAN_POINT('',(0.00834263669563647,0.077,0.0125));
#1408=CARTESIAN_POINT('',(0.00834263669563647,0.077,0.0125));
#1409=CARTESIAN_POINT('',(0.00834263669563647,0.077,0.01275));
#1410=CARTESIAN_POINT('',(0.00134263669563647,0.077,0.0125));
#1411=CARTESIAN_POINT('',(-0.00565736330436354,0.077,0.0125));
#1412=CARTESIAN_POINT('',(-0.00565736330436354,0.077,0.0125));
#1413=CARTESIAN_POINT('',(0.00134263669563647,0.077,0.0125));
#1414=CARTESIAN_POINT('',(-0.00565736330436353,0.077,0.01275));
#1415=CARTESIAN_POINT('',(-0.00565736330436353,0.077,0.01275));
#1416=CARTESIAN_POINT('',(-5.90381028288239E-18,0.077,0.009));
#1417=MECHANICAL_DESIGN_GEOMETRIC_PRESENTATION_REPRESENTATION('',(#733,
#655,#656,#657,#658,#659,#660,#661,#662,#663,#664,#665,#666,#667,#668,#669,
#670,#671,#672,#673,#674,#675,#676,#677,#678,#679,#680,#681,#682,#683,#684,
#685,#686,#687,#688),#1418);
#1418=(
GEOMETRIC_REPRESENTATION_CONTEXT(3)
GLOBAL_UNCERTAINTY_ASSIGNED_CONTEXT((#1419))
GLOBAL_UNIT_ASSIGNED_CONTEXT((#1422,#1421,#1420))
REPRESENTATION_CONTEXT('Part 497','TOP_LEVEL_ASSEMBLY_PART')
);
#1419=UNCERTAINTY_MEASURE_WITH_UNIT(LENGTH_MEASURE(1.E-8),#1422,
'DISTANCE_ACCURACY_VALUE','Maximum Tolerance applied to model');
#1420=(
NAMED_UNIT(*)
SI_UNIT($,.STERADIAN.)
SOLID_ANGLE_UNIT()
);
#1421=(
NAMED_UNIT(*)
PLANE_ANGLE_UNIT()
SI_UNIT($,.RADIAN.)
);
#1422=(
LENGTH_UNIT()
NAMED_UNIT(*)
SI_UNIT($,.METRE.)
);
#1423=PRODUCT_DEFINITION_SHAPE('','',#1424);
#1424=PRODUCT_DEFINITION('','',#1426,#1425);
#1425=PRODUCT_DEFINITION_CONTEXT('',#1432,'design');
#1426=PRODUCT_DEFINITION_FORMATION_WITH_SPECIFIED_SOURCE('','',#1428,
 .NOT_KNOWN.);
#1427=PRODUCT_RELATED_PRODUCT_CATEGORY('','',(#1428));
#1428=PRODUCT('Part 497','Part 497','Part 497',(#1430));
#1429=PRODUCT_CATEGORY('','');
#1430=PRODUCT_CONTEXT('',#1432,'mechanical');
#1431=APPLICATION_PROTOCOL_DEFINITION('international standard',
'ap242_managed_model_based_3d_engineering',2020,#1432);
#1432=APPLICATION_CONTEXT('managed model based 3d engineering');
ENDSEC;
END-ISO-10303-21;
