ISO-10303-21;
HEADER;
/* Generated by software containing ST-Developer
 * from STEP Tools, Inc. (www.steptools.com) 
 */
/* OPTION: using custom renumber hook */

FILE_DESCRIPTION(
/* description */ ('STEP AP242 Edition 2',
'CAx-IF Rec.Pracs.---Representation and Presentation of Product Manufa
cturing Information (PMI)---4.0---2014-10-13',
'CAx-IF Rec.Pracs.---3D Tessellated Geometry---0.4---2014-09-14','2;1',
'CAx-IF Rec.Pracs.---User Defined Attributes---1.5---2016-08-15'),
/* implementation_level */ '2;1');

FILE_NAME(
/* name */ 'KICAD Drohnen COntroller - Part 497',
/* time_stamp */ '2026-08-17T18:32:11Z',
/* author */ (''),
/* organization */ (''),
/* preprocessor_version */ 'ST-DEVELOPER v20',
/* originating_system */ 'ONSHAPE BY PTC INC, 1.219',
/* authorisation */ '  ');

FILE_SCHEMA (('AP242_MANAGED_MODEL_BASED_3D_ENGINEERING_MIM_LF { 1 0 10303 442 3 1 4 }'));
ENDSEC;

DATA;
#10=SHAPE_REPRESENTATION_RELATIONSHIP('','',#962,#11);
#11=ADVANCED_BREP_SHAPE_REPRESENTATION('',(#960),#1432);
#12=SPHERICAL_SURFACE('',#999,0.005);
#13=SPHERICAL_SURFACE('',#1006,0.005);
#14=SPHERICAL_SURFACE('',#1008,0.005);
#15=SPHERICAL_SURFACE('',#1014,0.005);
#16=CYLINDRICAL_SURFACE('',#991,0.005);
#17=CYLINDRICAL_SURFACE('',#993,0.005);
#18=CYLINDRICAL_SURFACE('',#995,0.005);
#19=CYLINDRICAL_SURFACE('',#997,0.005);
#20=CYLINDRICAL_SURFACE('',#1002,0.005);
#21=CYLINDRICAL_SURFACE('',#1004,0.005);
#22=CYLINDRICAL_SURFACE('',#1010,0.005);
#23=CYLINDRICAL_SURFACE('',#1012,0.005);
#24=CYLINDRICAL_SURFACE('',#1015,0.00175);
#25=CYLINDRICAL_SURFACE('',#1018,0.00175);
#26=CYLINDRICAL_SURFACE('',#1021,0.00175);
#27=CYLINDRICAL_SURFACE('',#1024,0.00175);
#28=CIRCLE('',#968,0.005);
#29=CIRCLE('',#969,0.005);
#30=CIRCLE('',#970,0.005);
#31=CIRCLE('',#971,0.005);
#32=CIRCLE('',#972,0.00175);
#33=CIRCLE('',#973,0.00175);
#34=CIRCLE('',#974,0.00175);
#35=CIRCLE('',#975,0.00175);
#36=CIRCLE('',#992,0.005);
#37=CIRCLE('',#994,0.005);
#38=CIRCLE('',#996,0.005);
#39=CIRCLE('',#998,0.005);
#40=CIRCLE('',#1000,0.005);
#41=CIRCLE('',#1001,0.005);
#42=CIRCLE('',#1003,0.005);
#43=CIRCLE('',#1005,0.005);
#44=CIRCLE('',#1007,0.005);
#45=CIRCLE('',#1009,0.005);
#46=CIRCLE('',#1011,0.005);
#47=CIRCLE('',#1013,0.005);
#48=CIRCLE('',#1016,0.00175);
#49=CIRCLE('',#1019,0.00175);
#50=CIRCLE('',#1022,0.00175);
#51=CIRCLE('',#1025,0.00175);
#52=ORIENTED_EDGE('',*,*,#236,.F.);
#53=ORIENTED_EDGE('',*,*,#237,.F.);
#54=ORIENTED_EDGE('',*,*,#238,.F.);
#55=ORIENTED_EDGE('',*,*,#239,.F.);
#56=ORIENTED_EDGE('',*,*,#240,.T.);
#57=ORIENTED_EDGE('',*,*,#241,.T.);
#58=ORIENTED_EDGE('',*,*,#242,.T.);
#59=ORIENTED_EDGE('',*,*,#243,.F.);
#60=ORIENTED_EDGE('',*,*,#244,.T.);
#61=ORIENTED_EDGE('',*,*,#245,.T.);
#62=ORIENTED_EDGE('',*,*,#246,.T.);
#63=ORIENTED_EDGE('',*,*,#247,.T.);
#64=ORIENTED_EDGE('',*,*,#248,.T.);
#65=ORIENTED_EDGE('',*,*,#249,.F.);
#66=ORIENTED_EDGE('',*,*,#250,.T.);
#67=ORIENTED_EDGE('',*,*,#251,.T.);
#68=ORIENTED_EDGE('',*,*,#252,.F.);
#69=ORIENTED_EDGE('',*,*,#253,.F.);
#70=ORIENTED_EDGE('',*,*,#254,.F.);
#71=ORIENTED_EDGE('',*,*,#255,.F.);
#72=ORIENTED_EDGE('',*,*,#256,.T.);
#73=ORIENTED_EDGE('',*,*,#257,.F.);
#74=ORIENTED_EDGE('',*,*,#258,.F.);
#75=ORIENTED_EDGE('',*,*,#259,.F.);
#76=ORIENTED_EDGE('',*,*,#260,.F.);
#77=ORIENTED_EDGE('',*,*,#261,.T.);
#78=ORIENTED_EDGE('',*,*,#262,.F.);
#79=ORIENTED_EDGE('',*,*,#263,.T.);
#80=ORIENTED_EDGE('',*,*,#239,.T.);
#81=ORIENTED_EDGE('',*,*,#264,.F.);
#82=ORIENTED_EDGE('',*,*,#265,.T.);
#83=ORIENTED_EDGE('',*,*,#266,.T.);
#84=ORIENTED_EDGE('',*,*,#243,.T.);
#85=ORIENTED_EDGE('',*,*,#267,.T.);
#86=ORIENTED_EDGE('',*,*,#268,.T.);
#87=ORIENTED_EDGE('',*,*,#269,.T.);
#88=ORIENTED_EDGE('',*,*,#270,.T.);
#89=ORIENTED_EDGE('',*,*,#271,.T.);
#90=ORIENTED_EDGE('',*,*,#259,.T.);
#91=ORIENTED_EDGE('',*,*,#272,.F.);
#92=ORIENTED_EDGE('',*,*,#246,.F.);
#93=ORIENTED_EDGE('',*,*,#273,.T.);
#94=ORIENTED_EDGE('',*,*,#274,.F.);
#95=ORIENTED_EDGE('',*,*,#275,.T.);
#96=ORIENTED_EDGE('',*,*,#250,.F.);
#97=ORIENTED_EDGE('',*,*,#276,.T.);
#98=ORIENTED_EDGE('',*,*,#255,.T.);
#99=ORIENTED_EDGE('',*,*,#277,.T.);
#100=ORIENTED_EDGE('',*,*,#278,.F.);
#101=ORIENTED_EDGE('',*,*,#279,.F.);
#102=ORIENTED_EDGE('',*,*,#280,.F.);
#103=ORIENTED_EDGE('',*,*,#281,.F.);
#104=ORIENTED_EDGE('',*,*,#282,.T.);
#105=ORIENTED_EDGE('',*,*,#283,.T.);
#106=ORIENTED_EDGE('',*,*,#284,.T.);
#107=ORIENTED_EDGE('',*,*,#262,.T.);
#108=ORIENTED_EDGE('',*,*,#285,.T.);
#109=ORIENTED_EDGE('',*,*,#286,.T.);
#110=ORIENTED_EDGE('',*,*,#287,.T.);
#111=ORIENTED_EDGE('',*,*,#268,.F.);
#112=ORIENTED_EDGE('',*,*,#288,.T.);
#113=ORIENTED_EDGE('',*,*,#289,.T.);
#114=ORIENTED_EDGE('',*,*,#290,.T.);
#115=ORIENTED_EDGE('',*,*,#260,.T.);
#116=ORIENTED_EDGE('',*,*,#291,.T.);
#117=ORIENTED_EDGE('',*,*,#292,.T.);
#118=ORIENTED_EDGE('',*,*,#293,.T.);
#119=ORIENTED_EDGE('',*,*,#294,.T.);
#120=ORIENTED_EDGE('',*,*,#295,.F.);
#121=ORIENTED_EDGE('',*,*,#256,.F.);
#122=ORIENTED_EDGE('',*,*,#276,.F.);
#123=ORIENTED_EDGE('',*,*,#249,.T.);
#124=ORIENTED_EDGE('',*,*,#258,.T.);
#125=ORIENTED_EDGE('',*,*,#296,.T.);
#126=ORIENTED_EDGE('',*,*,#247,.F.);
#127=ORIENTED_EDGE('',*,*,#272,.T.);
#128=ORIENTED_EDGE('',*,*,#248,.F.);
#129=ORIENTED_EDGE('',*,*,#296,.F.);
#130=ORIENTED_EDGE('',*,*,#257,.T.);
#131=ORIENTED_EDGE('',*,*,#295,.T.);
#132=ORIENTED_EDGE('',*,*,#274,.T.);
#133=ORIENTED_EDGE('',*,*,#297,.F.);
#134=ORIENTED_EDGE('',*,*,#298,.F.);
#135=ORIENTED_EDGE('',*,*,#299,.T.);
#136=ORIENTED_EDGE('',*,*,#300,.F.);
#137=ORIENTED_EDGE('',*,*,#298,.T.);
#138=ORIENTED_EDGE('',*,*,#301,.F.);
#139=ORIENTED_EDGE('',*,*,#244,.F.);
#140=ORIENTED_EDGE('',*,*,#275,.F.);
#141=ORIENTED_EDGE('',*,*,#299,.F.);
#142=ORIENTED_EDGE('',*,*,#300,.T.);
#143=ORIENTED_EDGE('',*,*,#251,.F.);
#144=ORIENTED_EDGE('',*,*,#301,.T.);
#145=ORIENTED_EDGE('',*,*,#297,.T.);
#146=ORIENTED_EDGE('',*,*,#273,.F.);
#147=ORIENTED_EDGE('',*,*,#245,.F.);
#148=ORIENTED_EDGE('',*,*,#253,.T.);
#149=ORIENTED_EDGE('',*,*,#302,.F.);
#150=ORIENTED_EDGE('',*,*,#303,.F.);
#151=ORIENTED_EDGE('',*,*,#304,.F.);
#152=ORIENTED_EDGE('',*,*,#252,.T.);
#153=ORIENTED_EDGE('',*,*,#271,.F.);
#154=ORIENTED_EDGE('',*,*,#305,.F.);
#155=ORIENTED_EDGE('',*,*,#302,.T.);
#156=ORIENTED_EDGE('',*,*,#254,.T.);
#157=ORIENTED_EDGE('',*,*,#304,.T.);
#158=ORIENTED_EDGE('',*,*,#306,.T.);
#159=ORIENTED_EDGE('',*,*,#277,.F.);
#160=ORIENTED_EDGE('',*,*,#270,.F.);
#161=ORIENTED_EDGE('',*,*,#306,.F.);
#162=ORIENTED_EDGE('',*,*,#303,.T.);
#163=ORIENTED_EDGE('',*,*,#305,.T.);
#164=ORIENTED_EDGE('',*,*,#287,.F.);
#165=ORIENTED_EDGE('',*,*,#307,.T.);
#166=ORIENTED_EDGE('',*,*,#288,.F.);
#167=ORIENTED_EDGE('',*,*,#269,.F.);
#168=ORIENTED_EDGE('',*,*,#242,.F.);
#169=ORIENTED_EDGE('',*,*,#308,.T.);
#170=ORIENTED_EDGE('',*,*,#285,.F.);
#171=ORIENTED_EDGE('',*,*,#267,.F.);
#172=ORIENTED_EDGE('',*,*,#290,.F.);
#173=ORIENTED_EDGE('',*,*,#309,.T.);
#174=ORIENTED_EDGE('',*,*,#282,.F.);
#175=ORIENTED_EDGE('',*,*,#261,.F.);
#176=ORIENTED_EDGE('',*,*,#284,.F.);
#177=ORIENTED_EDGE('',*,*,#310,.T.);
#178=ORIENTED_EDGE('',*,*,#240,.F.);
#179=ORIENTED_EDGE('',*,*,#263,.F.);
#180=ORIENTED_EDGE('',*,*,#311,.F.);
#181=ORIENTED_EDGE('',*,*,#308,.F.);
#182=ORIENTED_EDGE('',*,*,#312,.F.);
#183=ORIENTED_EDGE('',*,*,#312,.T.);
#184=ORIENTED_EDGE('',*,*,#241,.F.);
#185=ORIENTED_EDGE('',*,*,#313,.F.);
#186=ORIENTED_EDGE('',*,*,#291,.F.);
#187=ORIENTED_EDGE('',*,*,#311,.T.);
#188=ORIENTED_EDGE('',*,*,#294,.F.);
#189=ORIENTED_EDGE('',*,*,#314,.F.);
#190=ORIENTED_EDGE('',*,*,#286,.F.);
#191=ORIENTED_EDGE('',*,*,#313,.T.);
#192=ORIENTED_EDGE('',*,*,#310,.F.);
#193=ORIENTED_EDGE('',*,*,#315,.F.);
#194=ORIENTED_EDGE('',*,*,#307,.F.);
#195=ORIENTED_EDGE('',*,*,#314,.T.);
#196=ORIENTED_EDGE('',*,*,#316,.F.);
#197=ORIENTED_EDGE('',*,*,#315,.T.);
#198=ORIENTED_EDGE('',*,*,#283,.F.);
#199=ORIENTED_EDGE('',*,*,#317,.F.);
#200=ORIENTED_EDGE('',*,*,#292,.F.);
#201=ORIENTED_EDGE('',*,*,#316,.T.);
#202=ORIENTED_EDGE('',*,*,#293,.F.);
#203=ORIENTED_EDGE('',*,*,#318,.F.);
#204=ORIENTED_EDGE('',*,*,#289,.F.);
#205=ORIENTED_EDGE('',*,*,#317,.T.);
#206=ORIENTED_EDGE('',*,*,#309,.F.);
#207=ORIENTED_EDGE('',*,*,#318,.T.);
#208=ORIENTED_EDGE('',*,*,#319,.F.);
#209=ORIENTED_EDGE('',*,*,#279,.T.);
#210=ORIENTED_EDGE('',*,*,#319,.T.);
#211=ORIENTED_EDGE('',*,*,#320,.F.);
#212=ORIENTED_EDGE('',*,*,#278,.T.);
#213=ORIENTED_EDGE('',*,*,#320,.T.);
#214=ORIENTED_EDGE('',*,*,#321,.F.);
#215=ORIENTED_EDGE('',*,*,#281,.T.);
#216=ORIENTED_EDGE('',*,*,#321,.T.);
#217=ORIENTED_EDGE('',*,*,#322,.F.);
#218=ORIENTED_EDGE('',*,*,#280,.T.);
#219=ORIENTED_EDGE('',*,*,#322,.T.);
#220=ORIENTED_EDGE('',*,*,#238,.T.);
#221=ORIENTED_EDGE('',*,*,#323,.F.);
#222=ORIENTED_EDGE('',*,*,#324,.F.);
#223=ORIENTED_EDGE('',*,*,#264,.T.);
#224=ORIENTED_EDGE('',*,*,#237,.T.);
#225=ORIENTED_EDGE('',*,*,#325,.F.);
#226=ORIENTED_EDGE('',*,*,#326,.F.);
#227=ORIENTED_EDGE('',*,*,#323,.T.);
#228=ORIENTED_EDGE('',*,*,#236,.T.);
#229=ORIENTED_EDGE('',*,*,#266,.F.);
#230=ORIENTED_EDGE('',*,*,#327,.F.);
#231=ORIENTED_EDGE('',*,*,#325,.T.);
#232=ORIENTED_EDGE('',*,*,#265,.F.);
#233=ORIENTED_EDGE('',*,*,#324,.T.);
#234=ORIENTED_EDGE('',*,*,#326,.T.);
#235=ORIENTED_EDGE('',*,*,#327,.T.);
#236=EDGE_CURVE('',#328,#329,#388,.T.);
#237=EDGE_CURVE('',#330,#328,#389,.T.);
#238=EDGE_CURVE('',#331,#330,#390,.T.);
#239=EDGE_CURVE('',#332,#331,#391,.T.);
#240=EDGE_CURVE('',#332,#333,#392,.T.);
#241=EDGE_CURVE('',#333,#334,#393,.T.);
#242=EDGE_CURVE('',#334,#335,#394,.F.);
#243=EDGE_CURVE('',#329,#335,#395,.T.);
#244=EDGE_CURVE('',#336,#337,#396,.T.);
#245=EDGE_CURVE('',#337,#338,#397,.T.);
#246=EDGE_CURVE('',#338,#339,#398,.T.);
#247=EDGE_CURVE('',#339,#340,#399,.T.);
#248=EDGE_CURVE('',#340,#341,#400,.T.);
#249=EDGE_CURVE('',#342,#341,#401,.T.);
#250=EDGE_CURVE('',#342,#343,#402,.T.);
#251=EDGE_CURVE('',#343,#336,#403,.T.);
#252=EDGE_CURVE('',#344,#345,#404,.T.);
#253=EDGE_CURVE('',#346,#344,#405,.T.);
#254=EDGE_CURVE('',#347,#346,#406,.T.);
#255=EDGE_CURVE('',#348,#347,#407,.T.);
#256=EDGE_CURVE('',#348,#349,#408,.T.);
#257=EDGE_CURVE('',#350,#349,#409,.T.);
#258=EDGE_CURVE('',#351,#350,#410,.T.);
#259=EDGE_CURVE('',#345,#351,#411,.T.);
#260=EDGE_CURVE('',#352,#353,#412,.T.);
#261=EDGE_CURVE('',#352,#354,#28,.T.);
#262=EDGE_CURVE('',#355,#354,#413,.T.);
#263=EDGE_CURVE('',#355,#332,#29,.T.);
#264=EDGE_CURVE('',#356,#331,#414,.T.);
#265=EDGE_CURVE('',#356,#357,#415,.T.);
#266=EDGE_CURVE('',#357,#329,#416,.T.);
#267=EDGE_CURVE('',#335,#358,#30,.T.);
#268=EDGE_CURVE('',#358,#359,#417,.T.);
#269=EDGE_CURVE('',#359,#353,#31,.T.);
#270=EDGE_CURVE('',#360,#361,#418,.T.);
#271=EDGE_CURVE('',#361,#345,#419,.T.);
#272=EDGE_CURVE('',#339,#351,#420,.T.);
#273=EDGE_CURVE('',#338,#362,#421,.T.);
#274=EDGE_CURVE('',#363,#362,#422,.T.);
#275=EDGE_CURVE('',#363,#343,#423,.T.);
#276=EDGE_CURVE('',#342,#348,#424,.T.);
#277=EDGE_CURVE('',#347,#360,#425,.T.);
#278=EDGE_CURVE('',#364,#364,#32,.T.);
#279=EDGE_CURVE('',#365,#365,#33,.T.);
#280=EDGE_CURVE('',#366,#366,#34,.T.);
#281=EDGE_CURVE('',#367,#367,#35,.T.);
#282=EDGE_CURVE('',#354,#368,#426,.T.);
#283=EDGE_CURVE('',#368,#369,#427,.F.);
#284=EDGE_CURVE('',#369,#355,#428,.F.);
#285=EDGE_CURVE('',#358,#370,#429,.T.);
#286=EDGE_CURVE('',#370,#371,#430,.T.);
#287=EDGE_CURVE('',#371,#359,#431,.F.);
#288=EDGE_CURVE('',#353,#372,#432,.T.);
#289=EDGE_CURVE('',#372,#373,#433,.F.);
#290=EDGE_CURVE('',#373,#352,#434,.F.);
#291=EDGE_CURVE('',#374,#375,#435,.F.);
#292=EDGE_CURVE('',#375,#376,#436,.T.);
#293=EDGE_CURVE('',#376,#377,#437,.T.);
#294=EDGE_CURVE('',#377,#374,#438,.F.);
#295=EDGE_CURVE('',#349,#341,#439,.T.);
#296=EDGE_CURVE('',#350,#340,#440,.T.);
#297=EDGE_CURVE('',#378,#362,#441,.T.);
#298=EDGE_CURVE('',#379,#378,#442,.T.);
#299=EDGE_CURVE('',#379,#363,#443,.T.);
#300=EDGE_CURVE('',#379,#336,#444,.T.);
#301=EDGE_CURVE('',#337,#378,#445,.T.);
#302=EDGE_CURVE('',#380,#344,#446,.T.);
#303=EDGE_CURVE('',#381,#380,#447,.T.);
#304=EDGE_CURVE('',#346,#381,#448,.T.);
#305=EDGE_CURVE('',#380,#361,#449,.T.);
#306=EDGE_CURVE('',#381,#360,#450,.T.);
#307=EDGE_CURVE('',#371,#372,#36,.T.);
#308=EDGE_CURVE('',#334,#370,#37,.F.);
#309=EDGE_CURVE('',#373,#368,#38,.F.);
#310=EDGE_CURVE('',#369,#333,#39,.T.);
#311=EDGE_CURVE('',#370,#374,#40,.T.);
#312=EDGE_CURVE('',#374,#334,#41,.T.);
#313=EDGE_CURVE('',#375,#333,#42,.T.);
#314=EDGE_CURVE('',#371,#377,#43,.T.);
#315=EDGE_CURVE('',#375,#369,#44,.T.);
#316=EDGE_CURVE('',#372,#377,#45,.T.);
#317=EDGE_CURVE('',#376,#368,#46,.T.);
#318=EDGE_CURVE('',#373,#376,#47,.T.);
#319=EDGE_CURVE('',#382,#382,#48,.T.);
#320=EDGE_CURVE('',#383,#383,#49,.T.);
#321=EDGE_CURVE('',#384,#384,#50,.T.);
#322=EDGE_CURVE('',#385,#385,#51,.T.);
#323=EDGE_CURVE('',#386,#330,#451,.T.);
#324=EDGE_CURVE('',#356,#386,#452,.T.);
#325=EDGE_CURVE('',#387,#328,#453,.T.);
#326=EDGE_CURVE('',#386,#387,#454,.T.);
#327=EDGE_CURVE('',#387,#357,#455,.T.);
#328=VERTEX_POINT('',#1238);
#329=VERTEX_POINT('',#1239);
#330=VERTEX_POINT('',#1241);
#331=VERTEX_POINT('',#1243);
#332=VERTEX_POINT('',#1245);
#333=VERTEX_POINT('',#1247);
#334=VERTEX_POINT('',#1249);
#335=VERTEX_POINT('',#1251);
#336=VERTEX_POINT('',#1255);
#337=VERTEX_POINT('',#1256);
#338=VERTEX_POINT('',#1258);
#339=VERTEX_POINT('',#1260);
#340=VERTEX_POINT('',#1262);
#341=VERTEX_POINT('',#1264);
#342=VERTEX_POINT('',#1266);
#343=VERTEX_POINT('',#1268);
#344=VERTEX_POINT('',#1272);
#345=VERTEX_POINT('',#1273);
#346=VERTEX_POINT('',#1275);
#347=VERTEX_POINT('',#1277);
#348=VERTEX_POINT('',#1279);
#349=VERTEX_POINT('',#1281);
#350=VERTEX_POINT('',#1283);
#351=VERTEX_POINT('',#1285);
#352=VERTEX_POINT('',#1289);
#353=VERTEX_POINT('',#1290);
#354=VERTEX_POINT('',#1292);
#355=VERTEX_POINT('',#1294);
#356=VERTEX_POINT('',#1297);
#357=VERTEX_POINT('',#1299);
#358=VERTEX_POINT('',#1302);
#359=VERTEX_POINT('',#1304);
#360=VERTEX_POINT('',#1307);
#361=VERTEX_POINT('',#1308);
#362=VERTEX_POINT('',#1312);
#363=VERTEX_POINT('',#1314);
#364=VERTEX_POINT('',#1319);
#365=VERTEX_POINT('',#1321);
#366=VERTEX_POINT('',#1323);
#367=VERTEX_POINT('',#1325);
#368=VERTEX_POINT('',#1328);
#369=VERTEX_POINT('',#1330);
#370=VERTEX_POINT('',#1334);
#371=VERTEX_POINT('',#1336);
#372=VERTEX_POINT('',#1340);
#373=VERTEX_POINT('',#1342);
#374=VERTEX_POINT('',#1346);
#375=VERTEX_POINT('',#1347);
#376=VERTEX_POINT('',#1349);
#377=VERTEX_POINT('',#1351);
#378=VERTEX_POINT('',#1360);
#379=VERTEX_POINT('',#1362);
#380=VERTEX_POINT('',#1371);
#381=VERTEX_POINT('',#1373);
#382=VERTEX_POINT('',#1406);
#383=VERTEX_POINT('',#1410);
#384=VERTEX_POINT('',#1414);
#385=VERTEX_POINT('',#1418);
#386=VERTEX_POINT('',#1422);
#387=VERTEX_POINT('',#1426);
#388=LINE('',#1237,#456);
#389=LINE('',#1240,#457);
#390=LINE('',#1242,#458);
#391=LINE('',#1244,#459);
#392=LINE('',#1246,#460);
#393=LINE('',#1248,#461);
#394=LINE('',#1250,#462);
#395=LINE('',#1252,#463);
#396=LINE('',#1254,#464);
#397=LINE('',#1257,#465);
#398=LINE('',#1259,#466);
#399=LINE('',#1261,#467);
#400=LINE('',#1263,#468);
#401=LINE('',#1265,#469);
#402=LINE('',#1267,#470);
#403=LINE('',#1269,#471);
#404=LINE('',#1271,#472);
#405=LINE('',#1274,#473);
#406=LINE('',#1276,#474);
#407=LINE('',#1278,#475);
#408=LINE('',#1280,#476);
#409=LINE('',#1282,#477);
#410=LINE('',#1284,#478);
#411=LINE('',#1286,#479);
#412=LINE('',#1288,#480);
#413=LINE('',#1293,#481);
#414=LINE('',#1296,#482);
#415=LINE('',#1298,#483);
#416=LINE('',#1300,#484);
#417=LINE('',#1303,#485);
#418=LINE('',#1306,#486);
#419=LINE('',#1309,#487);
#420=LINE('',#1310,#488);
#421=LINE('',#1311,#489);
#422=LINE('',#1313,#490);
#423=LINE('',#1315,#491);
#424=LINE('',#1316,#492);
#425=LINE('',#1317,#493);
#426=LINE('',#1327,#494);
#427=LINE('',#1329,#495);
#428=LINE('',#1331,#496);
#429=LINE('',#1333,#497);
#430=LINE('',#1335,#498);
#431=LINE('',#1337,#499);
#432=LINE('',#1339,#500);
#433=LINE('',#1341,#501);
#434=LINE('',#1343,#502);
#435=LINE('',#1345,#503);
#436=LINE('',#1348,#504);
#437=LINE('',#1350,#505);
#438=LINE('',#1352,#506);
#439=LINE('',#1354,#507);
#440=LINE('',#1356,#508);
#441=LINE('',#1359,#509);
#442=LINE('',#1361,#510);
#443=LINE('',#1363,#511);
#444=LINE('',#1365,#512);
#445=LINE('',#1366,#513);
#446=LINE('',#1370,#514);
#447=LINE('',#1372,#515);
#448=LINE('',#1374,#516);
#449=LINE('',#1376,#517);
#450=LINE('',#1378,#518);
#451=LINE('',#1421,#519);
#452=LINE('',#1423,#520);
#453=LINE('',#1425,#521);
#454=LINE('',#1427,#522);
#455=LINE('',#1429,#523);
#456=VECTOR('',#1035,1.);
#457=VECTOR('',#1036,1.);
#458=VECTOR('',#1037,1.);
#459=VECTOR('',#1038,1.);
#460=VECTOR('',#1039,1.);
#461=VECTOR('',#1040,1.);
#462=VECTOR('',#1041,1.);
#463=VECTOR('',#1042,1.);
#464=VECTOR('',#1045,1.);
#465=VECTOR('',#1046,1.);
#466=VECTOR('',#1047,1.);
#467=VECTOR('',#1048,1.);
#468=VECTOR('',#1049,1.);
#469=VECTOR('',#1050,1.);
#470=VECTOR('',#1051,1.);
#471=VECTOR('',#1052,1.);
#472=VECTOR('',#1055,1.);
#473=VECTOR('',#1056,1.);
#474=VECTOR('',#1057,1.);
#475=VECTOR('',#1058,1.);
#476=VECTOR('',#1059,1.);
#477=VECTOR('',#1060,1.);
#478=VECTOR('',#1061,1.);
#479=VECTOR('',#1062,1.);
#480=VECTOR('',#1065,1.);
#481=VECTOR('',#1068,1.);
#482=VECTOR('',#1071,1.);
#483=VECTOR('',#1072,1.);
#484=VECTOR('',#1073,1.);
#485=VECTOR('',#1076,1.);
#486=VECTOR('',#1079,1.);
#487=VECTOR('',#1080,1.);
#488=VECTOR('',#1081,1.);
#489=VECTOR('',#1082,1.);
#490=VECTOR('',#1083,1.);
#491=VECTOR('',#1084,1.);
#492=VECTOR('',#1085,1.);
#493=VECTOR('',#1086,1.);
#494=VECTOR('',#1097,1.);
#495=VECTOR('',#1098,1.);
#496=VECTOR('',#1099,1.);
#497=VECTOR('',#1102,1.);
#498=VECTOR('',#1103,1.);
#499=VECTOR('',#1104,1.);
#500=VECTOR('',#1107,1.);
#501=VECTOR('',#1108,1.);
#502=VECTOR('',#1109,1.);
#503=VECTOR('',#1112,1.);
#504=VECTOR('',#1113,1.);
#505=VECTOR('',#1114,1.);
#506=VECTOR('',#1115,1.);
#507=VECTOR('',#1118,1.);
#508=VECTOR('',#1121,1.);
#509=VECTOR('',#1126,1.);
#510=VECTOR('',#1127,1.);
#511=VECTOR('',#1128,1.);
#512=VECTOR('',#1131,1.);
#513=VECTOR('',#1132,1.);
#514=VECTOR('',#1139,1.);
#515=VECTOR('',#1140,1.);
#516=VECTOR('',#1141,1.);
#517=VECTOR('',#1144,1.);
#518=VECTOR('',#1147,1.);
#519=VECTOR('',#1224,1.);
#520=VECTOR('',#1225,1.);
#521=VECTOR('',#1228,1.);
#522=VECTOR('',#1229,1.);
#523=VECTOR('',#1232,1.);
#524=EDGE_LOOP('',(#52,#53,#54,#55,#56,#57,#58,#59));
#525=EDGE_LOOP('',(#60,#61,#62,#63,#64,#65,#66,#67));
#526=EDGE_LOOP('',(#68,#69,#70,#71,#72,#73,#74,#75));
#527=EDGE_LOOP('',(#76,#77,#78,#79,#80,#81,#82,#83,#84,#85,#86,#87));
#528=EDGE_LOOP('',(#88,#89,#90,#91,#92,#93,#94,#95,#96,#97,#98,#99));
#529=EDGE_LOOP('',(#100));
#530=EDGE_LOOP('',(#101));
#531=EDGE_LOOP('',(#102));
#532=EDGE_LOOP('',(#103));
#533=EDGE_LOOP('',(#104,#105,#106,#107));
#534=EDGE_LOOP('',(#108,#109,#110,#111));
#535=EDGE_LOOP('',(#112,#113,#114,#115));
#536=EDGE_LOOP('',(#116,#117,#118,#119));
#537=EDGE_LOOP('',(#120,#121,#122,#123));
#538=EDGE_LOOP('',(#124,#125,#126,#127));
#539=EDGE_LOOP('',(#128,#129,#130,#131));
#540=EDGE_LOOP('',(#132,#133,#134,#135));
#541=EDGE_LOOP('',(#136,#137,#138,#139));
#542=EDGE_LOOP('',(#140,#141,#142,#143));
#543=EDGE_LOOP('',(#144,#145,#146,#147));
#544=EDGE_LOOP('',(#148,#149,#150,#151));
#545=EDGE_LOOP('',(#152,#153,#154,#155));
#546=EDGE_LOOP('',(#156,#157,#158,#159));
#547=EDGE_LOOP('',(#160,#161,#162,#163));
#548=EDGE_LOOP('',(#164,#165,#166,#167));
#549=EDGE_LOOP('',(#168,#169,#170,#171));
#550=EDGE_LOOP('',(#172,#173,#174,#175));
#551=EDGE_LOOP('',(#176,#177,#178,#179));
#552=EDGE_LOOP('',(#180,#181,#182));
#553=EDGE_LOOP('',(#183,#184,#185,#186));
#554=EDGE_LOOP('',(#187,#188,#189,#190));
#555=EDGE_LOOP('',(#191,#192,#193));
#556=EDGE_LOOP('',(#194,#195,#196));
#557=EDGE_LOOP('',(#197,#198,#199,#200));
#558=EDGE_LOOP('',(#201,#202,#203,#204));
#559=EDGE_LOOP('',(#205,#206,#207));
#560=EDGE_LOOP('',(#208));
#561=EDGE_LOOP('',(#209));
#562=EDGE_LOOP('',(#210));
#563=EDGE_LOOP('',(#211));
#564=EDGE_LOOP('',(#212));
#565=EDGE_LOOP('',(#213));
#566=EDGE_LOOP('',(#214));
#567=EDGE_LOOP('',(#215));
#568=EDGE_LOOP('',(#216));
#569=EDGE_LOOP('',(#217));
#570=EDGE_LOOP('',(#218));
#571=EDGE_LOOP('',(#219));
#572=EDGE_LOOP('',(#220,#221,#222,#223));
#573=EDGE_LOOP('',(#224,#225,#226,#227));
#574=EDGE_LOOP('',(#228,#229,#230,#231));
#575=EDGE_LOOP('',(#232,#233,#234,#235));
#576=FACE_BOUND('',#524,.T.);
#577=FACE_BOUND('',#525,.T.);
#578=FACE_BOUND('',#526,.T.);
#579=FACE_BOUND('',#527,.T.);
#580=FACE_BOUND('',#528,.T.);
#581=FACE_BOUND('',#529,.T.);
#582=FACE_BOUND('',#530,.T.);
#583=FACE_BOUND('',#531,.T.);
#584=FACE_BOUND('',#532,.T.);
#585=FACE_BOUND('',#533,.T.);
#586=FACE_BOUND('',#534,.T.);
#587=FACE_BOUND('',#535,.T.);
#588=FACE_BOUND('',#536,.T.);
#589=FACE_BOUND('',#537,.T.);
#590=FACE_BOUND('',#538,.T.);
#591=FACE_BOUND('',#539,.T.);
#592=FACE_BOUND('',#540,.T.);
#593=FACE_BOUND('',#541,.T.);
#594=FACE_BOUND('',#542,.T.);
#595=FACE_BOUND('',#543,.T.);
#596=FACE_BOUND('',#544,.T.);
#597=FACE_BOUND('',#545,.T.);
#598=FACE_BOUND('',#546,.T.);
#599=FACE_BOUND('',#547,.T.);
#600=FACE_BOUND('',#548,.T.);
#601=FACE_BOUND('',#549,.T.);
#602=FACE_BOUND('',#550,.T.);
#603=FACE_BOUND('',#551,.T.);
#604=FACE_BOUND('',#552,.T.);
#605=FACE_BOUND('',#553,.T.);
#606=FACE_BOUND('',#554,.T.);
#607=FACE_BOUND('',#555,.T.);
#608=FACE_BOUND('',#556,.T.);
#609=FACE_BOUND('',#557,.T.);
#610=FACE_BOUND('',#558,.T.);
#611=FACE_BOUND('',#559,.T.);
#612=FACE_BOUND('',#560,.T.);
#613=FACE_BOUND('',#561,.T.);
#614=FACE_BOUND('',#562,.T.);
#615=FACE_BOUND('',#563,.T.);
#616=FACE_BOUND('',#564,.T.);
#617=FACE_BOUND('',#565,.T.);
#618=FACE_BOUND('',#566,.T.);
#619=FACE_BOUND('',#567,.T.);
#620=FACE_BOUND('',#568,.T.);
#621=FACE_BOUND('',#569,.T.);
#622=FACE_BOUND('',#570,.T.);
#623=FACE_BOUND('',#571,.T.);
#624=FACE_BOUND('',#572,.T.);
#625=FACE_BOUND('',#573,.T.);
#626=FACE_BOUND('',#574,.T.);
#627=FACE_BOUND('',#575,.T.);
#628=PLANE('',#964);
#629=PLANE('',#965);
#630=PLANE('',#966);
#631=PLANE('',#967);
#632=PLANE('',#976);
#633=PLANE('',#977);
#634=PLANE('',#978);
#635=PLANE('',#979);
#636=PLANE('',#980);
#637=PLANE('',#981);
#638=PLANE('',#982);
#639=PLANE('',#983);
#640=PLANE('',#984);
#641=PLANE('',#985);
#642=PLANE('',#986);
#643=PLANE('',#987);
#644=PLANE('',#988);
#645=PLANE('',#989);
#646=PLANE('',#990);
#647=PLANE('',#1017);
#648=PLANE('',#1020);
#649=PLANE('',#1023);
#650=PLANE('',#1026);
#651=PLANE('',#1027);
#652=PLANE('',#1028);
#653=PLANE('',#1029);
#654=PLANE('',#1030);
#655=OVER_RIDING_STYLED_ITEM('',(#737),#691,#735);
#656=OVER_RIDING_STYLED_ITEM('',(#738),#692,#735);
#657=OVER_RIDING_STYLED_ITEM('',(#739),#694,#735);
#658=OVER_RIDING_STYLED_ITEM('',(#740),#695,#735);
#659=OVER_RIDING_STYLED_ITEM('',(#741),#696,#735);
#660=OVER_RIDING_STYLED_ITEM('',(#742),#697,#735);
#661=OVER_RIDING_STYLED_ITEM('',(#743),#698,#735);
#662=OVER_RIDING_STYLED_ITEM('',(#744),#699,#735);
#663=OVER_RIDING_STYLED_ITEM('',(#745),#700,#735);
#664=OVER_RIDING_STYLED_ITEM('',(#746),#701,#735);
#665=OVER_RIDING_STYLED_ITEM('',(#747),#703,#735);
#666=OVER_RIDING_STYLED_ITEM('',(#748),#706,#735);
#667=OVER_RIDING_STYLED_ITEM('',(#749),#710,#735);
#668=OVER_RIDING_STYLED_ITEM('',(#750),#711,#735);
#669=OVER_RIDING_STYLED_ITEM('',(#751),#712,#735);
#670=OVER_RIDING_STYLED_ITEM('',(#752),#713,#735);
#671=OVER_RIDING_STYLED_ITEM('',(#753),#714,#735);
#672=OVER_RIDING_STYLED_ITEM('',(#754),#715,#735);
#673=OVER_RIDING_STYLED_ITEM('',(#755),#716,#735);
#674=OVER_RIDING_STYLED_ITEM('',(#756),#717,#735);
#675=OVER_RIDING_STYLED_ITEM('',(#757),#718,#735);
#676=OVER_RIDING_STYLED_ITEM('',(#758),#719,#735);
#677=OVER_RIDING_STYLED_ITEM('',(#759),#720,#735);
#678=OVER_RIDING_STYLED_ITEM('',(#760),#721,#735);
#679=OVER_RIDING_STYLED_ITEM('',(#761),#722,#735);
#680=OVER_RIDING_STYLED_ITEM('',(#762),#723,#735);
#681=OVER_RIDING_STYLED_ITEM('',(#763),#724,#735);
#682=OVER_RIDING_STYLED_ITEM('',(#764),#725,#735);
#683=OVER_RIDING_STYLED_ITEM('',(#765),#726,#735);
#684=OVER_RIDING_STYLED_ITEM('',(#766),#727,#735);
#685=OVER_RIDING_STYLED_ITEM('',(#767),#728,#735);
#686=OVER_RIDING_STYLED_ITEM('',(#768),#729,#735);
#687=OVER_RIDING_STYLED_ITEM('',(#769),#730,#735);
#688=OVER_RIDING_STYLED_ITEM('',(#770),#731,#735);
#689=OVER_RIDING_STYLED_ITEM('',(#771),#732,#735);
#690=OVER_RIDING_STYLED_ITEM('',(#772),#733,#735);
#691=ADVANCED_FACE('Face appearance 5',(#576),#628,.F.);
#692=ADVANCED_FACE('Face appearance 34',(#577),#629,.T.);
#693=ADVANCED_FACE('',(#578),#630,.F.);
#694=ADVANCED_FACE('Face appearance 32',(#579,#580,#581,#582,#583,#584),
#631,.T.);
#695=ADVANCED_FACE('Face appearance 21',(#585),#632,.T.);
#696=ADVANCED_FACE('Face appearance 5',(#586),#633,.F.);
#697=ADVANCED_FACE('Face appearance 5',(#587),#634,.T.);
#698=ADVANCED_FACE('Face appearance 28',(#588),#635,.F.);
#699=ADVANCED_FACE('Face appearance 34',(#589),#636,.F.);
#700=ADVANCED_FACE('Face appearance 35',(#590),#637,.T.);
#701=ADVANCED_FACE('Face appearance 33',(#591),#638,.T.);
#702=ADVANCED_FACE('',(#592),#639,.F.);
#703=ADVANCED_FACE('Face appearance 36',(#593),#640,.T.);
#704=ADVANCED_FACE('',(#594),#641,.T.);
#705=ADVANCED_FACE('',(#595),#642,.T.);
#706=ADVANCED_FACE('Face appearance 36',(#596),#643,.T.);
#707=ADVANCED_FACE('',(#597),#644,.T.);
#708=ADVANCED_FACE('',(#598),#645,.T.);
#709=ADVANCED_FACE('',(#599),#646,.T.);
#710=ADVANCED_FACE('Face appearance 26',(#600),#16,.T.);
#711=ADVANCED_FACE('Face appearance 24',(#601),#17,.T.);
#712=ADVANCED_FACE('Face appearance 25',(#602),#18,.T.);
#713=ADVANCED_FACE('Face appearance 27',(#603),#19,.T.);
#714=ADVANCED_FACE('Face appearance 29',(#604),#12,.T.);
#715=ADVANCED_FACE('Face appearance 29',(#605),#20,.T.);
#716=ADVANCED_FACE('Face appearance 29',(#606),#21,.T.);
#717=ADVANCED_FACE('Face appearance 29',(#607),#13,.T.);
#718=ADVANCED_FACE('Face appearance 29',(#608),#14,.T.);
#719=ADVANCED_FACE('Face appearance 29',(#609),#22,.T.);
#720=ADVANCED_FACE('Face appearance 29',(#610),#23,.T.);
#721=ADVANCED_FACE('Face appearance 29',(#611),#15,.T.);
#722=ADVANCED_FACE('Face appearance 37',(#612,#613),#24,.T.);
#723=ADVANCED_FACE('Face appearance 37',(#614),#647,.T.);
#724=ADVANCED_FACE('Face appearance 33',(#615,#616),#25,.T.);
#725=ADVANCED_FACE('Face appearance 33',(#617),#648,.T.);
#726=ADVANCED_FACE('Face appearance 33',(#618,#619),#26,.T.);
#727=ADVANCED_FACE('Face appearance 33',(#620),#649,.T.);
#728=ADVANCED_FACE('Face appearance 33',(#621,#622),#27,.T.);
#729=ADVANCED_FACE('Face appearance 33',(#623),#650,.T.);
#730=ADVANCED_FACE('Face appearance 32',(#624),#651,.F.);
#731=ADVANCED_FACE('Face appearance 32',(#625),#652,.F.);
#732=ADVANCED_FACE('Face appearance 32',(#626),#653,.F.);
#733=ADVANCED_FACE('Face appearance 32',(#627),#654,.T.);
#734=CLOSED_SHELL('',(#691,#692,#693,#694,#695,#696,#697,#698,#699,#700,
#701,#702,#703,#704,#705,#706,#707,#708,#709,#710,#711,#712,#713,#714,#715,
#716,#717,#718,#719,#720,#721,#722,#723,#724,#725,#726,#727,#728,#729,#730,
#731,#732,#733));
#735=STYLED_ITEM('',(#736),#960);
#736=PRESENTATION_STYLE_ASSIGNMENT((#773));
#737=PRESENTATION_STYLE_ASSIGNMENT((#774));
#738=PRESENTATION_STYLE_ASSIGNMENT((#775));
#739=PRESENTATION_STYLE_ASSIGNMENT((#776));
#740=PRESENTATION_STYLE_ASSIGNMENT((#777));
#741=PRESENTATION_STYLE_ASSIGNMENT((#778));
#742=PRESENTATION_STYLE_ASSIGNMENT((#779));
#743=PRESENTATION_STYLE_ASSIGNMENT((#780));
#744=PRESENTATION_STYLE_ASSIGNMENT((#781));
#745=PRESENTATION_STYLE_ASSIGNMENT((#782));
#746=PRESENTATION_STYLE_ASSIGNMENT((#783));
#747=PRESENTATION_STYLE_ASSIGNMENT((#784));
#748=PRESENTATION_STYLE_ASSIGNMENT((#785));
#749=PRESENTATION_STYLE_ASSIGNMENT((#786));
#750=PRESENTATION_STYLE_ASSIGNMENT((#787));
#751=PRESENTATION_STYLE_ASSIGNMENT((#788));
#752=PRESENTATION_STYLE_ASSIGNMENT((#789));
#753=PRESENTATION_STYLE_ASSIGNMENT((#790));
#754=PRESENTATION_STYLE_ASSIGNMENT((#791));
#755=PRESENTATION_STYLE_ASSIGNMENT((#792));
#756=PRESENTATION_STYLE_ASSIGNMENT((#793));
#757=PRESENTATION_STYLE_ASSIGNMENT((#794));
#758=PRESENTATION_STYLE_ASSIGNMENT((#795));
#759=PRESENTATION_STYLE_ASSIGNMENT((#796));
#760=PRESENTATION_STYLE_ASSIGNMENT((#797));
#761=PRESENTATION_STYLE_ASSIGNMENT((#798));
#762=PRESENTATION_STYLE_ASSIGNMENT((#799));
#763=PRESENTATION_STYLE_ASSIGNMENT((#800));
#764=PRESENTATION_STYLE_ASSIGNMENT((#801));
#765=PRESENTATION_STYLE_ASSIGNMENT((#802));
#766=PRESENTATION_STYLE_ASSIGNMENT((#803));
#767=PRESENTATION_STYLE_ASSIGNMENT((#804));
#768=PRESENTATION_STYLE_ASSIGNMENT((#805));
#769=PRESENTATION_STYLE_ASSIGNMENT((#806));
#770=PRESENTATION_STYLE_ASSIGNMENT((#807));
#771=PRESENTATION_STYLE_ASSIGNMENT((#808));
#772=PRESENTATION_STYLE_ASSIGNMENT((#809));
#773=SURFACE_STYLE_USAGE(.BOTH.,#810);
#774=SURFACE_STYLE_USAGE(.BOTH.,#811);
#775=SURFACE_STYLE_USAGE(.BOTH.,#812);
#776=SURFACE_STYLE_USAGE(.BOTH.,#813);
#777=SURFACE_STYLE_USAGE(.BOTH.,#814);
#778=SURFACE_STYLE_USAGE(.BOTH.,#815);
#779=SURFACE_STYLE_USAGE(.BOTH.,#816);
#780=SURFACE_STYLE_USAGE(.BOTH.,#817);
#781=SURFACE_STYLE_USAGE(.BOTH.,#818);
#782=SURFACE_STYLE_USAGE(.BOTH.,#819);
#783=SURFACE_STYLE_USAGE(.BOTH.,#820);
#784=SURFACE_STYLE_USAGE(.BOTH.,#821);
#785=SURFACE_STYLE_USAGE(.BOTH.,#822);
#786=SURFACE_STYLE_USAGE(.BOTH.,#823);
#787=SURFACE_STYLE_USAGE(.BOTH.,#824);
#788=SURFACE_STYLE_USAGE(.BOTH.,#825);
#789=SURFACE_STYLE_USAGE(.BOTH.,#826);
#790=SURFACE_STYLE_USAGE(.BOTH.,#827);
#791=SURFACE_STYLE_USAGE(.BOTH.,#828);
#792=SURFACE_STYLE_USAGE(.BOTH.,#829);
#793=SURFACE_STYLE_USAGE(.BOTH.,#830);
#794=SURFACE_STYLE_USAGE(.BOTH.,#831);
#795=SURFACE_STYLE_USAGE(.BOTH.,#832);
#796=SURFACE_STYLE_USAGE(.BOTH.,#833);
#797=SURFACE_STYLE_USAGE(.BOTH.,#834);
#798=SURFACE_STYLE_USAGE(.BOTH.,#835);
#799=SURFACE_STYLE_USAGE(.BOTH.,#836);
#800=SURFACE_STYLE_USAGE(.BOTH.,#837);
#801=SURFACE_STYLE_USAGE(.BOTH.,#838);
#802=SURFACE_STYLE_USAGE(.BOTH.,#839);
#803=SURFACE_STYLE_USAGE(.BOTH.,#840);
#804=SURFACE_STYLE_USAGE(.BOTH.,#841);
#805=SURFACE_STYLE_USAGE(.BOTH.,#842);
#806=SURFACE_STYLE_USAGE(.BOTH.,#843);
#807=SURFACE_STYLE_USAGE(.BOTH.,#844);
#808=SURFACE_STYLE_USAGE(.BOTH.,#845);
#809=SURFACE_STYLE_USAGE(.BOTH.,#846);
#810=SURFACE_SIDE_STYLE('',(#847));
#811=SURFACE_SIDE_STYLE('',(#848));
#812=SURFACE_SIDE_STYLE('',(#849));
#813=SURFACE_SIDE_STYLE('',(#850));
#814=SURFACE_SIDE_STYLE('',(#851));
#815=SURFACE_SIDE_STYLE('',(#852));
#816=SURFACE_SIDE_STYLE('',(#853));
#817=SURFACE_SIDE_STYLE('',(#854));
#818=SURFACE_SIDE_STYLE('',(#855));
#819=SURFACE_SIDE_STYLE('',(#856));
#820=SURFACE_SIDE_STYLE('',(#857));
#821=SURFACE_SIDE_STYLE('',(#858));
#822=SURFACE_SIDE_STYLE('',(#859));
#823=SURFACE_SIDE_STYLE('',(#860));
#824=SURFACE_SIDE_STYLE('',(#861));
#825=SURFACE_SIDE_STYLE('',(#862));
#826=SURFACE_SIDE_STYLE('',(#863));
#827=SURFACE_SIDE_STYLE('',(#864));
#828=SURFACE_SIDE_STYLE('',(#865));
#829=SURFACE_SIDE_STYLE('',(#866));
#830=SURFACE_SIDE_STYLE('',(#867));
#831=SURFACE_SIDE_STYLE('',(#868));
#832=SURFACE_SIDE_STYLE('',(#869));
#833=SURFACE_SIDE_STYLE('',(#870));
#834=SURFACE_SIDE_STYLE('',(#871));
#835=SURFACE_SIDE_STYLE('',(#872));
#836=SURFACE_SIDE_STYLE('',(#873));
#837=SURFACE_SIDE_STYLE('',(#874));
#838=SURFACE_SIDE_STYLE('',(#875));
#839=SURFACE_SIDE_STYLE('',(#876));
#840=SURFACE_SIDE_STYLE('',(#877));
#841=SURFACE_SIDE_STYLE('',(#878));
#842=SURFACE_SIDE_STYLE('',(#879));
#843=SURFACE_SIDE_STYLE('',(#880));
#844=SURFACE_SIDE_STYLE('',(#881));
#845=SURFACE_SIDE_STYLE('',(#882));
#846=SURFACE_SIDE_STYLE('',(#883));
#847=SURFACE_STYLE_FILL_AREA(#884);
#848=SURFACE_STYLE_FILL_AREA(#885);
#849=SURFACE_STYLE_FILL_AREA(#886);
#850=SURFACE_STYLE_FILL_AREA(#887);
#851=SURFACE_STYLE_FILL_AREA(#888);
#852=SURFACE_STYLE_FILL_AREA(#889);
#853=SURFACE_STYLE_FILL_AREA(#890);
#854=SURFACE_STYLE_FILL_AREA(#891);
#855=SURFACE_STYLE_FILL_AREA(#892);
#856=SURFACE_STYLE_FILL_AREA(#893);
#857=SURFACE_STYLE_FILL_AREA(#894);
#858=SURFACE_STYLE_FILL_AREA(#895);
#859=SURFACE_STYLE_FILL_AREA(#896);
#860=SURFACE_STYLE_FILL_AREA(#897);
#861=SURFACE_STYLE_FILL_AREA(#898);
#862=SURFACE_STYLE_FILL_AREA(#899);
#863=SURFACE_STYLE_FILL_AREA(#900);
#864=SURFACE_STYLE_FILL_AREA(#901);
#865=SURFACE_STYLE_FILL_AREA(#902);
#866=SURFACE_STYLE_FILL_AREA(#903);
#867=SURFACE_STYLE_FILL_AREA(#904);
#868=SURFACE_STYLE_FILL_AREA(#905);
#869=SURFACE_STYLE_FILL_AREA(#906);
#870=SURFACE_STYLE_FILL_AREA(#907);
#871=SURFACE_STYLE_FILL_AREA(#908);
#872=SURFACE_STYLE_FILL_AREA(#909);
#873=SURFACE_STYLE_FILL_AREA(#910);
#874=SURFACE_STYLE_FILL_AREA(#911);
#875=SURFACE_STYLE_FILL_AREA(#912);
#876=SURFACE_STYLE_FILL_AREA(#913);
#877=SURFACE_STYLE_FILL_AREA(#914);
#878=SURFACE_STYLE_FILL_AREA(#915);
#879=SURFACE_STYLE_FILL_AREA(#916);
#880=SURFACE_STYLE_FILL_AREA(#917);
#881=SURFACE_STYLE_FILL_AREA(#918);
#882=SURFACE_STYLE_FILL_AREA(#919);
#883=SURFACE_STYLE_FILL_AREA(#920);
#884=FILL_AREA_STYLE('',(#921));
#885=FILL_AREA_STYLE('',(#922));
#886=FILL_AREA_STYLE('',(#923));
#887=FILL_AREA_STYLE('',(#924));
#888=FILL_AREA_STYLE('',(#925));
#889=FILL_AREA_STYLE('',(#926));
#890=FILL_AREA_STYLE('',(#927));
#891=FILL_AREA_STYLE('',(#928));
#892=FILL_AREA_STYLE('',(#929));
#893=FILL_AREA_STYLE('',(#930));
#894=FILL_AREA_STYLE('',(#931));
#895=FILL_AREA_STYLE('',(#932));
#896=FILL_AREA_STYLE('',(#933));
#897=FILL_AREA_STYLE('',(#934));
#898=FILL_AREA_STYLE('',(#935));
#899=FILL_AREA_STYLE('',(#936));
#900=FILL_AREA_STYLE('',(#937));
#901=FILL_AREA_STYLE('',(#938));
#902=FILL_AREA_STYLE('',(#939));
#903=FILL_AREA_STYLE('',(#940));
#904=FILL_AREA_STYLE('',(#941));
#905=FILL_AREA_STYLE('',(#942));
#906=FILL_AREA_STYLE('',(#943));
#907=FILL_AREA_STYLE('',(#944));
#908=FILL_AREA_STYLE('',(#945));
#909=FILL_AREA_STYLE('',(#946));
#910=FILL_AREA_STYLE('',(#947));
#911=FILL_AREA_STYLE('',(#948));
#912=FILL_AREA_STYLE('',(#949));
#913=FILL_AREA_STYLE('',(#950));
#914=FILL_AREA_STYLE('',(#951));
#915=FILL_AREA_STYLE('',(#952));
#916=FILL_AREA_STYLE('',(#953));
#917=FILL_AREA_STYLE('',(#954));
#918=FILL_AREA_STYLE('',(#955));
#919=FILL_AREA_STYLE('',(#956));
#920=FILL_AREA_STYLE('',(#957));
#921=FILL_AREA_STYLE_COLOUR('',#958);
#922=FILL_AREA_STYLE_COLOUR('',#959);
#923=FILL_AREA_STYLE_COLOUR('',#959);
#924=FILL_AREA_STYLE_COLOUR('',#959);
#925=FILL_AREA_STYLE_COLOUR('',#959);
#926=FILL_AREA_STYLE_COLOUR('',#959);
#927=FILL_AREA_STYLE_COLOUR('',#959);
#928=FILL_AREA_STYLE_COLOUR('',#959);
#929=FILL_AREA_STYLE_COLOUR('',#959);
#930=FILL_AREA_STYLE_COLOUR('',#959);
#931=FILL_AREA_STYLE_COLOUR('',#959);
#932=FILL_AREA_STYLE_COLOUR('',#959);
#933=FILL_AREA_STYLE_COLOUR('',#959);
#934=FILL_AREA_STYLE_COLOUR('',#959);
#935=FILL_AREA_STYLE_COLOUR('',#959);
#936=FILL_AREA_STYLE_COLOUR('',#959);
#937=FILL_AREA_STYLE_COLOUR('',#959);
#938=FILL_AREA_STYLE_COLOUR('',#959);
#939=FILL_AREA_STYLE_COLOUR('',#959);
#940=FILL_AREA_STYLE_COLOUR('',#959);
#941=FILL_AREA_STYLE_COLOUR('',#959);
#942=FILL_AREA_STYLE_COLOUR('',#959);
#943=FILL_AREA_STYLE_COLOUR('',#959);
#944=FILL_AREA_STYLE_COLOUR('',#959);
#945=FILL_AREA_STYLE_COLOUR('',#959);
#946=FILL_AREA_STYLE_COLOUR('',#959);
#947=FILL_AREA_STYLE_COLOUR('',#959);
#948=FILL_AREA_STYLE_COLOUR('',#959);
#949=FILL_AREA_STYLE_COLOUR('',#959);
#950=FILL_AREA_STYLE_COLOUR('',#959);
#951=FILL_AREA_STYLE_COLOUR('',#959);
#952=FILL_AREA_STYLE_COLOUR('',#959);
#953=FILL_AREA_STYLE_COLOUR('',#959);
#954=FILL_AREA_STYLE_COLOUR('',#959);
#955=FILL_AREA_STYLE_COLOUR('',#959);
#956=FILL_AREA_STYLE_COLOUR('',#959);
#957=FILL_AREA_STYLE_COLOUR('',#959);
#958=COLOUR_RGB('',0.647058823529412,0.647058823529412,0.647058823529412);
#959=COLOUR_RGB('',0.901960784313726,0.901960784313726,0.901960784313726);
#960=MANIFOLD_SOLID_BREP('Part 497',#734);
#961=SHAPE_DEFINITION_REPRESENTATION(#1437,#962);
#962=SHAPE_REPRESENTATION('Part 497',(#963),#1432);
#963=AXIS2_PLACEMENT_3D('',#1235,#1031,#1032);
#964=AXIS2_PLACEMENT_3D('',#1236,#1033,#1034);
#965=AXIS2_PLACEMENT_3D('',#1253,#1043,#1044);
#966=AXIS2_PLACEMENT_3D('',#1270,#1053,#1054);
#967=AXIS2_PLACEMENT_3D('',#1287,#1063,#1064);
#968=AXIS2_PLACEMENT_3D('',#1291,#1066,#1067);
#969=AXIS2_PLACEMENT_3D('',#1295,#1069,#1070);
#970=AXIS2_PLACEMENT_3D('',#1301,#1074,#1075);
#971=AXIS2_PLACEMENT_3D('',#1305,#1077,#1078);
#972=AXIS2_PLACEMENT_3D('',#1318,#1087,#1088);
#973=AXIS2_PLACEMENT_3D('',#1320,#1089,#1090);
#974=AXIS2_PLACEMENT_3D('',#1322,#1091,#1092);
#975=AXIS2_PLACEMENT_3D('',#1324,#1093,#1094);
#976=AXIS2_PLACEMENT_3D('',#1326,#1095,#1096);
#977=AXIS2_PLACEMENT_3D('',#1332,#1100,#1101);
#978=AXIS2_PLACEMENT_3D('',#1338,#1105,#1106);
#979=AXIS2_PLACEMENT_3D('',#1344,#1110,#1111);
#980=AXIS2_PLACEMENT_3D('',#1353,#1116,#1117);
#981=AXIS2_PLACEMENT_3D('',#1355,#1119,#1120);
#982=AXIS2_PLACEMENT_3D('',#1357,#1122,#1123);
#983=AXIS2_PLACEMENT_3D('',#1358,#1124,#1125);
#984=AXIS2_PLACEMENT_3D('',#1364,#1129,#1130);
#985=AXIS2_PLACEMENT_3D('',#1367,#1133,#1134);
#986=AXIS2_PLACEMENT_3D('',#1368,#1135,#1136);
#987=AXIS2_PLACEMENT_3D('',#1369,#1137,#1138);
#988=AXIS2_PLACEMENT_3D('',#1375,#1142,#1143);
#989=AXIS2_PLACEMENT_3D('',#1377,#1145,#1146);
#990=AXIS2_PLACEMENT_3D('',#1379,#1148,#1149);
#991=AXIS2_PLACEMENT_3D('',#1380,#1150,#1151);
#992=AXIS2_PLACEMENT_3D('',#1381,#1152,#1153);
#993=AXIS2_PLACEMENT_3D('',#1382,#1154,#1155);
#994=AXIS2_PLACEMENT_3D('',#1383,#1156,#1157);
#995=AXIS2_PLACEMENT_3D('',#1384,#1158,#1159);
#996=AXIS2_PLACEMENT_3D('',#1385,#1160,#1161);
#997=AXIS2_PLACEMENT_3D('',#1386,#1162,#1163);
#998=AXIS2_PLACEMENT_3D('',#1387,#1164,#1165);
#999=AXIS2_PLACEMENT_3D('',#1388,#1166,#1167);
#1000=AXIS2_PLACEMENT_3D('',#1389,#1168,#1169);
#1001=AXIS2_PLACEMENT_3D('',#1390,#1170,#1171);
#1002=AXIS2_PLACEMENT_3D('',#1391,#1172,#1173);
#1003=AXIS2_PLACEMENT_3D('',#1392,#1174,#1175);
#1004=AXIS2_PLACEMENT_3D('',#1393,#1176,#1177);
#1005=AXIS2_PLACEMENT_3D('',#1394,#1178,#1179);
#1006=AXIS2_PLACEMENT_3D('',#1395,#1180,#1181);
#1007=AXIS2_PLACEMENT_3D('',#1396,#1182,#1183);
#1008=AXIS2_PLACEMENT_3D('',#1397,#1184,#1185);
#1009=AXIS2_PLACEMENT_3D('',#1398,#1186,#1187);
#1010=AXIS2_PLACEMENT_3D('',#1399,#1188,#1189);
#1011=AXIS2_PLACEMENT_3D('',#1400,#1190,#1191);
#1012=AXIS2_PLACEMENT_3D('',#1401,#1192,#1193);
#1013=AXIS2_PLACEMENT_3D('',#1402,#1194,#1195);
#1014=AXIS2_PLACEMENT_3D('',#1403,#1196,#1197);
#1015=AXIS2_PLACEMENT_3D('',#1404,#1198,#1199);
#1016=AXIS2_PLACEMENT_3D('',#1405,#1200,#1201);
#1017=AXIS2_PLACEMENT_3D('',#1407,#1202,#1203);
#1018=AXIS2_PLACEMENT_3D('',#1408,#1204,#1205);
#1019=AXIS2_PLACEMENT_3D('',#1409,#1206,#1207);
#1020=AXIS2_PLACEMENT_3D('',#1411,#1208,#1209);
#1021=AXIS2_PLACEMENT_3D('',#1412,#1210,#1211);
#1022=AXIS2_PLACEMENT_3D('',#1413,#1212,#1213);
#1023=AXIS2_PLACEMENT_3D('',#1415,#1214,#1215);
#1024=AXIS2_PLACEMENT_3D('',#1416,#1216,#1217);
#1025=AXIS2_PLACEMENT_3D('',#1417,#1218,#1219);
#1026=AXIS2_PLACEMENT_3D('',#1419,#1220,#1221);
#1027=AXIS2_PLACEMENT_3D('',#1420,#1222,#1223);
#1028=AXIS2_PLACEMENT_3D('',#1424,#1226,#1227);
#1029=AXIS2_PLACEMENT_3D('',#1428,#1230,#1231);
#1030=AXIS2_PLACEMENT_3D('',#1430,#1233,#1234);
#1031=DIRECTION('',(0.,0.,1.));
#1032=DIRECTION('',(1.,0.,0.));
#1033=DIRECTION('',(7.66728608166545E-17,-1.,0.));
#1034=DIRECTION('',(1.,7.66728608166545E-17,0.));
#1035=DIRECTION('',(3.46944695195361E-15,2.66012423257905E-31,1.));
#1036=DIRECTION('',(-1.,-7.66728608166545E-17,0.));
#1037=DIRECTION('',(0.,0.,-1.));
#1038=DIRECTION('',(-1.,-7.66728608166545E-17,0.));
#1039=DIRECTION('',(0.,0.,-1.));
#1040=DIRECTION('',(-1.,-7.66728608166545E-17,0.));
#1041=DIRECTION('',(0.,0.,-1.));
#1042=DIRECTION('',(-1.,-7.66728608166545E-17,0.));
#1043=DIRECTION('',(0.,-1.,0.));
#1044=DIRECTION('',(0.,0.,-1.));
#1045=DIRECTION('',(-1.,0.,0.));
#1046=DIRECTION('',(0.,0.,1.));
#1047=DIRECTION('',(-1.,0.,0.));
#1048=DIRECTION('',(0.,0.,-1.));
#1049=DIRECTION('',(1.,0.,0.));
#1050=DIRECTION('',(0.,0.,-1.));
#1051=DIRECTION('',(-1.,0.,0.));
#1052=DIRECTION('',(0.,0.,-1.));
#1053=DIRECTION('',(0.,-1.,0.));
#1054=DIRECTION('',(0.,0.,-1.));
#1055=DIRECTION('',(0.,0.,1.));
#1056=DIRECTION('',(-1.,0.,0.));
#1057=DIRECTION('',(0.,0.,-1.));
#1058=DIRECTION('',(-1.,0.,0.));
#1059=DIRECTION('',(0.,0.,-1.));
#1060=DIRECTION('',(1.,0.,0.));
#1061=DIRECTION('',(0.,0.,-1.));
#1062=DIRECTION('',(-1.,0.,0.));
#1063=DIRECTION('',(0.,0.,1.));
#1064=DIRECTION('',(1.,0.,0.));
#1065=DIRECTION('',(-1.,-1.53345721633309E-16,0.));
#1066=DIRECTION('',(0.,0.,1.));
#1067=DIRECTION('',(1.,0.,0.));
#1068=DIRECTION('',(9.25185853854297E-17,-1.,0.));
#1069=DIRECTION('',(0.,0.,1.));
#1070=DIRECTION('',(1.,0.,0.));
#1071=DIRECTION('',(7.66728608166545E-17,-1.,0.));
#1072=DIRECTION('',(-1.,-7.66728608166545E-17,0.));
#1073=DIRECTION('',(7.66728608166545E-17,-1.,0.));
#1074=DIRECTION('',(0.,0.,1.));
#1075=DIRECTION('',(1.,0.,0.));
#1076=DIRECTION('',(9.25185853854297E-17,-1.,0.));
#1077=DIRECTION('',(0.,0.,1.));
#1078=DIRECTION('',(1.,0.,0.));
#1079=DIRECTION('',(-1.,0.,0.));
#1080=DIRECTION('',(0.,1.,0.));
#1081=DIRECTION('',(0.,-1.,0.));
#1082=DIRECTION('',(0.,1.,0.));
#1083=DIRECTION('',(-1.,0.,0.));
#1084=DIRECTION('',(0.,-1.,0.));
#1085=DIRECTION('',(0.,-1.,0.));
#1086=DIRECTION('',(0.,-1.,0.));
#1087=DIRECTION('',(0.,0.,1.));
#1088=DIRECTION('',(1.,0.,0.));
#1089=DIRECTION('',(0.,0.,1.));
#1090=DIRECTION('',(1.,0.,0.));
#1091=DIRECTION('',(0.,0.,1.));
#1092=DIRECTION('',(1.,0.,0.));
#1093=DIRECTION('',(0.,0.,1.));
#1094=DIRECTION('',(1.,0.,0.));
#1095=DIRECTION('',(1.,9.25185853854297E-17,0.));
#1096=DIRECTION('',(-9.25185853854297E-17,1.,0.));
#1097=DIRECTION('',(0.,0.,-1.));
#1098=DIRECTION('',(9.25185853854297E-17,-1.,0.));
#1099=DIRECTION('',(0.,0.,-1.));
#1100=DIRECTION('',(1.,9.25185853854297E-17,0.));
#1101=DIRECTION('',(-9.25185853854297E-17,1.,0.));
#1102=DIRECTION('',(0.,0.,-1.));
#1103=DIRECTION('',(9.25185853854297E-17,-1.,0.));
#1104=DIRECTION('',(0.,0.,-1.));
#1105=DIRECTION('',(1.53345721633309E-16,-1.,0.));
#1106=DIRECTION('',(1.,1.53345721633309E-16,0.));
#1107=DIRECTION('',(0.,0.,-1.));
#1108=DIRECTION('',(-1.,-1.53345721633309E-16,0.));
#1109=DIRECTION('',(0.,0.,-1.));
#1110=DIRECTION('',(0.,0.,1.));
#1111=DIRECTION('',(1.,0.,0.));
#1112=DIRECTION('',(-1.,-7.66728608166545E-17,0.));
#1113=DIRECTION('',(9.25185853854297E-17,-1.,0.));
#1114=DIRECTION('',(-1.,-1.53345721633309E-16,0.));
#1115=DIRECTION('',(9.25185853854297E-17,-1.,0.));
#1116=DIRECTION('',(1.,0.,0.));
#1117=DIRECTION('',(0.,0.,-1.));
#1118=DIRECTION('',(0.,1.,0.));
#1119=DIRECTION('',(1.,0.,0.));
#1120=DIRECTION('',(0.,0.,-1.));
#1121=DIRECTION('',(0.,1.,0.));
#1122=DIRECTION('',(0.,0.,1.));
#1123=DIRECTION('',(1.,0.,0.));
#1124=DIRECTION('',(0.,1.,0.));
#1125=DIRECTION('',(0.,0.,1.));
#1126=DIRECTION('',(0.,0.,1.));
#1127=DIRECTION('',(-1.,0.,0.));
#1128=DIRECTION('',(0.,0.,1.));
#1129=DIRECTION('',(0.,0.,1.));
#1130=DIRECTION('',(1.,0.,0.));
#1131=DIRECTION('',(0.,-1.,0.));
#1132=DIRECTION('',(0.,1.,0.));
#1133=DIRECTION('',(-1.,0.,0.));
#1134=DIRECTION('',(0.,0.,1.));
#1135=DIRECTION('',(1.,0.,0.));
#1136=DIRECTION('',(0.,0.,-1.));
#1137=DIRECTION('',(0.,0.,1.));
#1138=DIRECTION('',(1.,0.,0.));
#1139=DIRECTION('',(0.,1.,0.));
#1140=DIRECTION('',(-1.,0.,0.));
#1141=DIRECTION('',(0.,-1.,0.));
#1142=DIRECTION('',(1.,0.,0.));
#1143=DIRECTION('',(0.,0.,-1.));
#1144=DIRECTION('',(0.,0.,1.));
#1145=DIRECTION('',(-1.,0.,0.));
#1146=DIRECTION('',(0.,0.,1.));
#1147=DIRECTION('',(0.,0.,1.));
#1148=DIRECTION('',(0.,1.,0.));
#1149=DIRECTION('',(0.,0.,1.));
#1150=DIRECTION('',(0.,0.,1.));
#1151=DIRECTION('',(1.,0.,0.));
#1152=DIRECTION('',(0.,0.,1.));
#1153=DIRECTION('',(1.,0.,0.));
#1154=DIRECTION('',(0.,0.,-1.));
#1155=DIRECTION('',(-1.,0.,0.));
#1156=DIRECTION('',(0.,0.,-1.));
#1157=DIRECTION('',(-1.,0.,0.));
#1158=DIRECTION('',(0.,0.,-1.));
#1159=DIRECTION('',(-1.,0.,0.));
#1160=DIRECTION('',(0.,0.,-1.));
#1161=DIRECTION('',(-1.,0.,0.));
#1162=DIRECTION('',(0.,0.,1.));
#1163=DIRECTION('',(1.,0.,0.));
#1164=DIRECTION('',(0.,0.,1.));
#1165=DIRECTION('',(1.,0.,0.));
#1166=DIRECTION('',(0.,0.,1.));
#1167=DIRECTION('',(1.,0.,0.));
#1168=DIRECTION('',(0.,-1.,0.));
#1169=DIRECTION('',(0.,0.,-1.));
#1170=DIRECTION('',(1.,0.,0.));
#1171=DIRECTION('',(0.,0.,-1.));
#1172=DIRECTION('',(-1.,-7.66728608166545E-17,0.));
#1173=DIRECTION('',(7.66728608166545E-17,-1.,0.));
#1174=DIRECTION('',(1.,0.,0.));
#1175=DIRECTION('',(0.,0.,-1.));
#1176=DIRECTION('',(9.25185853854297E-17,-1.,0.));
#1177=DIRECTION('',(1.,9.25185853854297E-17,0.));
#1178=DIRECTION('',(0.,-1.,0.));
#1179=DIRECTION('',(0.,0.,-1.));
#1180=DIRECTION('',(0.,0.,1.));
#1181=DIRECTION('',(1.,0.,0.));
#1182=DIRECTION('',(0.,-1.,0.));
#1183=DIRECTION('',(0.,0.,-1.));
#1184=DIRECTION('',(0.,0.,1.));
#1185=DIRECTION('',(1.,0.,0.));
#1186=DIRECTION('',(1.,0.,0.));
#1187=DIRECTION('',(0.,0.,-1.));
#1188=DIRECTION('',(-9.25185853854297E-17,1.,0.));
#1189=DIRECTION('',(-1.,-9.25185853854297E-17,0.));
#1190=DIRECTION('',(0.,-1.,0.));
#1191=DIRECTION('',(0.,0.,-1.));
#1192=DIRECTION('',(1.,1.53345721633309E-16,0.));
#1193=DIRECTION('',(-1.53345721633309E-16,1.,0.));
#1194=DIRECTION('',(1.,0.,0.));
#1195=DIRECTION('',(0.,0.,-1.));
#1196=DIRECTION('',(0.,0.,1.));
#1197=DIRECTION('',(1.,0.,0.));
#1198=DIRECTION('',(0.,0.,-1.));
#1199=DIRECTION('',(-1.,0.,0.));
#1200=DIRECTION('',(0.,0.,1.));
#1201=DIRECTION('',(1.,0.,0.));
#1202=DIRECTION('',(0.,0.,1.));
#1203=DIRECTION('',(1.,0.,0.));
#1204=DIRECTION('',(0.,0.,-1.));
#1205=DIRECTION('',(-1.,0.,0.));
#1206=DIRECTION('',(0.,0.,1.));
#1207=DIRECTION('',(1.,0.,0.));
#1208=DIRECTION('',(0.,0.,1.));
#1209=DIRECTION('',(1.,0.,0.));
#1210=DIRECTION('',(0.,0.,-1.));
#1211=DIRECTION('',(-1.,0.,0.));
#1212=DIRECTION('',(0.,0.,1.));
#1213=DIRECTION('',(1.,0.,0.));
#1214=DIRECTION('',(0.,0.,1.));
#1215=DIRECTION('',(1.,0.,0.));
#1216=DIRECTION('',(0.,0.,-1.));
#1217=DIRECTION('',(-1.,0.,0.));
#1218=DIRECTION('',(0.,0.,1.));
#1219=DIRECTION('',(1.,0.,0.));
#1220=DIRECTION('',(0.,0.,1.));
#1221=DIRECTION('',(1.,0.,0.));
#1222=DIRECTION('',(-1.,-7.66728608166545E-17,0.));
#1223=DIRECTION('',(7.66728608166545E-17,-1.,0.));
#1224=DIRECTION('',(7.66728608166545E-17,-1.,0.));
#1225=DIRECTION('',(0.,0.,-1.));
#1226=DIRECTION('',(0.,0.,1.));
#1227=DIRECTION('',(1.,0.,0.));
#1228=DIRECTION('',(7.66728608166545E-17,-1.,0.));
#1229=DIRECTION('',(-1.,-7.66728608166545E-17,0.));
#1230=DIRECTION('',(1.,7.66728608166545E-17,-3.46944695195361E-15));
#1231=DIRECTION('',(-3.46944695195361E-15,0.,-1.));
#1232=DIRECTION('',(3.46944695195361E-15,2.66012423257905E-31,1.));
#1233=DIRECTION('',(-7.66728608166545E-17,1.,0.));
#1234=DIRECTION('',(-1.,-7.66728608166545E-17,0.));
#1235=CARTESIAN_POINT('',(0.,0.,0.));
#1236=CARTESIAN_POINT('',(0.,0.075,0.003));
#1237=CARTESIAN_POINT('',(-0.00565736330436353,0.075,0.01275));
#1238=CARTESIAN_POINT('',(-0.00565736330436354,0.075,0.0125));
#1239=CARTESIAN_POINT('',(-0.00565736330436353,0.075,0.013));
#1240=CARTESIAN_POINT('',(0.00134263669563647,0.075,0.0125));
#1241=CARTESIAN_POINT('',(0.00834263669563647,0.075,0.0125));
#1242=CARTESIAN_POINT('',(0.00834263669563647,0.075,0.01275));
#1243=CARTESIAN_POINT('',(0.00834263669563647,0.075,0.013));
#1244=CARTESIAN_POINT('',(0.,0.075,0.013));
#1245=CARTESIAN_POINT('',(0.0855,0.075,0.013));
#1246=CARTESIAN_POINT('',(0.0855,0.075,0.));
#1247=CARTESIAN_POINT('',(0.0855,0.075,0.005));
#1248=CARTESIAN_POINT('',(0.,0.075,0.005));
#1249=CARTESIAN_POINT('',(-0.0855,0.075,0.005));
#1250=CARTESIAN_POINT('',(-0.0855,0.075,0.003));
#1251=CARTESIAN_POINT('',(-0.0855,0.075,0.013));
#1252=CARTESIAN_POINT('',(0.,0.075,0.013));
#1253=CARTESIAN_POINT('',(0.,0.065,0.013));
#1254=CARTESIAN_POINT('',(0.,0.065,0.011));
#1255=CARTESIAN_POINT('',(0.0609166150547005,0.065,0.011));
#1256=CARTESIAN_POINT('',(-0.0590833849452995,0.065,0.011));
#1257=CARTESIAN_POINT('',(-0.0590833849452995,0.065,0.013));
#1258=CARTESIAN_POINT('',(-0.0590833849452995,0.065,0.013));
#1259=CARTESIAN_POINT('',(0.,0.065,0.013));
#1260=CARTESIAN_POINT('',(-0.0805,0.065,0.013));
#1261=CARTESIAN_POINT('',(-0.0805,0.065,0.013));
#1262=CARTESIAN_POINT('',(-0.0805,0.065,0.003));
#1263=CARTESIAN_POINT('',(0.,0.065,0.003));
#1264=CARTESIAN_POINT('',(0.0805,0.065,0.003));
#1265=CARTESIAN_POINT('',(0.0805,0.065,0.013));
#1266=CARTESIAN_POINT('',(0.0805,0.065,0.013));
#1267=CARTESIAN_POINT('',(0.,0.065,0.013));
#1268=CARTESIAN_POINT('',(0.0609166150547005,0.065,0.013));
#1269=CARTESIAN_POINT('',(0.0609166150547005,0.065,0.013));
#1270=CARTESIAN_POINT('',(0.,-0.065,0.013));
#1271=CARTESIAN_POINT('',(-0.0590833849452995,-0.065,0.013));
#1272=CARTESIAN_POINT('',(-0.0590833849452995,-0.065,0.011));
#1273=CARTESIAN_POINT('',(-0.0590833849452995,-0.065,0.013));
#1274=CARTESIAN_POINT('',(0.,-0.065,0.011));
#1275=CARTESIAN_POINT('',(0.0609166150547005,-0.065,0.011));
#1276=CARTESIAN_POINT('',(0.0609166150547005,-0.065,0.013));
#1277=CARTESIAN_POINT('',(0.0609166150547005,-0.065,0.013));
#1278=CARTESIAN_POINT('',(0.,-0.065,0.013));
#1279=CARTESIAN_POINT('',(0.0805,-0.065,0.013));
#1280=CARTESIAN_POINT('',(0.0805,-0.065,0.013));
#1281=CARTESIAN_POINT('',(0.0805,-0.065,0.003));
#1282=CARTESIAN_POINT('',(0.,-0.065,0.003));
#1283=CARTESIAN_POINT('',(-0.0805,-0.065,0.003));
#1284=CARTESIAN_POINT('',(-0.0805,-0.065,0.013));
#1285=CARTESIAN_POINT('',(-0.0805,-0.065,0.013));
#1286=CARTESIAN_POINT('',(0.,-0.065,0.013));
#1287=CARTESIAN_POINT('',(0.,0.,0.013));
#1288=CARTESIAN_POINT('',(0.,-0.075,0.013));
#1289=CARTESIAN_POINT('',(0.0855,-0.075,0.013));
#1290=CARTESIAN_POINT('',(-0.0855,-0.075,0.013));
#1291=CARTESIAN_POINT('',(0.0855,-0.07,0.013));
#1292=CARTESIAN_POINT('',(0.0905,-0.07,0.013));
#1293=CARTESIAN_POINT('',(0.0905,1.38777878078145E-17,0.013));
#1294=CARTESIAN_POINT('',(0.0905,0.07,0.013));
#1295=CARTESIAN_POINT('',(0.0855,0.07,0.013));
#1296=CARTESIAN_POINT('',(0.00834263669563647,0.077,0.013));
#1297=CARTESIAN_POINT('',(0.00834263669563647,0.077,0.013));
#1298=CARTESIAN_POINT('',(-1.53345721633309E-19,0.077,0.013));
#1299=CARTESIAN_POINT('',(-0.00565736330436353,0.077,0.013));
#1300=CARTESIAN_POINT('',(-0.00565736330436353,0.077,0.013));
#1301=CARTESIAN_POINT('',(-0.0855,0.07,0.013));
#1302=CARTESIAN_POINT('',(-0.0905,0.07,0.013));
#1303=CARTESIAN_POINT('',(-0.0905,-1.38777878078145E-17,0.013));
#1304=CARTESIAN_POINT('',(-0.0905,-0.07,0.013));
#1305=CARTESIAN_POINT('',(-0.0855,-0.07,0.013));
#1306=CARTESIAN_POINT('',(0.00091661505470049,-0.0715235898165436,0.013));
#1307=CARTESIAN_POINT('',(0.0609166150547005,-0.0715235898165436,0.013));
#1308=CARTESIAN_POINT('',(-0.0590833849452995,-0.0715235898165436,0.013));
#1309=CARTESIAN_POINT('',(-0.0590833849452995,-0.0682617949082718,0.013));
#1310=CARTESIAN_POINT('',(-0.0805,0.,0.013));
#1311=CARTESIAN_POINT('',(-0.0590833849452995,-0.0682617949082718,0.013));
#1312=CARTESIAN_POINT('',(-0.0590833849452995,0.0715235898165436,0.013));
#1313=CARTESIAN_POINT('',(0.00091661505470049,0.0715235898165436,0.013));
#1314=CARTESIAN_POINT('',(0.0609166150547005,0.0715235898165436,0.013));
#1315=CARTESIAN_POINT('',(0.0609166150547005,-0.0682617949082718,0.013));
#1316=CARTESIAN_POINT('',(0.0805,0.,0.013));
#1317=CARTESIAN_POINT('',(0.0609166150547005,-0.0682617949082718,0.013));
#1318=CARTESIAN_POINT('',(-0.0855,-0.07,0.013));
#1319=CARTESIAN_POINT('',(-0.08375,-0.07,0.013));
#1320=CARTESIAN_POINT('',(-0.0855,0.07,0.013));
#1321=CARTESIAN_POINT('',(-0.08375,0.07,0.013));
#1322=CARTESIAN_POINT('',(0.0855,0.07,0.013));
#1323=CARTESIAN_POINT('',(0.08725,0.07,0.013));
#1324=CARTESIAN_POINT('',(0.0855,-0.07,0.013));
#1325=CARTESIAN_POINT('',(0.08725,-0.07,0.013));
#1326=CARTESIAN_POINT('',(0.0905,1.38777878078145E-17,0.003));
#1327=CARTESIAN_POINT('',(0.0905,-0.07,0.003));
#1328=CARTESIAN_POINT('',(0.0905,-0.07,0.005));
#1329=CARTESIAN_POINT('',(0.0905,0.07,0.005));
#1330=CARTESIAN_POINT('',(0.0905,0.07,0.005));
#1331=CARTESIAN_POINT('',(0.0905,0.07,0.013));
#1332=CARTESIAN_POINT('',(-0.0905,-1.38777878078145E-17,0.003));
#1333=CARTESIAN_POINT('',(-0.0905,0.07,0.003));
#1334=CARTESIAN_POINT('',(-0.0905,0.07,0.005));
#1335=CARTESIAN_POINT('',(-0.0905,-1.38777878078145E-17,0.005));
#1336=CARTESIAN_POINT('',(-0.0905,-0.07,0.005));
#1337=CARTESIAN_POINT('',(-0.0905,-0.07,0.013));
#1338=CARTESIAN_POINT('',(0.,-0.075,0.003));
#1339=CARTESIAN_POINT('',(-0.0855,-0.075,0.));
#1340=CARTESIAN_POINT('',(-0.0855,-0.075,0.005));
#1341=CARTESIAN_POINT('',(0.0855,-0.075,0.005));
#1342=CARTESIAN_POINT('',(0.0855,-0.075,0.005));
#1343=CARTESIAN_POINT('',(0.0855,-0.075,0.003));
#1344=CARTESIAN_POINT('',(0.,0.,0.));
#1345=CARTESIAN_POINT('',(-5.36710025716581E-18,0.07,0.));
#1346=CARTESIAN_POINT('',(-0.0855,0.07,0.));
#1347=CARTESIAN_POINT('',(0.0855,0.07,0.));
#1348=CARTESIAN_POINT('',(0.0855,-0.07,0.));
#1349=CARTESIAN_POINT('',(0.0855,-0.07,0.));
#1350=CARTESIAN_POINT('',(-0.0855,-0.07,0.));
#1351=CARTESIAN_POINT('',(-0.0855,-0.07,0.));
#1352=CARTESIAN_POINT('',(-0.0855,-7.91033905045424E-18,0.));
#1353=CARTESIAN_POINT('',(0.0805,0.,0.013));
#1354=CARTESIAN_POINT('',(0.0805,0.,0.003));
#1355=CARTESIAN_POINT('',(-0.0805,0.,0.013));
#1356=CARTESIAN_POINT('',(-0.0805,0.,0.003));
#1357=CARTESIAN_POINT('',(0.,0.,0.003));
#1358=CARTESIAN_POINT('',(0.00091661505470049,0.0715235898165436,0.011));
#1359=CARTESIAN_POINT('',(-0.0590833849452995,0.0715235898165436,0.011));
#1360=CARTESIAN_POINT('',(-0.0590833849452995,0.0715235898165436,0.011));
#1361=CARTESIAN_POINT('',(0.00091661505470049,0.0715235898165436,0.011));
#1362=CARTESIAN_POINT('',(0.0609166150547005,0.0715235898165436,0.011));
#1363=CARTESIAN_POINT('',(0.0609166150547005,0.0715235898165436,0.011));
#1364=CARTESIAN_POINT('',(0.,0.,0.011));
#1365=CARTESIAN_POINT('',(0.0609166150547005,-0.0682617949082718,0.011));
#1366=CARTESIAN_POINT('',(-0.0590833849452995,-0.0682617949082718,0.011));
#1367=CARTESIAN_POINT('',(0.0609166150547005,-0.0682617949082718,0.011));
#1368=CARTESIAN_POINT('',(-0.0590833849452995,-0.0682617949082718,0.011));
#1369=CARTESIAN_POINT('',(0.,0.,0.011));
#1370=CARTESIAN_POINT('',(-0.0590833849452995,-0.0682617949082718,0.011));
#1371=CARTESIAN_POINT('',(-0.0590833849452995,-0.0715235898165436,0.011));
#1372=CARTESIAN_POINT('',(0.00091661505470049,-0.0715235898165436,0.011));
#1373=CARTESIAN_POINT('',(0.0609166150547005,-0.0715235898165436,0.011));
#1374=CARTESIAN_POINT('',(0.0609166150547005,-0.0682617949082718,0.011));
#1375=CARTESIAN_POINT('',(-0.0590833849452995,-0.0682617949082718,0.011));
#1376=CARTESIAN_POINT('',(-0.0590833849452995,-0.0715235898165436,0.011));
#1377=CARTESIAN_POINT('',(0.0609166150547005,-0.0682617949082718,0.011));
#1378=CARTESIAN_POINT('',(0.0609166150547005,-0.0715235898165436,0.011));
#1379=CARTESIAN_POINT('',(0.00091661505470049,-0.0715235898165436,0.011));
#1380=CARTESIAN_POINT('',(-0.0855,-0.07,0.003));
#1381=CARTESIAN_POINT('',(-0.0855,-0.07,0.005));
#1382=CARTESIAN_POINT('',(-0.0855,0.07,0.003));
#1383=CARTESIAN_POINT('',(-0.0855,0.07,0.005));
#1384=CARTESIAN_POINT('',(0.0855,-0.07,0.003));
#1385=CARTESIAN_POINT('',(0.0855,-0.07,0.005));
#1386=CARTESIAN_POINT('',(0.0855,0.07,0.003));
#1387=CARTESIAN_POINT('',(0.0855,0.07,0.005));
#1388=CARTESIAN_POINT('',(-0.0855,0.07,0.005));
#1389=CARTESIAN_POINT('',(-0.0855,0.07,0.005));
#1390=CARTESIAN_POINT('',(-0.0855,0.07,0.005));
#1391=CARTESIAN_POINT('',(3.83364304083272E-19,0.07,0.005));
#1392=CARTESIAN_POINT('',(0.0855,0.07,0.005));
#1393=CARTESIAN_POINT('',(-0.0855,-1.34151948808873E-17,0.005));
#1394=CARTESIAN_POINT('',(-0.0855,-0.07,0.005));
#1395=CARTESIAN_POINT('',(0.0855,0.07,0.005));
#1396=CARTESIAN_POINT('',(0.0855,0.07,0.005));
#1397=CARTESIAN_POINT('',(-0.0855,-0.07,0.005));
#1398=CARTESIAN_POINT('',(-0.0855,-0.07,0.005));
#1399=CARTESIAN_POINT('',(0.0855,7.91033905045424E-18,0.005));
#1400=CARTESIAN_POINT('',(0.0855,-0.07,0.005));
#1401=CARTESIAN_POINT('',(1.07342005143316E-17,-0.07,0.005));
#1402=CARTESIAN_POINT('',(0.0855,-0.07,0.005));
#1403=CARTESIAN_POINT('',(0.0855,-0.07,0.005));
#1404=CARTESIAN_POINT('',(-0.0855,0.07,0.023));
#1405=CARTESIAN_POINT('',(-0.0855,0.07,0.023));
#1406=CARTESIAN_POINT('',(-0.08375,0.07,0.023));
#1407=CARTESIAN_POINT('',(0.,0.,0.023));
#1408=CARTESIAN_POINT('',(-0.0855,-0.07,0.023));
#1409=CARTESIAN_POINT('',(-0.0855,-0.07,0.023));
#1410=CARTESIAN_POINT('',(-0.08375,-0.07,0.023));
#1411=CARTESIAN_POINT('',(0.,0.,0.023));
#1412=CARTESIAN_POINT('',(0.0855,-0.07,0.023));
#1413=CARTESIAN_POINT('',(0.0855,-0.07,0.023));
#1414=CARTESIAN_POINT('',(0.08725,-0.07,0.023));
#1415=CARTESIAN_POINT('',(0.,0.,0.023));
#1416=CARTESIAN_POINT('',(0.0855,0.07,0.023));
#1417=CARTESIAN_POINT('',(0.0855,0.07,0.023));
#1418=CARTESIAN_POINT('',(0.08725,0.07,0.023));
#1419=CARTESIAN_POINT('',(0.,0.,0.023));
#1420=CARTESIAN_POINT('',(0.00834263669563647,0.077,0.01275));
#1421=CARTESIAN_POINT('',(0.00834263669563647,0.077,0.0125));
#1422=CARTESIAN_POINT('',(0.00834263669563647,0.077,0.0125));
#1423=CARTESIAN_POINT('',(0.00834263669563647,0.077,0.01275));
#1424=CARTESIAN_POINT('',(0.00134263669563647,0.077,0.0125));
#1425=CARTESIAN_POINT('',(-0.00565736330436354,0.077,0.0125));
#1426=CARTESIAN_POINT('',(-0.00565736330436354,0.077,0.0125));
#1427=CARTESIAN_POINT('',(0.00134263669563647,0.077,0.0125));
#1428=CARTESIAN_POINT('',(-0.00565736330436353,0.077,0.01275));
#1429=CARTESIAN_POINT('',(-0.00565736330436353,0.077,0.01275));
#1430=CARTESIAN_POINT('',(-5.90381028288239E-18,0.077,0.009));
#1431=MECHANICAL_DESIGN_GEOMETRIC_PRESENTATION_REPRESENTATION('',(#735,
#655,#656,#657,#658,#659,#660,#661,#662,#663,#664,#665,#666,#667,#668,#669,
#670,#671,#672,#673,#674,#675,#676,#677,#678,#679,#680,#681,#682,#683,#684,
#685,#686,#687,#688,#689,#690),#1432);
#1432=(
GEOMETRIC_REPRESENTATION_CONTEXT(3)
GLOBAL_UNCERTAINTY_ASSIGNED_CONTEXT((#1433))
GLOBAL_UNIT_ASSIGNED_CONTEXT((#1436,#1435,#1434))
REPRESENTATION_CONTEXT('Part 497','TOP_LEVEL_ASSEMBLY_PART')
);
#1433=UNCERTAINTY_MEASURE_WITH_UNIT(LENGTH_MEASURE(1.E-8),#1436,
'DISTANCE_ACCURACY_VALUE','Maximum Tolerance applied to model');
#1434=(
NAMED_UNIT(*)
SI_UNIT($,.STERADIAN.)
SOLID_ANGLE_UNIT()
);
#1435=(
NAMED_UNIT(*)
PLANE_ANGLE_UNIT()
SI_UNIT($,.RADIAN.)
);
#1436=(
LENGTH_UNIT()
NAMED_UNIT(*)
SI_UNIT($,.METRE.)
);
#1437=PRODUCT_DEFINITION_SHAPE('','',#1438);
#1438=PRODUCT_DEFINITION('','',#1440,#1439);
#1439=PRODUCT_DEFINITION_CONTEXT('',#1446,'design');
#1440=PRODUCT_DEFINITION_FORMATION_WITH_SPECIFIED_SOURCE('','',#1442,
 .NOT_KNOWN.);
#1441=PRODUCT_RELATED_PRODUCT_CATEGORY('','',(#1442));
#1442=PRODUCT('Part 497','Part 497','Part 497',(#1444));
#1443=PRODUCT_CATEGORY('','');
#1444=PRODUCT_CONTEXT('',#1446,'mechanical');
#1445=APPLICATION_PROTOCOL_DEFINITION('international standard',
'ap242_managed_model_based_3d_engineering',2020,#1446);
#1446=APPLICATION_CONTEXT('managed model based 3d engineering');
ENDSEC;
END-ISO-10303-21;
